<svg width="350" height="320" viewBox="0 0 350 320" fill="none" xmlns="http://www.w3.org/2000/svg">
<path d="M180.023 66.6411C168.609 78.9524 162.717 95.244 156.306 110.753C149.895 126.261 141.984 142.124 128.173 151.675C118.367 158.457 103.204 155.284 92.6153 160.74C75.5656 169.574 68.8001 177.064 64.6881 195.82C59.7932 218.119 97.0569 275.003 132.911 288.287C154.889 296.42 185.577 292.349 202.618 276.272C219.66 260.195 216.891 228.757 219.75 205.502C221.819 188.749 220.731 171.354 226.441 155.474C231.501 141.407 241.604 129.5 246.145 115.252C252.185 96.2988 246.837 71.058 231.196 57.832C215.836 44.8696 192.425 53.2502 180.023 66.6411Z" fill="#407BFF"/>
<g opacity="0.9">
<path d="M180.023 66.6411C168.609 78.9524 162.717 95.244 156.306 110.753C149.895 126.261 141.984 142.124 128.173 151.675C118.367 158.457 103.204 155.284 92.6153 160.74C75.5656 169.574 68.8001 177.064 64.6881 195.82C59.7932 218.119 97.0569 275.003 132.911 288.287C154.889 296.42 185.577 292.349 202.618 276.272C219.66 260.195 216.891 228.757 219.75 205.502C221.819 188.749 220.731 171.354 226.441 155.474C231.501 141.407 241.604 129.5 246.145 115.252C252.185 96.2988 246.837 71.058 231.196 57.832C215.836 44.8696 192.425 53.2502 180.023 66.6411Z" fill="white" stroke="white" stroke-miterlimit="10"/>
</g>
<path d="M173.381 319.362C261.622 319.362 333.156 315.185 333.156 310.033C333.156 304.881 261.622 300.705 173.381 300.705C85.139 300.705 13.605 304.881 13.605 310.033C13.605 315.185 85.139 319.362 173.381 319.362Z" fill="#F5F5F5"/>
<path d="M88.8905 155.116C96.4878 147.18 95.6267 134.027 86.9672 125.737C78.3078 117.447 65.1291 117.161 57.5319 125.097C49.9347 133.033 50.7957 146.187 59.4552 154.476C68.1146 162.766 81.2933 163.053 88.8905 155.116Z" fill="#407BFF"/>
<g opacity="0.8">
<path d="M88.8903 155.116C96.4875 147.18 95.6264 134.027 86.967 125.737C78.3075 117.447 65.1289 117.161 57.5317 125.097C49.9344 133.033 50.7955 146.187 59.4549 154.476C68.1144 162.766 81.293 163.053 88.8903 155.116Z" fill="white"/>
</g>
<path d="M63.526 127.069C63.353 127.069 63.1844 127.015 63.0441 126.913C62.9038 126.812 62.7989 126.67 62.7442 126.506C62.6895 126.341 62.6878 126.164 62.7394 125.999C62.791 125.834 62.8932 125.69 63.0315 125.586C65.8064 123.594 69.1509 122.554 72.5658 122.619C72.7844 122.619 72.994 122.706 73.1485 122.86C73.3031 123.015 73.3899 123.225 73.3899 123.443C73.3899 123.662 73.3031 123.871 73.1485 124.026C72.994 124.18 72.7844 124.267 72.5658 124.267C69.5072 124.2 66.5091 125.125 64.0204 126.904C63.8777 127.011 63.7043 127.069 63.526 127.069Z" fill="#407BFF"/>
<path d="M67.4236 155.416C67.2883 155.416 67.1553 155.382 67.0363 155.318C64.5109 153.967 62.3195 152.069 60.6228 149.762C58.926 147.455 57.7668 144.797 57.2301 141.984C56.7065 139.551 56.7306 137.032 57.3007 134.609C57.8708 132.186 58.9726 129.92 60.5263 127.975C60.6662 127.807 60.8671 127.701 61.085 127.681C61.3029 127.661 61.5199 127.728 61.6882 127.868C61.8565 128.008 61.9623 128.209 61.9824 128.427C62.0025 128.645 61.9352 128.862 61.7953 129.03C60.3918 130.79 59.3981 132.841 58.8863 135.033C58.3746 137.226 58.3577 139.505 58.837 141.704C59.3307 144.276 60.3916 146.705 61.9426 148.815C63.4936 150.924 65.4955 152.662 67.8027 153.9C67.9638 153.987 68.0913 154.125 68.1652 154.293C68.2391 154.46 68.2551 154.648 68.2107 154.825C68.1663 155.003 68.064 155.161 67.92 155.274C67.776 155.387 67.5984 155.448 67.4154 155.449L67.4236 155.416Z" fill="#407BFF"/>
<path d="M75.6724 157.567C73.8279 157.559 71.9958 157.264 70.2419 156.694C70.1385 156.66 70.0428 156.607 69.9601 156.536C69.8775 156.466 69.8096 156.379 69.7602 156.283C69.7109 156.186 69.681 156.08 69.6725 155.972C69.6639 155.864 69.6768 155.755 69.7103 155.651C69.7439 155.548 69.7975 155.452 69.868 155.37C69.9386 155.287 70.0247 155.219 70.1215 155.17C70.2183 155.12 70.3238 155.09 70.4322 155.082C70.5405 155.073 70.6494 155.086 70.7528 155.12C75.8207 156.768 80.8804 155.845 84.6298 152.648C86.532 150.969 87.9695 148.828 88.8038 146.432C89.638 144.036 89.8409 141.466 89.3929 138.968C89.3579 138.75 89.4112 138.526 89.541 138.347C89.6708 138.168 89.8665 138.047 90.0851 138.012C90.3036 137.977 90.5271 138.031 90.7064 138.161C90.8856 138.29 91.006 138.486 91.041 138.705C91.5405 141.48 91.3136 144.337 90.3822 146.998C89.4508 149.659 87.8467 152.034 85.7258 153.892C82.9314 156.296 79.3584 157.602 75.6724 157.567Z" fill="#407BFF"/>
<path d="M89.5331 136.859C89.3583 136.858 89.1883 136.802 89.0476 136.698C88.9068 136.594 88.8027 136.449 88.7503 136.282C87.9924 133.942 86.7513 131.787 85.1074 129.957C83.4635 128.127 81.4536 126.663 79.2078 125.66C79.0067 125.572 78.8486 125.409 78.7682 125.205C78.6879 125.001 78.6918 124.773 78.7793 124.572C78.8667 124.371 79.0304 124.213 79.2344 124.132C79.4384 124.052 79.6659 124.056 79.867 124.144C82.3265 125.243 84.5275 126.847 86.3275 128.851C88.1275 130.856 89.4864 133.216 90.316 135.779C90.3836 135.987 90.366 136.213 90.2671 136.407C90.1682 136.602 89.9961 136.75 89.7886 136.817C89.7057 136.843 89.6198 136.856 89.5331 136.859Z" fill="#407BFF"/>
<path d="M76.546 124.729C76.4831 124.737 76.4193 124.737 76.3565 124.729C75.1163 124.44 73.8474 124.293 72.5741 124.292C72.3555 124.292 72.1459 124.205 71.9914 124.051C71.8368 123.896 71.75 123.686 71.75 123.468C71.75 123.249 71.8368 123.04 71.9914 122.885C72.1459 122.731 72.3555 122.644 72.5741 122.644C73.9615 122.648 75.344 122.811 76.6943 123.13C76.9129 123.155 77.1125 123.266 77.2493 123.438C77.386 123.611 77.4487 123.83 77.4236 124.049C77.3985 124.267 77.2875 124.467 77.1152 124.604C76.9429 124.741 76.7233 124.803 76.5048 124.778L76.546 124.729Z" fill="#407BFF"/>
<path d="M62.0097 144.415C61.8413 144.416 61.6768 144.365 61.5383 144.269C61.3998 144.173 61.294 144.037 61.2351 143.88C60.4626 141.886 60.1909 139.733 60.4438 137.609C60.6967 135.486 61.4663 133.457 62.6854 131.7C63.8377 130.036 65.3812 128.68 67.1801 127.752C68.979 126.824 70.9784 126.351 73.0025 126.377C73.2211 126.377 73.4307 126.464 73.5852 126.618C73.7398 126.773 73.8266 126.982 73.8266 127.201C73.8266 127.419 73.7398 127.629 73.5852 127.783C73.4307 127.938 73.2211 128.025 73.0025 128.025C71.2439 128.004 69.5068 128.414 67.9427 129.218C66.3786 130.022 65.0349 131.197 64.0286 132.64C62.9596 134.187 62.287 135.973 62.07 137.841C61.8531 139.709 62.0983 141.601 62.7843 143.352C62.8589 143.557 62.8497 143.782 62.7586 143.98C62.6675 144.177 62.502 144.331 62.2981 144.407C62.2031 144.426 62.1056 144.428 62.0097 144.415Z" fill="#407BFF"/>
<path d="M75.0793 153.826C72.6093 153.743 70.1958 153.066 68.0438 151.851C65.8918 150.635 64.0649 148.919 62.7185 146.846C62.6185 146.664 62.5909 146.451 62.6413 146.25C62.6917 146.048 62.8164 145.873 62.9903 145.759C63.1643 145.646 63.3747 145.602 63.5795 145.637C63.7843 145.672 63.9683 145.783 64.0947 145.948C65.2914 147.792 66.9142 149.32 68.8261 150.405C70.738 151.489 72.8828 152.097 75.0793 152.178C75.2979 152.178 75.5075 152.265 75.662 152.419C75.8166 152.574 75.9034 152.783 75.9034 153.002C75.9034 153.221 75.8166 153.43 75.662 153.585C75.5075 153.739 75.2979 153.826 75.0793 153.826Z" fill="#407BFF"/>
<path d="M78.1611 153.472C77.9729 153.477 77.7885 153.418 77.6385 153.304C77.4886 153.19 77.3822 153.028 77.3371 152.845C77.2848 152.633 77.3188 152.409 77.4316 152.222C77.5444 152.035 77.7267 151.901 77.9387 151.848C84.6217 150.2 86.3522 144.341 85.8001 139.842C85.0832 133.974 80.452 128.033 72.9779 128.025C72.7593 128.025 72.5497 127.938 72.3952 127.783C72.2406 127.629 72.1538 127.419 72.1538 127.201C72.1538 126.982 72.2406 126.773 72.3952 126.618C72.5497 126.464 72.7593 126.377 72.9779 126.377C81.4079 126.377 86.6324 133.052 87.44 139.644C88.264 146.442 84.6959 151.865 78.3342 153.447C78.2776 153.461 78.2195 153.469 78.1611 153.472Z" fill="#407BFF"/>
<path d="M69.6322 132.574C69.476 132.572 69.3234 132.527 69.1921 132.442C69.0607 132.358 68.9562 132.237 68.8906 132.096C68.7977 131.898 68.7873 131.671 68.8614 131.466C68.9356 131.26 69.0884 131.093 69.2861 131C70.5494 130.441 71.918 130.16 73.2993 130.176C73.5178 130.176 73.7274 130.262 73.882 130.417C74.0365 130.572 74.1233 130.781 74.1233 131C74.1233 131.218 74.0365 131.428 73.882 131.582C73.7274 131.737 73.5178 131.824 73.2993 131.824C72.1619 131.825 71.038 132.069 70.0031 132.541C69.8836 132.58 69.7567 132.591 69.6322 132.574Z" fill="#407BFF"/>
<path d="M74.931 149.986C72.8439 149.953 70.8102 149.321 69.0708 148.168C67.3313 147.014 65.959 145.386 65.1165 143.476C63.4107 139.76 63.9134 135.878 66.4597 133.076C66.6075 132.916 66.8127 132.821 67.0305 132.812C67.2482 132.803 67.4608 132.88 67.6216 133.027C67.7819 133.175 67.877 133.38 67.8863 133.598C67.8955 133.816 67.8182 134.028 67.6711 134.189C66.6471 135.347 65.9982 136.788 65.8099 138.323C65.6216 139.857 65.9028 141.412 66.6163 142.784C67.3446 144.448 68.5459 145.862 70.0711 146.85C71.5962 147.837 73.3779 148.355 75.1947 148.338C76.5691 148.328 77.9112 147.92 79.0591 147.164C80.207 146.408 81.1115 145.336 81.6635 144.078C82.2842 142.593 82.4711 140.962 82.2028 139.375C81.9344 137.788 81.2217 136.31 80.1472 135.112C80.0769 135.03 80.0234 134.934 79.9899 134.831C79.9564 134.729 79.9435 134.62 79.9519 134.512C79.9603 134.404 79.9899 134.299 80.039 134.203C80.088 134.106 80.1556 134.02 80.2379 133.95C80.3201 133.88 80.4154 133.826 80.5183 133.793C80.6212 133.759 80.7297 133.746 80.8376 133.755C80.9455 133.763 81.0507 133.793 81.1471 133.842C81.2436 133.891 81.3295 133.958 81.3998 134.041C82.679 135.475 83.5245 137.244 83.8382 139.14C84.1518 141.037 83.9206 142.983 83.1715 144.753C82.4953 146.298 81.3875 147.614 79.9812 148.544C78.5748 149.473 76.9299 149.977 75.2441 149.994L74.931 149.986Z" fill="#407BFF"/>
<path d="M78.4 133.299C78.2445 133.3 78.0923 133.254 77.9633 133.167C76.5718 132.271 74.9539 131.791 73.2992 131.783C73.0806 131.783 72.871 131.696 72.7165 131.541C72.5619 131.387 72.4751 131.177 72.4751 130.959C72.4751 130.74 72.5619 130.53 72.7165 130.376C72.871 130.221 73.0806 130.135 73.2992 130.135C75.2674 130.142 77.1922 130.714 78.845 131.783C78.9943 131.879 79.1084 132.021 79.1703 132.188C79.2322 132.354 79.2387 132.536 79.1886 132.707C79.1386 132.877 79.0348 133.027 78.8926 133.134C78.7505 133.241 78.5777 133.298 78.4 133.299Z" fill="#407BFF"/>
<path d="M74.4943 146.269C73.5314 146.263 72.5817 146.046 71.7118 145.633C70.842 145.22 70.0731 144.621 69.4593 143.88C68.6673 142.973 68.1529 141.858 67.9775 140.667C67.8022 139.476 67.9733 138.26 68.4704 137.164C68.9142 136.169 69.6404 135.326 70.5589 134.74C71.4775 134.154 72.5479 133.85 73.6373 133.867C73.8558 133.867 74.0654 133.954 74.22 134.109C74.3745 134.263 74.4613 134.473 74.4613 134.691C74.4613 134.91 74.3745 135.12 74.22 135.274C74.0654 135.429 73.8558 135.515 73.6373 135.515C72.8667 135.501 72.1089 135.713 71.4572 136.125C70.8056 136.536 70.2887 137.129 69.9702 137.831C69.6079 138.64 69.4859 139.537 69.6189 140.413C69.7519 141.29 70.1341 142.11 70.7201 142.775C71.3035 143.49 72.0779 144.025 72.9533 144.316C73.8286 144.608 74.7688 144.645 75.6644 144.423C76.3931 144.26 77.0593 143.89 77.5838 143.358C78.1082 142.826 78.4689 142.155 78.6228 141.424C78.6701 141.211 78.7999 141.026 78.9837 140.908C79.1675 140.791 79.3903 140.751 79.6034 140.798C79.7096 140.82 79.8102 140.863 79.8996 140.925C79.9891 140.986 80.0654 141.065 80.1244 141.156C80.1834 141.247 80.2237 141.349 80.2432 141.456C80.2627 141.563 80.2609 141.672 80.2379 141.778C80.0197 142.81 79.5113 143.757 78.7725 144.509C78.0337 145.261 77.0955 145.786 76.0682 146.022C75.5553 146.167 75.0269 146.25 74.4943 146.269Z" fill="#407BFF"/>
<path d="M79.29 139.743C79.1082 139.751 78.9288 139.699 78.7797 139.595C78.6307 139.49 78.5203 139.34 78.4659 139.166C78.1371 138.134 77.4943 137.229 76.6273 136.579C75.7602 135.93 74.712 135.566 73.6287 135.54C73.4102 135.54 73.2006 135.453 73.046 135.299C72.8915 135.144 72.8047 134.935 72.8047 134.716C72.8047 134.498 72.8915 134.288 73.046 134.133C73.2006 133.979 73.4102 133.892 73.6287 133.892C75.0615 133.924 76.4487 134.401 77.5976 135.258C78.7466 136.114 79.6002 137.308 80.0399 138.672C80.0732 138.775 80.0857 138.884 80.0768 138.992C80.0679 139.1 80.0376 139.206 79.9879 139.302C79.9381 139.399 79.8697 139.484 79.7867 139.554C79.7037 139.624 79.6077 139.677 79.5042 139.71C79.4346 139.73 79.3626 139.741 79.29 139.743Z" fill="#407BFF"/>
<path d="M74.7165 142.841C74.4979 142.841 74.2883 142.754 74.1338 142.6C73.9792 142.445 73.8924 142.236 73.8924 142.017C73.8924 141.799 73.9792 141.589 74.1338 141.435C74.2883 141.28 74.4979 141.193 74.7165 141.193C74.829 141.193 74.9403 141.171 75.0437 141.126C75.147 141.082 75.2402 141.016 75.3174 140.935C75.3946 140.853 75.4542 140.756 75.4926 140.65C75.531 140.544 75.5473 140.432 75.5405 140.32C75.5449 140.159 75.5174 140 75.4595 139.85C75.4016 139.7 75.3145 139.563 75.2033 139.448C75.0922 139.332 74.9591 139.239 74.8119 139.175C74.6646 139.111 74.5061 139.077 74.3456 139.075C74.2248 139.079 74.1057 139.106 73.9954 139.155C73.8851 139.205 73.7856 139.276 73.7029 139.364C73.6184 139.463 73.5546 139.579 73.515 139.703C73.4754 139.828 73.4608 139.959 73.4721 140.089C73.4786 140.197 73.4638 140.306 73.4283 140.408C73.3929 140.511 73.3377 140.605 73.2658 140.686C73.1938 140.767 73.1066 140.833 73.0091 140.881C72.9116 140.928 72.8058 140.956 72.6975 140.962C72.5893 140.969 72.4809 140.954 72.3784 140.919C72.276 140.883 72.1815 140.828 72.1004 140.756C72.0193 140.684 71.9531 140.597 71.9057 140.499C71.8583 140.402 71.8305 140.296 71.824 140.188C71.7947 139.842 71.8364 139.494 71.9465 139.165C72.0566 138.836 72.2329 138.533 72.4644 138.274C72.6959 138.016 72.9778 137.807 73.2928 137.661C73.6078 137.516 73.9493 137.436 74.2962 137.427C74.6734 137.428 75.0467 137.504 75.3944 137.651C75.7421 137.797 76.0573 138.011 76.3217 138.28C76.5861 138.549 76.7945 138.868 76.9349 139.218C77.0752 139.568 77.1446 139.942 77.1392 140.32C77.1458 140.648 77.0867 140.975 76.9654 141.281C76.8441 141.587 76.663 141.865 76.4328 142.1C76.2026 142.335 75.9278 142.521 75.6246 142.648C75.3214 142.776 74.9959 142.841 74.667 142.841H74.7165Z" fill="#407BFF"/>
<path d="M95.9195 140.097C96.9248 151.576 88.4288 160.88 76.9663 160.88H76.0763C87.0032 160.319 94.9388 151.238 93.9665 140.122C93.4049 134.681 90.9371 129.613 86.9996 125.816C83.0621 122.019 77.9085 119.736 72.4504 119.372C72.7389 119.372 73.0355 119.372 73.3322 119.372C84.8277 119.323 94.9471 128.626 95.9195 140.097Z" fill="#407BFF"/>
<g opacity="0.4">
<path d="M95.9195 140.097C96.9248 151.576 88.4288 160.88 76.9663 160.88H76.0763C87.0032 160.319 94.9388 151.238 93.9665 140.122C93.4049 134.681 90.9371 129.613 86.9996 125.816C83.0621 122.019 77.9085 119.736 72.4504 119.372C72.7389 119.372 73.0355 119.372 73.3322 119.372C84.8277 119.323 94.9471 128.626 95.9195 140.097Z" fill="white"/>
</g>
<path d="M112.747 38.8126C112.767 39.0586 112.8 39.3034 112.846 39.546C113.157 41.1338 113.972 42.5788 115.17 43.6663C116.527 44.9372 118.312 45.6519 120.172 45.6688H189.796C190.609 45.6852 191.417 45.5398 192.173 45.2411C192.929 44.9424 193.618 44.4963 194.2 43.9289C194.782 43.3614 195.245 42.6839 195.563 41.9357C195.881 41.1875 196.046 40.3836 196.051 39.5708C196.063 39.3264 196.063 39.0817 196.051 38.8374C195.857 36.9923 194.996 35.2814 193.631 34.0253C192.266 32.7692 190.489 32.0542 188.634 32.0142H118.993C118.12 31.9965 117.254 32.1648 116.451 32.5079C115.648 32.8509 114.927 33.3609 114.336 34.0039C113.745 34.6468 113.298 35.4082 113.024 36.2373C112.75 37.0663 112.656 37.9442 112.747 38.8126Z" fill="#407BFF"/>
<path opacity="0.8" d="M112.747 38.8126C112.767 39.0586 112.8 39.3034 112.846 39.546C113.157 41.1338 113.972 42.5788 115.17 43.6663C116.527 44.9372 118.312 45.6519 120.172 45.6688H189.796C190.609 45.6852 191.417 45.5398 192.173 45.2411C192.929 44.9424 193.618 44.4963 194.2 43.9289C194.782 43.3614 195.245 42.6839 195.563 41.9357C195.881 41.1875 196.046 40.3836 196.051 39.5708C196.063 39.3264 196.063 39.0817 196.051 38.8374C195.857 36.9923 194.996 35.2814 193.631 34.0253C192.266 32.7692 190.489 32.0542 188.634 32.0142H118.993C118.12 31.9965 117.254 32.1648 116.451 32.5079C115.648 32.8509 114.927 33.3609 114.336 34.0039C113.745 34.6468 113.298 35.4082 113.024 36.2373C112.75 37.0663 112.656 37.9442 112.747 38.8126Z" fill="white"/>
<path d="M196.051 39.5213C196.051 39.7419 196.034 39.9623 196.001 40.1805C195.756 38.3772 194.873 36.7213 193.513 35.5122C192.152 34.3031 190.404 33.6206 188.585 33.5881L114.56 33.7529C115.147 33.1821 115.841 32.7325 116.601 32.4299C117.362 32.1273 118.175 31.9776 118.993 31.9894H188.618C190.473 32.0294 192.249 32.7444 193.614 34.0005C194.98 35.2566 195.84 36.9675 196.034 38.8126C196.051 39.0484 196.057 39.2849 196.051 39.5213Z" fill="#407BFF"/>
<path opacity="0.5" d="M196.051 39.5213C196.051 39.7419 196.034 39.9623 196.001 40.1805C195.756 38.3772 194.873 36.7213 193.513 35.5122C192.152 34.3031 190.404 33.6206 188.585 33.5881L114.56 33.7529C115.147 33.1821 115.841 32.7325 116.601 32.4299C117.362 32.1273 118.175 31.9776 118.993 31.9894H188.618C190.473 32.0294 192.249 32.7444 193.614 34.0005C194.98 35.2566 195.84 36.9675 196.034 38.8126C196.051 39.0484 196.057 39.2849 196.051 39.5213Z" fill="white"/>
<path d="M184.094 35.2858L184.39 38.582L187.489 37.4284L188.222 39.0765L185.058 40.1313L187.332 42.9248L185.907 43.9714L183.69 41.0707L182.042 43.9714L180.484 42.9248L182.24 40.1313L178.943 39.0765L179.388 37.4284L182.726 38.5408L182.429 35.2446L184.094 35.2858Z" fill="#407BFF"/>
<path d="M165.017 35.2858L165.314 38.582L168.412 37.4283L169.154 39.0764L165.965 40.1559L168.239 42.9495L166.822 43.996L164.605 41.0953L162.957 43.996L161.391 42.9495L163.155 40.1559L159.858 39.1011L160.303 37.453L163.641 38.5655L163.352 35.2693L165.017 35.2858Z" fill="#407BFF"/>
<path d="M145.981 35.2858L146.27 38.582L149.368 37.4283L150.11 39.0764L146.937 40.1312L149.211 42.9247L147.835 43.996L145.619 41.0953L143.971 43.996L142.413 42.9495L144.168 40.1559L140.872 39.1011L141.325 37.453L144.622 38.5655L144.333 35.2693L145.981 35.2858Z" fill="#407BFF"/>
<path d="M126.937 35.2858L127.226 38.582L130.333 37.4284L131.066 39.0765L127.893 40.1313L130.176 42.9248L128.75 43.9714L126.534 41.0707L124.886 43.9714L123.328 42.9248L125.083 40.1313L121.787 39.0765L122.232 37.4284L125.528 38.5408L125.24 35.2446L126.937 35.2858Z" fill="#407BFF"/>
<path d="M173.092 28.7593H169.846V29.5833H173.092V28.7593Z" fill="#407BFF"/>
<path d="M187.044 28.7593H176.455V29.5833H187.044V28.7593Z" fill="#407BFF"/>
<path opacity="0.8" d="M295.167 59.4965L291.797 98.0292C291.667 99.2591 291.093 100.399 290.183 101.237C289.273 102.074 288.089 102.551 286.853 102.578H260.096C259.517 102.581 258.943 102.462 258.413 102.229C257.883 101.996 257.408 101.653 257.02 101.224C256.631 100.795 256.337 100.288 256.157 99.7379C255.977 99.1874 255.915 98.6052 255.975 98.0292L259.346 59.4883C259.471 58.2564 260.043 57.1131 260.954 56.2748C261.865 55.4365 263.052 54.9614 264.29 54.9395H291.047C291.627 54.9363 292.201 55.0554 292.732 55.2892C293.262 55.5231 293.738 55.8663 294.127 56.2964C294.516 56.7265 294.809 57.2339 294.989 57.7854C295.168 58.3368 295.229 58.9199 295.167 59.4965Z" fill="#407BFF"/>
<path opacity="0.8" d="M295.167 59.4965L291.797 98.0292C291.667 99.2591 291.093 100.399 290.183 101.237C289.273 102.074 288.089 102.551 286.853 102.578H260.096C259.517 102.581 258.943 102.462 258.413 102.229C257.883 101.996 257.408 101.653 257.02 101.224C256.631 100.795 256.337 100.288 256.157 99.7379C255.977 99.1874 255.915 98.6052 255.975 98.0292L259.346 59.4883C259.471 58.2564 260.043 57.1131 260.954 56.2748C261.865 55.4365 263.052 54.9614 264.29 54.9395H291.047C291.627 54.9363 292.201 55.0554 292.732 55.2892C293.262 55.5231 293.738 55.8663 294.127 56.2964C294.516 56.7265 294.809 57.2339 294.989 57.7854C295.168 58.3368 295.229 58.9199 295.167 59.4965Z" fill="white"/>
<path d="M261.785 65.71H261.711C261.493 65.6912 261.292 65.5869 261.152 65.4201C261.011 65.2532 260.943 65.0375 260.961 64.8201L261.274 61.2931C261.293 61.0877 261.388 60.8966 261.54 60.7578C261.693 60.619 261.892 60.5424 262.098 60.5432H265.823C266.041 60.5432 266.251 60.63 266.406 60.7846C266.56 60.9391 266.647 61.1487 266.647 61.3673C266.647 61.5858 266.56 61.7954 266.406 61.95C266.251 62.1045 266.041 62.1913 265.823 62.1913H262.856L262.609 64.9601C262.59 65.1656 262.495 65.3566 262.343 65.4955C262.19 65.6343 261.991 65.7109 261.785 65.71Z" fill="#407BFF"/>
<path d="M291.748 65.71H291.674C291.456 65.6912 291.255 65.5869 291.115 65.4201C290.974 65.2532 290.906 65.0375 290.924 64.8201L291.155 62.1913H288.336C288.118 62.1913 287.908 62.1045 287.754 61.95C287.599 61.7954 287.512 61.5858 287.512 61.3673C287.512 61.1487 287.599 60.9391 287.754 60.7846C287.908 60.63 288.118 60.5432 288.336 60.5432H292.044C292.159 60.5428 292.273 60.5663 292.378 60.6122C292.483 60.6582 292.577 60.7256 292.655 60.8102C292.733 60.8947 292.792 60.9946 292.828 61.1033C292.865 61.212 292.879 61.3272 292.869 61.4414L292.555 64.9601C292.537 65.1628 292.445 65.3515 292.295 65.49C292.146 65.6284 291.951 65.7068 291.748 65.71Z" fill="#407BFF"/>
<path d="M263.203 92.3023H259.478C259.365 92.302 259.253 92.2784 259.15 92.233C259.046 92.1876 258.953 92.1215 258.876 92.0386C258.799 91.9547 258.74 91.8558 258.704 91.748C258.667 91.6402 258.653 91.5259 258.662 91.4124L258.967 87.8854C258.986 87.6669 259.09 87.4646 259.258 87.3232C259.426 87.1818 259.643 87.1128 259.861 87.1314C260.08 87.15 260.282 87.2546 260.423 87.4223C260.565 87.59 260.634 87.8069 260.615 88.0255L260.384 90.6542H263.203C263.421 90.6542 263.631 90.741 263.785 90.8956C263.94 91.0501 264.027 91.2597 264.027 91.4783C264.027 91.6968 263.94 91.9064 263.785 92.061C263.631 92.2155 263.421 92.3023 263.203 92.3023Z" fill="#407BFF"/>
<path d="M289.416 92.302H285.699C285.481 92.302 285.271 92.2152 285.116 92.0607C284.962 91.9061 284.875 91.6965 284.875 91.478C284.875 91.2594 284.962 91.0498 285.116 90.8953C285.271 90.7407 285.481 90.6539 285.699 90.6539H288.666L288.905 87.8851C288.923 87.6678 289.028 87.4668 289.195 87.3262C289.361 87.1856 289.577 87.117 289.795 87.1352C290.012 87.1541 290.213 87.2584 290.354 87.4252C290.494 87.592 290.563 87.8078 290.544 88.0252L290.24 91.5521C290.221 91.7576 290.126 91.9486 289.974 92.0875C289.821 92.2263 289.622 92.3029 289.416 92.302Z" fill="#407BFF"/>
<path d="M286.579 79.0158C288.44 71.8016 285.246 64.741 279.447 63.2454C273.647 61.7499 267.438 66.3858 265.577 73.5999C263.717 80.8141 266.91 87.8747 272.71 89.3703C278.51 90.8658 284.719 86.23 286.579 79.0158Z" fill="white"/>
<path d="M279.313 96.818H268.641L269.572 86.1465H280.244L279.313 96.818Z" fill="white"/>
<path d="M291.797 98.0294C291.667 99.2592 291.093 100.4 290.183 101.237C289.273 102.074 288.089 102.551 286.853 102.578H260.096C259.517 102.581 258.943 102.462 258.413 102.229C257.883 101.996 257.408 101.653 257.02 101.224C256.631 100.795 256.337 100.289 256.157 99.738C255.977 99.1876 255.915 98.6054 255.975 98.0294C255.975 98.0294 268.27 94.1399 269.787 94.1399H279.288L291.797 98.0294Z" fill="white"/>
<path d="M296.722 70.7576L295.475 85.8936L296.296 85.9612L297.543 70.8252L296.722 70.7576Z" fill="#407BFF"/>
<path d="M297.588 63.8314L297.344 66.8044L298.165 66.8721L298.41 63.8991L297.588 63.8314Z" fill="#407BFF"/>
<path d="M268.872 155.771H265.625V156.595H268.872V155.771Z" fill="#407BFF"/>
<path d="M282.823 155.771H272.234V156.595H282.823V155.771Z" fill="#407BFF"/>
<path d="M302.205 141.704L300.153 165.19C300.046 166.228 299.563 167.191 298.795 167.897C298.027 168.603 297.027 169.003 295.983 169.021C295.492 169.03 295.005 168.934 294.554 168.74C294.103 168.546 293.699 168.258 293.367 167.896C293.036 167.534 292.786 167.105 292.633 166.638C292.48 166.172 292.428 165.678 292.481 165.19L294.517 141.704C294.706 139.953 294.521 138.181 293.973 136.506C293.426 134.831 292.529 133.292 291.341 131.991C290.153 130.689 288.703 129.655 287.085 128.958C285.467 128.26 283.72 127.914 281.958 127.942H273.586C269.841 128.013 266.252 129.452 263.495 131.987C260.738 134.522 259.005 137.979 258.621 141.704L257.797 151.296H250.133L250.957 141.704C251.987 129.887 262.444 120.279 274.253 120.279H282.658C285.401 120.234 288.122 120.772 290.64 121.859C293.158 122.945 295.417 124.555 297.265 126.582C299.114 128.608 300.51 131.004 301.362 133.611C302.214 136.219 302.501 138.977 302.205 141.704Z" fill="#407BFF"/>
<g opacity="0.5">
<path d="M302.205 141.704L300.153 165.19C300.047 166.228 299.564 167.191 298.795 167.897C298.027 168.603 297.027 169.003 295.984 169.021C295.493 169.03 295.006 168.934 294.555 168.74C294.104 168.546 293.699 168.258 293.368 167.896C293.036 167.534 292.786 167.105 292.633 166.638C292.48 166.172 292.429 165.678 292.481 165.19L294.517 141.704C294.706 139.953 294.521 138.181 293.974 136.506C293.426 134.831 292.529 133.292 291.341 131.991C290.154 130.689 288.703 129.655 287.085 128.958C285.467 128.26 283.72 127.914 281.958 127.942H273.586C269.841 128.013 266.252 129.452 263.495 131.987C260.739 134.522 259.005 137.979 258.621 141.704L257.797 151.296H250.133L250.957 141.704C251.987 129.887 262.445 120.279 274.253 120.279H282.659C285.401 120.234 288.122 120.772 290.64 121.859C293.159 122.945 295.417 124.555 297.266 126.582C299.114 128.608 300.511 131.004 301.362 133.611C302.214 136.219 302.501 138.977 302.205 141.704Z" fill="white"/>
</g>
<path d="M302.757 164.333L298.761 210.101C298.615 211.52 297.955 212.836 296.904 213.801C295.853 214.765 294.484 215.31 293.058 215.333H247.29C246.62 215.345 245.955 215.215 245.339 214.95C244.723 214.685 244.17 214.292 243.718 213.797C243.266 213.302 242.925 212.716 242.716 212.079C242.508 211.441 242.438 210.767 242.511 210.101L246.516 164.333C246.608 163.42 246.914 162.542 247.409 161.77C247.905 160.999 248.576 160.355 249.367 159.891C250.226 159.365 251.211 159.08 252.218 159.067H297.978C298.913 159.062 299.83 159.322 300.623 159.817C301.363 160.297 301.955 160.974 302.332 161.771C302.709 162.569 302.856 163.456 302.757 164.333Z" fill="#407BFF"/>
<path d="M255.168 184.324L267.059 202.626L306.276 163.41C306.336 163.337 306.369 163.245 306.367 163.15C306.366 163.056 306.331 162.965 306.268 162.894C306.205 162.823 306.119 162.777 306.025 162.764C305.931 162.752 305.836 162.773 305.757 162.825L268.386 192.12L261.324 180.739L255.168 184.324Z" fill="white"/>
<path d="M67.9021 95.8128H38.0878C36.7083 95.7878 35.3858 95.2584 34.37 94.3246C33.3543 93.3909 32.7157 92.1174 32.5749 90.7449L29.9956 60.9471C29.924 60.3019 29.9909 59.6488 30.1917 59.0314C30.3925 58.4141 30.7227 57.8467 31.1602 57.367C31.5977 56.8874 32.1325 56.5066 32.7289 56.25C33.3252 55.9935 33.9695 55.8671 34.6186 55.8792H64.3998C65.7741 55.9104 67.0897 56.4428 68.0989 57.3761C69.1081 58.3095 69.7415 59.5795 69.8798 60.9471L72.4838 90.7284C72.5574 91.3715 72.4935 92.0228 72.2962 92.6392C72.099 93.2557 71.7729 93.8231 71.3396 94.3039C70.9063 94.7847 70.3758 95.1679 69.7831 95.4281C69.1905 95.6882 68.5493 95.8194 67.9021 95.8128Z" fill="#407BFF"/>
<path opacity="0.8" d="M67.9021 95.8128H38.0878C36.7083 95.7878 35.3858 95.2584 34.37 94.3246C33.3543 93.3909 32.7157 92.1174 32.5749 90.7449L29.9956 60.9471C29.924 60.3019 29.9909 59.6488 30.1917 59.0314C30.3925 58.4141 30.7227 57.8467 31.1602 57.367C31.5977 56.8874 32.1325 56.5066 32.7289 56.25C33.3252 55.9935 33.9695 55.8671 34.6186 55.8792H64.3998C65.7741 55.9104 67.0897 56.4428 68.0989 57.3761C69.1081 58.3095 69.7415 59.5795 69.8798 60.9471L72.4838 90.7284C72.5574 91.3715 72.4935 92.0228 72.2962 92.6392C72.099 93.2557 71.7729 93.8231 71.3396 94.3039C70.9063 94.7847 70.3758 95.1679 69.7831 95.4281C69.1905 95.6882 68.5493 95.8194 67.9021 95.8128Z" fill="white"/>
<path d="M32.5913 78.8538C32.5913 78.8538 43.1804 64.1115 50.9759 64.4906C58.7715 64.8696 71.7256 78.4995 71.7256 78.4995C71.7256 78.4995 52.6323 88.5282 32.5913 78.8538Z" fill="white"/>
<path d="M32.9292 79.0762L32.2617 78.5982C32.6902 77.9967 42.7849 64.0537 50.6793 64.0537H51.0007C58.8786 64.4328 71.4866 77.6341 72.0223 78.1944L71.429 78.763C71.2971 78.6312 58.5078 65.2403 50.9595 64.8778H50.6793C43.1804 64.8942 33.0281 78.9526 32.9292 79.0762Z" fill="#263238"/>
<path d="M31.4953 79.3728C29.8967 79.3728 27.8201 78.7795 27.0866 76.5216C27.0528 76.4178 27.0616 76.3048 27.1111 76.2075C27.1605 76.1102 27.2466 76.0364 27.3503 76.0025C27.4017 75.9846 27.4561 75.9772 27.5104 75.9809C27.5646 75.9846 27.6176 75.9991 27.6661 76.0238C27.7146 76.0484 27.7576 76.0825 27.7925 76.1242C27.8275 76.1659 27.8537 76.2141 27.8695 76.2662C28.8172 79.1833 32.3606 78.4829 32.5089 78.4499C32.6158 78.4302 32.7261 78.4527 32.8168 78.5126C32.9074 78.5726 32.9713 78.6653 32.9951 78.7713C33.0059 78.8243 33.0062 78.879 32.9959 78.9321C32.9856 78.9852 32.965 79.0358 32.9351 79.081C32.9053 79.1261 32.8668 79.1649 32.822 79.1952C32.7771 79.2255 32.7268 79.2467 32.6737 79.2575C32.2856 79.3343 31.8909 79.3729 31.4953 79.3728Z" fill="#263238"/>
<path d="M37.7829 73.0442C37.6909 73.046 37.601 73.017 37.5274 72.9618C37.4038 72.8629 34.4784 70.605 33.7368 68.3059C33.703 68.2021 33.7118 68.0891 33.7612 67.9918C33.8107 67.8944 33.8967 67.8207 34.0005 67.7867C34.1043 67.7552 34.2164 67.765 34.3131 67.8141C34.4099 67.8633 34.4839 67.948 34.5196 68.0504C35.1871 70.1023 37.9971 72.2861 38.0301 72.3026C38.1163 72.3693 38.1724 72.4675 38.1863 72.5757C38.2002 72.6838 38.1707 72.793 38.1043 72.8794C38.0667 72.9295 38.0183 72.9703 37.9626 72.9989C37.9069 73.0275 37.8455 73.0429 37.7829 73.0442Z" fill="#263238"/>
<path d="M43.8315 67.4322C43.7236 67.426 43.622 67.3792 43.5471 67.3013C43.4722 67.2234 43.4296 67.12 43.4277 67.0119C42.9465 65.2171 42.3491 63.4554 41.6395 61.738C41.4335 61.1941 41.2851 60.7986 41.2522 60.6997C41.2358 60.6472 41.23 60.592 41.2353 60.5373C41.2406 60.4826 41.2567 60.4294 41.2828 60.3811C41.3089 60.3327 41.3445 60.29 41.3873 60.2556C41.4302 60.2211 41.4795 60.1956 41.5323 60.1805C41.5843 60.1654 41.6387 60.1606 41.6925 60.1665C41.7463 60.1724 41.7984 60.1888 41.8458 60.2148C41.8933 60.2408 41.9351 60.2759 41.969 60.3181C42.0029 60.3603 42.0281 60.4088 42.0433 60.4607C42.0433 60.5596 42.2163 60.9222 42.4058 61.4413C43.5595 64.4656 44.2682 66.4516 44.2517 67.0284C44.2518 67.0829 44.2408 67.1368 44.2195 67.1868C44.1982 67.2369 44.1669 67.2822 44.1277 67.3199C44.0884 67.3576 44.042 67.387 43.991 67.4063C43.9401 67.4256 43.8859 67.4344 43.8315 67.4322Z" fill="#263238"/>
<path d="M50.9759 64.9025C50.8732 64.8992 50.775 64.8591 50.6994 64.7896C50.6238 64.72 50.5757 64.6255 50.5639 64.5234L49.987 57.931C49.9772 57.8217 50.0112 57.713 50.0815 57.6288C50.1518 57.5446 50.2527 57.4917 50.362 57.4819C50.4712 57.4721 50.5799 57.506 50.6642 57.5764C50.7484 57.6467 50.8012 57.7476 50.8111 57.8568L51.3879 64.4987C51.395 64.6063 51.3604 64.7125 51.2914 64.7953C51.2224 64.8781 51.1242 64.9312 51.0171 64.9437L50.9759 64.9025Z" fill="#263238"/>
<path d="M72.9615 78.9195C72.5584 78.9215 72.1558 78.8884 71.7584 78.8206C71.7054 78.8098 71.655 78.7887 71.6102 78.7584C71.5653 78.7281 71.5269 78.6893 71.497 78.6441C71.4672 78.599 71.4465 78.5484 71.4362 78.4952C71.4259 78.4421 71.4262 78.3875 71.437 78.3344C71.4458 78.2812 71.4654 78.2303 71.4946 78.1849C71.5237 78.1396 71.5618 78.1006 71.6066 78.0705C71.6514 78.0404 71.7018 78.0198 71.7549 78.0099C71.8079 78 71.8624 78.0011 71.915 78.0131C71.915 78.0131 73.9339 78.4004 75.17 77.5269C75.4345 77.3344 75.655 77.088 75.8169 76.8038C75.9789 76.5197 76.0786 76.2043 76.1094 75.8787C76.1176 75.8246 76.1362 75.7727 76.1644 75.7258C76.1927 75.6789 76.2298 75.638 76.2738 75.6055C76.3178 75.573 76.3678 75.5495 76.4209 75.5362C76.474 75.523 76.5292 75.5204 76.5833 75.5285C76.6374 75.5367 76.6893 75.5553 76.7362 75.5835C76.7831 75.6118 76.824 75.6489 76.8565 75.6929C76.889 75.7369 76.9126 75.7869 76.9258 75.84C76.939 75.8931 76.9416 75.9483 76.9335 76.0024C76.8837 76.436 76.7436 76.8543 76.5222 77.2305C76.3007 77.6066 76.0029 77.9321 75.648 78.1861C74.8472 78.6965 73.9106 78.9522 72.9615 78.9195Z" fill="#263238"/>
<path d="M65.5615 72.6072C65.5036 72.6076 65.4462 72.5953 65.3935 72.5711C65.3408 72.5469 65.2941 72.5114 65.2566 72.4671C65.218 72.4288 65.1874 72.3832 65.1665 72.333C65.1455 72.2828 65.1348 72.229 65.1348 72.1746C65.1348 72.1202 65.1455 72.0663 65.1665 72.0161C65.1874 71.9659 65.218 71.9203 65.2566 71.882C65.2566 71.882 67.7288 69.7065 67.9925 67.6794C68.0108 67.5721 68.0699 67.4761 68.1575 67.4115C68.2451 67.347 68.3543 67.3189 68.4622 67.3333C68.5158 67.3413 68.5673 67.3599 68.6137 67.3878C68.6601 67.4158 68.7006 67.4527 68.7327 67.4963C68.7649 67.5399 68.7881 67.5895 68.8011 67.6421C68.814 67.6947 68.8165 67.7494 68.8083 67.803C68.4622 70.1268 65.9076 72.4012 65.8005 72.5001C65.7361 72.563 65.6514 72.601 65.5615 72.6072Z" fill="#263238"/>
<path d="M58.5985 67.8197H58.5243C58.4169 67.7995 58.3216 67.7384 58.2585 67.6492C58.1954 67.5599 58.1696 67.4497 58.1864 67.3417C58.1864 67.2923 59.0929 61.9936 59.2577 60.9059C59.2658 60.8517 59.2845 60.7998 59.3127 60.7529C59.3409 60.706 59.3781 60.6651 59.4221 60.6326C59.4661 60.6001 59.5161 60.5766 59.5692 60.5634C59.6222 60.5501 59.6774 60.5475 59.7315 60.5556C59.7856 60.5637 59.8376 60.5825 59.8845 60.6107C59.9314 60.6389 59.9723 60.676 60.0048 60.72C60.0373 60.764 60.0608 60.814 60.074 60.8671C60.0873 60.9202 60.0899 60.9754 60.0818 61.0295C59.9169 62.1255 59.0187 67.4324 59.0105 67.4818C58.9929 67.5778 58.9419 67.6644 58.8664 67.7263C58.791 67.7882 58.696 67.8213 58.5985 67.8197Z" fill="#263238"/>
<path d="M58.8404 80.5798C62.2519 77.0161 61.862 71.1064 57.9695 67.3802C54.0771 63.6539 48.156 63.5222 44.7445 67.0859C41.333 70.6496 41.7229 76.5593 45.6153 80.2855C49.5078 84.0118 55.4289 84.1435 58.8404 80.5798Z" fill="#407BFF"/>
<path opacity="0.3" d="M55.6566 73.8271C55.6689 73.6185 55.6689 73.4094 55.6566 73.2008C55.5459 72.1265 55.0455 71.1299 54.2498 70.3995C53.4541 69.6692 52.4185 69.2556 51.3386 69.2371C50.831 69.2283 50.3274 69.3276 49.8612 69.5285C49.395 69.7293 48.9769 70.0271 48.6347 70.4021C48.2925 70.777 48.034 71.2205 47.8765 71.7031C47.7189 72.1856 47.6659 72.6962 47.721 73.2008C47.7346 73.4134 47.7733 73.6236 47.8363 73.8271H42.4635C42.3322 72.6389 42.4556 71.4362 42.8255 70.2994C43.1954 69.1626 43.8034 68.1177 44.6088 67.2342C45.4143 66.3508 46.3988 65.6492 47.4967 65.1761C48.5946 64.703 49.7807 64.4693 50.976 64.4906C53.5176 64.5375 55.9542 65.513 57.826 67.233C59.6977 68.953 60.8753 71.2985 61.1366 73.8271H55.6566Z" fill="black"/>
<path opacity="0.7" d="M55.6483 73.2006C55.6606 73.4091 55.6606 73.6183 55.6483 73.8269C55.5891 74.7441 55.1781 75.6032 54.5011 76.2249C53.8241 76.8467 52.9332 77.1831 52.0142 77.1643C51.0455 77.1462 50.1097 76.8095 49.3516 76.2062C48.5934 75.603 48.0551 74.7667 47.8198 73.8269C47.7568 73.6234 47.7181 73.4131 47.7044 73.2006C47.6494 72.6959 47.7024 72.1854 47.8599 71.7028C48.0175 71.2202 48.276 70.7767 48.6182 70.4018C48.9604 70.0268 49.3785 69.7291 49.8447 69.5282C50.3109 69.3273 50.8145 69.228 51.322 69.2369C52.4034 69.2534 53.4411 69.666 54.2384 70.3966C55.0358 71.1271 55.5375 72.1248 55.6483 73.2006Z" fill="black"/>
<path opacity="0.7" d="M57.7992 69.311C57.8437 69.7223 57.8002 70.1384 57.6715 70.5316C57.5429 70.9249 57.332 71.2862 57.053 71.5917C56.774 71.8972 56.4332 72.1399 56.0532 72.3036C55.6733 72.4673 55.2628 72.5483 54.8491 72.5413C53.9707 72.5238 53.1289 72.1857 52.4823 71.5908C51.8357 70.9958 51.429 70.185 51.3387 69.311C51.2928 68.8994 51.3354 68.4827 51.4636 68.0889C51.5917 67.6951 51.8025 67.3331 52.0818 67.0273C52.361 66.7215 52.7024 66.4789 53.083 66.3156C53.4636 66.1524 53.8747 66.0723 54.2888 66.0807C55.1678 66.0964 56.0106 66.4338 56.6575 67.0291C57.3045 67.6244 57.7107 68.4363 57.7992 69.311Z" fill="white"/>
<path d="M45.0427 52.1956H41.7959V53.0196H45.0427V52.1956Z" fill="#407BFF"/>
<path d="M58.9939 52.1956H48.4048V53.0196H58.9939V52.1956Z" fill="#407BFF"/>
<path d="M194.806 112.574L195.086 112.912L195.465 113.349C195.737 113.637 196.001 113.942 196.29 114.222C196.858 114.815 197.476 115.392 198.102 115.977C199.354 117.131 200.666 118.218 202.033 119.232C203.426 120.271 204.893 121.218 206.359 122.158C207.184 122.603 207.859 123.072 208.634 123.501L210.422 124.49C210.682 124.604 210.974 124.622 211.246 124.539C211.823 124.366 215.136 121.086 216.19 119.867C218.531 117.189 222.074 113.662 223.986 110.662L226.12 113.604C224.771 117.279 222.981 120.777 220.789 124.02C219.61 125.773 218.196 127.357 216.586 128.725C215.62 129.539 214.529 130.193 213.356 130.662C211.868 131.255 210.235 131.379 208.675 131.016C208.272 130.918 207.878 130.786 207.497 130.621L206.755 130.299L205.42 129.689C204.522 129.294 203.657 128.816 202.783 128.379C201.037 127.447 199.342 126.421 197.707 125.306C196.059 124.172 194.477 122.945 192.969 121.63C192.186 120.946 191.485 120.254 190.768 119.504C190.414 119.133 190.051 118.746 189.705 118.342L189.194 117.716C189.005 117.485 188.865 117.312 188.609 116.958L194.806 112.574Z" fill="#FFB573"/>
<path d="M223.648 111.115L227.472 102.941L231.122 109.484C231.122 109.484 228.724 113.604 226.12 113.604L223.648 111.115Z" fill="#FFB573"/>
<path d="M231.806 99.5457L235.663 104.506L231.155 109.475L227.504 102.941L231.806 99.5457Z" fill="#FFB573"/>
<path d="M230.463 111.733H236.536C236.708 111.732 236.872 111.667 236.999 111.552C237.125 111.436 237.204 111.278 237.22 111.107L238.481 96.546C238.49 96.4508 238.479 96.3548 238.449 96.264C238.419 96.1733 238.37 96.0899 238.306 96.0192C238.241 95.9485 238.163 95.8922 238.075 95.8538C237.987 95.8153 237.893 95.7957 237.797 95.7961H231.732C231.559 95.7976 231.394 95.8635 231.267 95.9809C231.14 96.0983 231.062 96.2587 231.048 96.4307L229.771 110.983C229.763 111.079 229.775 111.175 229.806 111.266C229.837 111.357 229.887 111.44 229.952 111.511C230.017 111.581 230.096 111.637 230.184 111.676C230.272 111.714 230.367 111.734 230.463 111.733Z" fill="#407BFF"/>
<path opacity="0.3" d="M230.529 110.275H236.61L237.747 97.2632H231.666L230.529 110.275Z" fill="white"/>
<path d="M230.133 108.429L231.213 107.877C231.762 107.597 232.27 107.242 232.721 106.822L232.918 106.105C232.803 105.914 232.63 105.766 232.423 105.681C232.217 105.596 231.989 105.58 231.773 105.635L230.875 105.883L226.417 106.221L226.31 108.099L227.612 110.11H228.057C228.547 110.127 229.028 109.967 229.409 109.658C229.791 109.349 230.048 108.913 230.133 108.429Z" fill="#FFB573"/>
<path d="M187.027 104.622C190.117 104.061 211.914 122.957 211.914 122.957L205.453 132.434C205.453 132.434 181.621 115.837 182.38 111.832C183.113 107.621 182.528 105.446 187.027 104.622Z" fill="#263238"/>
<path opacity="0.2" d="M189.78 110.662L189.541 120.551C192.013 122.471 200.945 129.319 200.945 129.319L189.78 110.662Z" fill="black"/>
<path d="M172.499 301.002L179.808 301.719L182.132 284.768L174.815 284.051L172.499 301.002Z" fill="#FFB573"/>
<path d="M100.534 201.539L98.6638 208.658L114.477 215.473L117.757 208.246L100.534 201.539Z" fill="#FFB573"/>
<path d="M185.041 303.218C185.67 303.296 186.307 303.156 186.846 302.823C186.962 302.722 187.053 302.594 187.11 302.451C187.167 302.307 187.19 302.152 187.175 301.999C187.175 301.903 187.149 301.808 187.1 301.725C187.05 301.643 186.98 301.575 186.895 301.529C186.013 301.002 183.03 302.419 182.692 302.576C182.66 302.591 182.633 302.616 182.616 302.647C182.598 302.678 182.59 302.713 182.594 302.749C182.598 302.785 182.614 302.819 182.639 302.846C182.665 302.872 182.698 302.89 182.734 302.897C183.491 303.074 184.264 303.182 185.041 303.218ZM186.368 301.743C186.483 301.735 186.597 301.76 186.697 301.818C186.732 301.836 186.761 301.863 186.781 301.896C186.802 301.93 186.813 301.968 186.813 302.007C186.822 302.11 186.806 302.214 186.767 302.31C186.729 302.406 186.668 302.491 186.59 302.559C186.137 302.946 184.942 302.979 183.294 302.666C184.266 302.181 185.314 301.866 186.392 301.735L186.368 301.743Z" fill="#407BFF"/>
<path d="M182.767 302.864H182.833C183.723 302.493 185.511 300.961 185.395 300.12C185.363 299.974 185.282 299.844 185.165 299.751C185.048 299.658 184.902 299.608 184.753 299.609C184.581 299.577 184.405 299.583 184.235 299.626C184.066 299.668 183.908 299.747 183.772 299.856C182.824 300.59 182.602 302.576 182.585 302.65C182.578 302.68 182.577 302.711 182.584 302.742C182.592 302.772 182.606 302.8 182.627 302.823C182.646 302.839 182.668 302.851 182.692 302.858C182.716 302.865 182.742 302.867 182.767 302.864ZM184.588 299.922H184.687C185.008 299.972 185.025 300.095 185.025 300.137C185.099 300.639 183.879 301.859 182.965 302.345C183.052 301.51 183.404 300.725 183.97 300.104C184.153 299.971 184.381 299.915 184.604 299.947L184.588 299.922Z" fill="#407BFF"/>
<path d="M179.446 298.769L172.853 299.049C172.711 299.05 172.575 299.104 172.47 299.2C172.365 299.295 172.299 299.426 172.285 299.568L170.703 308.773C170.694 308.929 170.716 309.086 170.768 309.234C170.82 309.382 170.901 309.518 171.006 309.634C171.111 309.751 171.238 309.845 171.38 309.912C171.521 309.979 171.675 310.018 171.832 310.025H171.963C174.839 309.877 176.224 309.663 179.866 309.539C182.099 309.465 188.931 310.272 191.98 309.58C195.029 308.888 194.452 305.864 193.142 305.888C188.906 305.971 184.019 303.21 181.605 299.98C181.185 299.708 179.907 298.744 179.446 298.769Z" fill="#263238"/>
<path d="M102.026 209.59L105.388 203.879C105.464 203.758 105.492 203.613 105.466 203.473C105.44 203.332 105.362 203.207 105.248 203.121L98.392 196.8C98.1372 196.621 97.8222 196.548 97.5142 196.597C97.2063 196.646 96.9298 196.814 96.7439 197.064L96.6697 197.179C95.2358 199.652 94.6673 200.954 92.7967 204.077C91.643 205.997 87.2425 211.328 86.2042 214.237C85.1659 217.146 87.9842 218.358 88.6764 217.22C90.9096 213.611 95.8786 211.007 99.9165 210.694C100.304 210.546 101.795 209.994 102.026 209.59Z" fill="#263238"/>
<path opacity="0.2" d="M182.132 284.768L180.937 293.511L173.62 292.794L174.806 284.059L182.132 284.768Z" fill="black"/>
<path opacity="0.2" d="M122.619 210.01L119.24 217.632L109.055 213.133L111.651 205.873L122.619 210.01Z" fill="black"/>
<path d="M191.7 113.316C195.878 120.419 190.768 126.41 186.5 147.637L158.96 147.712C159.405 136.274 159.356 127.028 154.477 104.523C154.35 103.968 154.351 103.392 154.478 102.838C154.605 102.284 154.856 101.765 155.212 101.321C155.568 100.878 156.019 100.52 156.533 100.275C157.046 100.031 157.608 99.9051 158.177 99.9083C160.452 99.9083 163.311 99.9824 166.22 100.279C170.808 100.654 175.365 101.345 179.858 102.347C182.295 102.935 184.69 103.684 187.027 104.589C188.445 105.067 190.15 108.923 191.7 113.316Z" fill="#263238"/>
<path d="M187.522 149.071C187.522 149.071 202.989 193.793 202.618 215.3C202.404 227.62 201.473 250.578 197.756 266.721C194.724 279.906 182.363 288.311 182.363 288.311L172.474 287.726C172.474 287.726 167.118 267.62 168.049 259.618C169.903 243.689 175.4 231.724 174.732 217.097C173.677 193.15 166.591 148.7 166.591 148.7L187.522 149.071Z" fill="#407BFF"/>
<path d="M170.488 290.306L184.456 291.13L185.725 286.935L170.117 285.493L170.488 290.306Z" fill="#263238"/>
<path opacity="0.2" d="M172.252 239.42C172.252 239.42 172.252 239.338 172.334 239.346C181.111 240.17 187.167 227.538 185.725 210.241L181.069 166.154L172.252 239.42Z" fill="black"/>
<path d="M180.583 148.7C180.583 148.7 192.878 227.34 167.316 236.19C153.826 241.299 142.479 235.762 129.038 229.812C121.268 226.376 111.56 217.072 111.56 217.072L115.293 206.911C122.007 205.096 129.032 204.742 135.895 205.873C148.997 207.9 149.549 211.642 154.205 208.815C163.995 184.621 147.151 165.495 158.597 148.659L180.583 148.7Z" fill="#407BFF"/>
<path d="M116.026 204.983L111.033 218.16L114.708 220.97L120.641 205.288L116.026 204.983Z" fill="#263238"/>
<path d="M113.967 133.925C112.722 135.763 106.41 134.519 106.41 134.519L105.067 126.698L112.821 129.805L113.967 133.925Z" fill="#FFB573"/>
<path d="M106.632 126.294L107.836 134.42L103.18 135.112C102.927 135.135 102.675 135.063 102.473 134.911C102.27 134.759 102.132 134.537 102.084 134.288L100.295 128.519C100.265 128.385 100.287 128.244 100.358 128.126C100.429 128.008 100.542 127.922 100.675 127.885L106.632 126.294Z" fill="#FFB573"/>
<path d="M104.548 129.978L107.201 130.448L109.715 128.56L108.742 127.868C108.083 127.399 107.62 126.704 107.44 125.915C107.253 125.089 107.14 124.248 107.102 123.402V123.122C107.071 122.873 106.958 122.642 106.783 122.463C106.607 122.285 106.378 122.169 106.13 122.133L105.471 122.619C105.059 123.517 105.355 124.564 105.306 125.264L105.199 126.624L104.136 127.085L104.548 129.978Z" fill="#FFB573"/>
<path d="M155.804 102.974L140.213 124.399L111.577 130.052V134.749C111.577 134.749 138.49 136.743 144.539 133.225C150.587 129.706 160.731 108.363 160.731 108.363L155.804 102.974Z" fill="#FFB573"/>
<path d="M155.622 61.771C149.079 59.5791 141.49 63.6416 138.498 69.855C135.507 76.0684 136.554 83.6909 139.924 89.7064C140.938 91.5276 142.149 93.2416 142.981 95.1452C143.906 97.0322 144.109 99.1925 143.55 101.218C142.874 103.188 142.182 104.449 139.743 104.136C139.743 104.136 139.743 102.784 140.674 102.949C140.674 102.949 138.696 104.045 137.922 103.328C138.82 104.712 141.218 104.21 141.984 102.743C143.13 100.559 141.02 97.6009 138.548 97.6256C136.076 97.6503 134.065 100.155 134.147 102.619C134.251 103.852 134.689 105.032 135.415 106.033C136.142 107.034 137.128 107.817 138.268 108.297C137.6 108.407 136.914 108.293 136.318 107.973C135.722 107.652 135.248 107.143 134.972 106.525C136.092 109.459 139.751 110.753 142.841 110.176C145.931 109.599 148.544 107.621 150.966 105.619C154.263 102.916 157.633 99.4962 157.559 95.2688C157.485 92.1127 155.457 89.4015 153.752 86.7399C152.046 84.0782 150.554 80.8314 151.642 77.873C152.557 75.3597 155.045 73.8434 157.237 72.3107C158.82 71.2147 162.033 68.7672 161.654 66.4517C161.267 64.2432 157.476 62.3891 155.622 61.771Z" fill="#263238"/>
<path d="M140.88 135.112L136.562 123.682L137.551 123.765C138.351 123.832 139.153 123.667 139.862 123.29C140.571 122.913 141.156 122.339 141.548 121.639C144.844 115.771 153.356 100.881 155.754 100.139C159.174 99.1254 162.693 101.861 163.995 105.907C164.975 108.882 154.93 121.639 150.299 128.89C146.187 135.31 140.88 135.112 140.88 135.112Z" fill="#263238"/>
<path d="M98.7628 213.347V213.438C98.8235 213.597 98.9233 213.737 99.053 213.847C99.1827 213.956 99.338 214.031 99.5044 214.064C99.6043 214.096 99.7107 214.101 99.8131 214.079C99.9156 214.058 100.011 214.01 100.089 213.941C100.782 213.306 100.337 210.645 100.296 210.381C100.291 210.347 100.276 210.315 100.252 210.29C100.228 210.264 100.198 210.247 100.164 210.241C100.132 210.237 100.099 210.241 100.069 210.252C100.039 210.264 100.012 210.282 99.9906 210.307C99.4302 211.098 98.5403 212.507 98.7628 213.347ZM100.032 210.875C100.18 211.93 100.246 213.347 99.8588 213.694C99.8184 213.716 99.773 213.728 99.7269 213.728C99.6808 213.728 99.6354 213.716 99.5951 213.694C99.4843 213.673 99.3807 213.624 99.2941 213.552C99.2076 213.48 99.141 213.387 99.1006 213.281C98.9523 212.837 99.2654 211.93 100.032 210.859V210.875Z" fill="#407BFF"/>
<path d="M100.04 210.727C100.254 211.617 101.095 213.133 101.836 213.314C101.972 213.342 102.112 213.322 102.235 213.259C102.357 213.196 102.455 213.094 102.512 212.968C102.577 212.851 102.615 212.72 102.623 212.586C102.632 212.453 102.611 212.318 102.562 212.194C102.224 211.172 100.279 210.331 100.197 210.29C100.17 210.276 100.14 210.268 100.11 210.268C100.08 210.268 100.05 210.276 100.024 210.29C99.9993 210.31 99.9806 210.335 99.969 210.364C99.9575 210.393 99.9535 210.424 99.9576 210.455C99.9779 210.548 100.005 210.638 100.04 210.727ZM102.281 212.375C102.298 212.448 102.3 212.523 102.288 212.597C102.275 212.67 102.248 212.741 102.207 212.803C102.1 213.001 101.993 213.001 101.911 212.985C101.408 212.886 100.642 211.641 100.394 210.776C101.029 211.098 102.042 211.699 102.257 212.325C102.251 212.341 102.251 212.359 102.257 212.375H102.281Z" fill="#407BFF"/>
<path d="M158.861 146.319L158.095 148.997C157.996 149.203 158.235 149.417 158.581 149.409H187.011C187.282 149.409 187.505 149.269 187.521 149.104L187.785 146.426C187.785 146.245 187.571 146.08 187.274 146.088H159.339C159.246 146.081 159.153 146.098 159.069 146.139C158.985 146.179 158.913 146.241 158.861 146.319Z" fill="#407BFF"/>
<path opacity="0.5" d="M158.861 146.319L158.095 148.997C157.996 149.203 158.235 149.417 158.581 149.409H187.011C187.282 149.409 187.505 149.269 187.521 149.104L187.785 146.426C187.785 146.245 187.571 146.08 187.274 146.088H159.339C159.246 146.081 159.153 146.098 159.069 146.139C158.985 146.179 158.913 146.241 158.861 146.319Z" fill="white"/>
<path d="M164.316 149.656H163.492C163.336 149.656 163.204 149.574 163.22 149.475L163.591 145.989C163.591 145.891 163.748 145.808 163.912 145.808H164.736C164.893 145.808 165.017 145.891 165.008 145.998L164.638 149.475C164.588 149.574 164.44 149.665 164.316 149.656Z" fill="#407BFF"/>
<path d="M184.81 149.656H183.986C183.838 149.656 183.706 149.574 183.723 149.475L184.093 145.998C184.093 145.891 184.242 145.808 184.398 145.808H185.222C185.379 145.808 185.511 145.891 185.494 145.989L185.123 149.467C185.107 149.574 184.975 149.656 184.81 149.656Z" fill="#407BFF"/>
<path d="M175.408 149.64H174.584C174.427 149.64 174.295 149.557 174.312 149.459L174.683 145.981C174.683 145.874 174.839 145.792 174.996 145.792H175.82C175.977 145.792 176.1 145.874 176.092 145.973L175.713 149.45C175.713 149.557 175.573 149.64 175.408 149.64Z" fill="#407BFF"/>
<path d="M167.505 85.2812C168.379 89.7723 169.236 97.881 166.187 100.32C166.187 100.32 167.406 104.927 175.556 106.155C184.555 107.506 179.833 102.38 179.833 102.38C174.93 100.444 175.054 96.9004 175.894 93.6371L167.505 85.2812Z" fill="#FFB573"/>
<path d="M166.22 100.279C170.568 100.555 174.89 101.155 179.149 102.075L185.313 103.913C186.409 106.122 184.613 110.662 179.454 111.527C179.454 111.527 166.459 113.315 162.627 99.9329L166.22 100.279Z" fill="#FFB573"/>
<path opacity="0.2" d="M170.908 88.7012L175.853 93.6455C175.644 94.4111 175.509 95.1947 175.449 95.9858C173.57 95.4337 170.554 93.3653 170.348 91.3876C170.35 90.4633 170.541 89.5492 170.908 88.7012Z" fill="black"/>
<path d="M162.001 79.6118C164.209 86.5833 164.984 89.5828 169.508 92.3269C176.249 96.4472 184.341 92.2281 184.258 84.7457C184.192 78.0049 180.608 67.7372 172.952 66.6165C171.27 66.3643 169.55 66.5469 167.958 67.147C166.366 67.747 164.954 68.7446 163.856 70.0447C162.758 71.3448 162.011 72.9042 161.687 74.5745C161.362 76.2448 161.47 77.9704 162.001 79.5871V79.6118Z" fill="#FFB573"/>
<path d="M178.638 78.5239C179.418 79.7475 180.363 80.8569 181.448 81.8201C181.194 82.0949 180.884 82.3109 180.538 82.4533C180.192 82.5956 179.819 82.6607 179.446 82.6442L178.638 78.5239Z" fill="#ED893E"/>
<path d="M177.855 86.369C178.134 86.3383 178.41 86.2831 178.679 86.2042C178.701 86.1993 178.721 86.1903 178.738 86.1778C178.756 86.1652 178.771 86.1493 178.782 86.1309C178.794 86.1125 178.802 86.0921 178.805 86.0707C178.809 86.0494 178.808 86.0275 178.803 86.0064C178.791 85.9631 178.763 85.9261 178.725 85.903C178.687 85.88 178.641 85.8727 178.597 85.8828C177.894 86.0767 177.155 86.1032 176.439 85.9601C175.724 85.817 175.052 85.5083 174.477 85.0587C174.443 85.025 174.397 85.0061 174.349 85.0061C174.301 85.0061 174.255 85.025 174.221 85.0587C174.205 85.0749 174.192 85.0941 174.183 85.1153C174.174 85.1365 174.169 85.1593 174.169 85.1824C174.169 85.2054 174.174 85.2282 174.183 85.2494C174.192 85.2706 174.205 85.2898 174.221 85.306C174.728 85.7132 175.309 86.0167 175.933 86.1991C176.556 86.3815 177.21 86.4393 177.855 86.369Z" fill="#263238"/>
<path d="M159.603 65.6937C158.694 66.281 157.94 67.0778 157.404 68.0171C156.868 68.9563 156.565 70.0106 156.521 71.0912C156.483 71.5045 156.548 71.9205 156.71 72.3026C156.791 72.4916 156.921 72.6559 157.086 72.7789C157.251 72.9019 157.445 72.9792 157.65 73.003C158.276 73.003 158.737 72.4427 159.083 71.9153L160.682 69.4431C161.34 68.64 161.894 67.7568 162.33 66.8144C162.866 65.191 160.583 65.0674 159.603 65.6937Z" fill="#407BFF"/>
<path d="M160.385 67.3334C156.01 72.3931 154.048 86.3937 166.871 90.2997C169.013 88.6022 165.552 85.512 164.085 81.606C163.121 79.0514 168.008 74.2801 169.911 72.3189C171.815 70.3576 173.57 67.5311 176.257 67.9844C176.939 68.2123 177.673 68.2324 178.366 68.0421C180.501 67.0779 179.462 65.8006 178.366 64.9106C176.685 63.6666 174.684 62.9289 172.598 62.7846C170.347 62.5195 168.066 62.7937 165.943 63.5847C163.819 64.3757 161.914 65.6606 160.385 67.3334Z" fill="#263238"/>
<path d="M174.617 65.636C179.767 69.9293 172.969 70.0364 169.368 72.7558C165.915 75.3681 168.338 79.6449 162.495 81.6309C157.724 83.0235 156.62 82.183 155.301 81.26C156.935 80.9773 158.43 80.162 159.552 78.9413C160.674 77.7206 161.361 76.163 161.506 74.511C161.91 71.3796 168.733 60.6587 174.617 65.636Z" fill="#263238"/>
<path d="M161.226 85.4708C162.033 86.6331 163.264 87.4321 164.654 87.6958C166.5 88.0171 167.209 86.3278 166.574 84.6797C165.973 83.1964 164.3 81.2434 162.512 81.6637C161.897 81.8227 161.37 82.2192 161.047 82.7661C160.724 83.313 160.632 83.9656 160.789 84.5808C160.873 84.9039 161.022 85.2067 161.226 85.4708Z" fill="#FFB573"/>
<path d="M173.735 66.0726C174.732 68.6107 177.608 68.2728 179.734 70.9262C181.044 72.5744 183.616 67.4899 180.113 65.4875C176.611 63.485 172.169 62.1006 173.735 66.0726Z" fill="#263238"/>
<path d="M170.703 76.7851C170.776 76.793 170.85 76.7773 170.914 76.7402C170.977 76.7032 171.028 76.6467 171.057 76.5791C171.733 75.0793 173.76 74.7003 173.776 74.7003C173.867 74.6804 173.946 74.6266 173.998 74.55C174.05 74.4734 174.071 74.3797 174.056 74.2882C174.039 74.1989 173.986 74.1202 173.91 74.0693C173.835 74.0184 173.742 73.9993 173.653 74.0163C173.546 74.0163 171.238 74.5025 170.414 76.3154C170.377 76.3998 170.375 76.4951 170.407 76.5812C170.44 76.6673 170.504 76.7375 170.587 76.7769H170.703V76.7851Z" fill="#263238"/>
<path d="M181.415 73.7527C181.476 73.7571 181.536 73.7448 181.59 73.7172C181.643 73.6896 181.689 73.6477 181.72 73.5962C181.746 73.5591 181.765 73.5172 181.775 73.4728C181.784 73.4284 181.785 73.3826 181.776 73.3379C181.768 73.2933 181.751 73.2509 181.725 73.2131C181.7 73.1754 181.667 73.1431 181.629 73.1182C181.173 72.8021 180.647 72.6003 180.097 72.53C179.546 72.4598 178.986 72.523 178.465 72.7144C178.422 72.7314 178.382 72.7571 178.349 72.79C178.316 72.8229 178.291 72.8623 178.274 72.9056C178.257 72.9489 178.249 72.9953 178.25 73.0418C178.252 73.0883 178.264 73.134 178.284 73.1759C178.32 73.2599 178.388 73.3261 178.473 73.3601C178.558 73.394 178.653 73.393 178.737 73.3572C179.147 73.214 179.585 73.1707 180.015 73.2309C180.445 73.2911 180.854 73.453 181.209 73.7033C181.273 73.7345 181.344 73.7513 181.415 73.7527Z" fill="#263238"/>
<path d="M215.292 118.861L210.463 121.605L205.445 132.401C205.445 132.401 210.29 135.482 214.114 132.986C217.937 130.489 215.292 118.861 215.292 118.861Z" fill="#407BFF"/>
<path opacity="0.5" d="M215.292 118.861L210.463 121.605L205.445 132.401C205.445 132.401 210.29 135.482 214.114 132.986C217.937 130.489 215.292 118.861 215.292 118.861Z" fill="white"/>
<path d="M130.851 122.199L136.562 123.847L141.976 135.046C141.976 135.046 137.625 139.075 132.911 135.227C129.384 132.31 130.851 122.199 130.851 122.199Z" fill="#407BFF"/>
<g opacity="0.5">
<path d="M130.851 122.199L136.562 123.847L141.976 135.046C141.976 135.046 137.625 139.075 132.911 135.227C129.384 132.31 130.851 122.199 130.851 122.199Z" fill="white"/>
</g>
<path d="M181.086 76.5462C181.481 76.472 181.91 76.917 182 77.5268C182.091 78.1366 181.868 78.6969 181.473 78.7629C181.077 78.8288 180.649 78.392 180.558 77.7822C180.468 77.1724 180.69 76.6038 181.086 76.5462Z" fill="#263238"/>
<path d="M182.305 75.9448L180.913 76.6288C181.753 77.2221 182.305 75.9448 182.305 75.9448Z" fill="#263238"/>
<path d="M174.205 77.9636C174.6 77.8895 175.029 78.3345 175.119 78.9443C175.21 79.5541 174.988 80.1144 174.592 80.1804C174.197 80.2463 173.768 79.8095 173.677 79.1997C173.587 78.5899 173.793 78.0378 174.205 77.9636Z" fill="#263238"/>
<path d="M175.408 77.3621L174.015 78.046C174.856 78.6393 175.408 77.3621 175.408 77.3621Z" fill="#263238"/>
<path d="M139.314 109.492C138.538 109.496 137.769 109.351 137.048 109.063C134.494 108.017 133.307 105.363 133.752 101.77C133.766 101.662 133.823 101.564 133.909 101.498C133.996 101.431 134.105 101.402 134.213 101.416C134.267 101.422 134.32 101.439 134.367 101.466C134.414 101.492 134.456 101.528 134.489 101.571C134.522 101.615 134.546 101.664 134.559 101.716C134.573 101.769 134.576 101.824 134.568 101.878C134.139 105.067 135.145 107.407 137.328 108.297C138.596 108.731 139.968 108.752 141.248 108.359C142.529 107.965 143.652 107.176 144.456 106.105C146.525 103.353 145.849 99.4466 142.627 95.3923C134.189 84.8032 134.749 79.1749 135.944 74.725C137.674 68.2644 142.742 60.8644 157.081 62.2901C157.19 62.301 157.291 62.3549 157.36 62.4399C157.43 62.5249 157.463 62.634 157.452 62.7433C157.441 62.8525 157.387 62.953 157.302 63.0226C157.217 63.0921 157.108 63.125 156.998 63.1141C143.245 61.7462 138.383 68.8001 136.735 74.9475C135.548 79.3974 135.087 84.5972 143.27 94.8896C148.214 101.095 146.212 105.157 145.116 106.608C144.43 107.496 143.551 108.217 142.546 108.717C141.542 109.216 140.436 109.481 139.314 109.492Z" fill="#263238"/>
</svg>
