<svg width="350" height="267" viewBox="0 0 350 267" fill="none" xmlns="http://www.w3.org/2000/svg">
<path d="M58.576 68.5719C47.075 165.088 158.753 258.72 245.161 189.392C284.172 158.095 312.158 58.0159 246.148 43.3579C208.292 34.9579 167.601 68.5579 131.516 55.3349C114.17 48.9859 105.287 24.0029 85.127 26.6349C66.199 29.1479 60.494 52.4859 58.576 68.5719Z" fill="#407BFF"/>
<path opacity="0.9" d="M58.576 68.5719C47.075 165.088 158.753 258.72 245.161 189.392C284.172 158.095 312.158 58.0159 246.148 43.3579C208.292 34.9579 167.601 68.5579 131.516 55.3349C114.17 48.9859 105.287 24.0029 85.127 26.6349C66.199 29.1479 60.494 52.4859 58.576 68.5719Z" fill="white"/>
<path d="M175 266.707C249.958 266.707 310.723 263.159 310.723 258.783C310.723 254.407 249.958 250.859 175 250.859C100.042 250.859 39.277 254.407 39.277 258.783C39.277 263.159 100.042 266.707 175 266.707Z" fill="#F5F5F5"/>
<path d="M293.86 69.489H225.19C221.568 69.489 218.631 72.4256 218.631 76.048V94.724C218.631 98.3464 221.568 101.283 225.19 101.283H293.86C297.483 101.283 300.419 98.3464 300.419 94.724V76.048C300.419 72.4256 297.483 69.489 293.86 69.489Z" fill="#407BFF"/>
<path d="M280.238 74.8511H226.597C225.963 74.8511 225.449 75.3651 225.449 75.9991V77.2591C225.449 77.8931 225.963 78.4071 226.597 78.4071H280.238C280.872 78.4071 281.386 77.8931 281.386 77.2591V75.9991C281.386 75.3651 280.872 74.8511 280.238 74.8511Z" fill="#407BFF"/>
<path d="M263.249 83.4189H226.597C225.963 83.4189 225.449 83.9329 225.449 84.5669V85.8269C225.449 86.461 225.963 86.9749 226.597 86.9749H263.249C263.883 86.9749 264.397 86.461 264.397 85.8269V84.5669C264.397 83.9329 263.883 83.4189 263.249 83.4189Z" fill="#407BFF"/>
<path d="M253.421 91.9868H226.597C225.963 91.9868 225.449 92.5008 225.449 93.1348V94.3948C225.449 95.0288 225.963 95.5428 226.597 95.5428H253.421C254.055 95.5428 254.569 95.0288 254.569 94.3948V93.1348C254.569 92.5008 254.055 91.9868 253.421 91.9868Z" fill="#407BFF"/>
<path d="M286.664 91.9868H259.84C259.206 91.9868 258.692 92.5008 258.692 93.1348V94.3948C258.692 95.0288 259.206 95.5428 259.84 95.5428H286.664C287.298 95.5428 287.812 95.0288 287.812 94.3948V93.1348C287.812 92.5008 287.298 91.9868 286.664 91.9868Z" fill="#407BFF"/>
<g opacity="0.5">
<path d="M280.238 74.8511H226.597C225.963 74.8511 225.449 75.3651 225.449 75.9991V77.2591C225.449 77.8931 225.963 78.4071 226.597 78.4071H280.238C280.872 78.4071 281.386 77.8931 281.386 77.2591V75.9991C281.386 75.3651 280.872 74.8511 280.238 74.8511Z" fill="white"/>
<path d="M263.249 83.4189H226.597C225.963 83.4189 225.449 83.9329 225.449 84.5669V85.8269C225.449 86.461 225.963 86.9749 226.597 86.9749H263.249C263.883 86.9749 264.397 86.461 264.397 85.8269V84.5669C264.397 83.9329 263.883 83.4189 263.249 83.4189Z" fill="white"/>
<path d="M253.421 91.9871H226.597C225.963 91.9871 225.449 92.501 225.449 93.1351V94.3951C225.449 95.0291 225.963 95.5431 226.597 95.5431H253.421C254.055 95.5431 254.569 95.0291 254.569 94.3951V93.1351C254.569 92.501 254.055 91.9871 253.421 91.9871Z" fill="white"/>
<path d="M286.664 91.9871H259.84C259.206 91.9871 258.692 92.501 258.692 93.1351V94.3951C258.692 95.0291 259.206 95.5431 259.84 95.5431H286.664C287.298 95.5431 287.812 95.0291 287.812 94.3951V93.1351C287.812 92.501 287.298 91.9871 286.664 91.9871Z" fill="white"/>
</g>
<path d="M238.854 62.0762H160.909C155.597 62.0762 151.291 66.3823 151.291 71.6942V99.0782C151.291 104.39 155.597 108.696 160.909 108.696H238.854C244.166 108.696 248.472 104.39 248.472 99.0782V71.6942C248.472 66.3823 244.166 62.0762 238.854 62.0762Z" fill="#407BFF"/>
<path d="M241.612 69.937H162.974C162.043 69.937 161.287 70.6923 161.287 71.624V73.465C161.287 74.3967 162.043 75.152 162.974 75.152H241.612C242.544 75.152 243.299 74.3967 243.299 73.465V71.624C243.299 70.6923 242.544 69.937 241.612 69.937Z" fill="#407BFF"/>
<path d="M216.699 82.502H162.974C162.043 82.502 161.287 83.2573 161.287 84.189V86.0299C161.287 86.9617 162.043 87.717 162.974 87.717H216.699C217.631 87.717 218.386 86.9617 218.386 86.0299V84.189C218.386 83.2573 217.631 82.502 216.699 82.502Z" fill="#407BFF"/>
<path d="M202.293 95.0669H162.974C162.043 95.0669 161.287 95.8222 161.287 96.7539V98.5949C161.287 99.5266 162.043 100.282 162.974 100.282H202.293C203.225 100.282 203.98 99.5266 203.98 98.5949V96.7539C203.98 95.8222 203.225 95.0669 202.293 95.0669Z" fill="#407BFF"/>
<path d="M244.475 95.0669H211.715C210.784 95.0669 210.028 95.8222 210.028 96.7539V98.5949C210.028 99.5266 210.784 100.282 211.715 100.282H244.475C245.407 100.282 246.162 99.5266 246.162 98.5949V96.7539C246.162 95.8222 245.407 95.0669 244.475 95.0669Z" fill="#407BFF"/>
<g opacity="0.5">
<path d="M241.612 69.937H162.974C162.043 69.937 161.287 70.6923 161.287 71.624V73.465C161.287 74.3967 162.043 75.152 162.974 75.152H241.612C242.544 75.152 243.299 74.3967 243.299 73.465V71.624C243.299 70.6923 242.544 69.937 241.612 69.937Z" fill="white"/>
<path d="M216.699 82.502H162.974C162.042 82.502 161.287 83.2573 161.287 84.189V86.0299C161.287 86.9617 162.042 87.717 162.974 87.717H216.699C217.631 87.717 218.386 86.9617 218.386 86.0299V84.189C218.386 83.2573 217.631 82.502 216.699 82.502Z" fill="white"/>
<path d="M202.293 95.0669H162.974C162.042 95.0669 161.287 95.8222 161.287 96.7539V98.5949C161.287 99.5266 162.042 100.282 162.974 100.282H202.293C203.225 100.282 203.98 99.5266 203.98 98.5949V96.7539C203.98 95.8222 203.225 95.0669 202.293 95.0669Z" fill="white"/>
<path d="M244.475 95.0669H211.715C210.783 95.0669 210.028 95.8222 210.028 96.7539V98.5949C210.028 99.5266 210.783 100.282 211.715 100.282H244.475C245.407 100.282 246.162 99.5266 246.162 98.5949V96.7539C246.162 95.8222 245.407 95.0669 244.475 95.0669Z" fill="white"/>
</g>
<path d="M190.393 117.145H152.852C150.37 117.145 148.358 119.157 148.358 121.639V177.877C148.358 180.359 150.37 182.371 152.852 182.371H190.393C192.875 182.371 194.887 180.359 194.887 177.877V121.639C194.887 119.157 192.875 117.145 190.393 117.145Z" fill="#407BFF"/>
<path opacity="0.4" d="M190.393 117.145H152.852C150.37 117.145 148.358 119.157 148.358 121.639V177.877C148.358 180.359 150.37 182.371 152.852 182.371H190.393C192.875 182.371 194.887 180.359 194.887 177.877V121.639C194.887 119.157 192.875 117.145 190.393 117.145Z" fill="black"/>
<path d="M188.671 123.949H154.567C154.111 123.949 153.741 124.319 153.741 124.775V126.014C153.741 126.47 154.111 126.84 154.567 126.84H188.671C189.127 126.84 189.497 126.47 189.497 126.014V124.775C189.497 124.319 189.127 123.949 188.671 123.949Z" fill="#FAFAFA"/>
<path d="M177.814 130.907H154.567C154.111 130.907 153.741 131.277 153.741 131.733V132.972C153.741 133.428 154.111 133.798 154.567 133.798H177.814C178.27 133.798 178.64 133.428 178.64 132.972V131.733C178.64 131.277 178.27 130.907 177.814 130.907Z" fill="#FAFAFA"/>
<path d="M188.671 137.872H154.567C154.111 137.872 153.741 138.242 153.741 138.698V139.937C153.741 140.393 154.111 140.763 154.567 140.763H188.671C189.127 140.763 189.497 140.393 189.497 139.937V138.698C189.497 138.242 189.127 137.872 188.671 137.872Z" fill="#FAFAFA"/>
<path d="M167.244 144.83H154.567C154.111 144.83 153.741 145.2 153.741 145.656V146.895C153.741 147.351 154.111 147.721 154.567 147.721H167.244C167.7 147.721 168.07 147.351 168.07 146.895V145.656C168.07 145.2 167.7 144.83 167.244 144.83Z" fill="#FAFAFA"/>
<path d="M184.982 144.83H172.305C171.849 144.83 171.479 145.2 171.479 145.656V146.895C171.479 147.351 171.849 147.721 172.305 147.721H184.982C185.438 147.721 185.808 147.351 185.808 146.895V145.656C185.808 145.2 185.438 144.83 184.982 144.83Z" fill="#FAFAFA"/>
<path d="M188.671 151.795H154.567C154.111 151.795 153.741 152.165 153.741 152.621V153.86C153.741 154.316 154.111 154.686 154.567 154.686H188.671C189.127 154.686 189.497 154.316 189.497 153.86V152.621C189.497 152.165 189.127 151.795 188.671 151.795Z" fill="#FAFAFA"/>
<path d="M188.671 158.753H154.567C154.111 158.753 153.741 159.123 153.741 159.579V160.818C153.741 161.274 154.111 161.644 154.567 161.644H188.671C189.127 161.644 189.497 161.274 189.497 160.818V159.579C189.497 159.123 189.127 158.753 188.671 158.753Z" fill="#FAFAFA"/>
<path d="M182.623 165.718H154.567C154.111 165.718 153.741 166.088 153.741 166.544V167.783C153.741 168.239 154.111 168.609 154.567 168.609H182.623C183.079 168.609 183.449 168.239 183.449 167.783V166.544C183.449 166.088 183.079 165.718 182.623 165.718Z" fill="#FAFAFA"/>
<path d="M167.657 172.676H154.567C154.111 172.676 153.741 173.046 153.741 173.502V174.741C153.741 175.197 154.111 175.567 154.567 175.567H167.657C168.113 175.567 168.483 175.197 168.483 174.741V173.502C168.483 173.046 168.113 172.676 167.657 172.676Z" fill="#FAFAFA"/>
<path d="M200.55 116.746H148.477L171.5 135.065L206.801 148.365V122.983C206.798 121.328 206.137 119.741 204.965 118.572C203.794 117.403 202.206 116.746 200.55 116.746Z" fill="#407BFF"/>
<path opacity="0.4" d="M200.55 116.746H148.477L171.5 135.065L206.801 148.365V122.983C206.798 121.328 206.137 119.741 204.965 118.572C203.794 117.403 202.206 116.746 200.55 116.746Z" fill="black"/>
<path d="M198.275 126.182H160.174C159.602 126.182 159.138 126.646 159.138 127.218V129.15C159.138 129.722 159.602 130.186 160.174 130.186H198.275C198.847 130.186 199.311 129.722 199.311 129.15V127.218C199.311 126.646 198.847 126.182 198.275 126.182Z" fill="#FAFAFA"/>
<path d="M290.605 166.334V129.71C290.605 126.903 288.33 124.628 285.523 124.628H221.928C219.122 124.628 216.846 126.903 216.846 129.71V166.334C216.846 169.141 219.122 171.416 221.928 171.416H285.523C288.33 171.416 290.605 169.141 290.605 166.334Z" fill="#407BFF"/>
<path d="M302.218 154.728V118.104C302.218 115.297 299.943 113.022 297.136 113.022H233.541C230.735 113.022 228.459 115.297 228.459 118.104V154.728C228.459 157.535 230.735 159.81 233.541 159.81H297.136C299.943 159.81 302.218 157.535 302.218 154.728Z" fill="#407BFF"/>
<path opacity="0.5" d="M302.218 154.728V118.104C302.218 115.297 299.943 113.022 297.136 113.022H233.541C230.735 113.022 228.459 115.297 228.459 118.104V154.728C228.459 157.535 230.735 159.81 233.541 159.81H297.136C299.943 159.81 302.218 157.535 302.218 154.728Z" fill="white"/>
<path d="M295.764 142.177V119.63C295.764 118.381 294.752 117.369 293.503 117.369H272.72C271.472 117.369 270.459 118.381 270.459 119.63V142.177C270.459 143.426 271.472 144.438 272.72 144.438H293.503C294.752 144.438 295.764 143.426 295.764 142.177Z" fill="#407BFF"/>
<path opacity="0.7" d="M295.764 142.177V119.63C295.764 118.381 294.752 117.369 293.503 117.369H272.72C271.472 117.369 270.459 118.381 270.459 119.63V142.177C270.459 143.426 271.472 144.438 272.72 144.438H293.503C294.752 144.438 295.764 143.426 295.764 142.177Z" fill="white"/>
<path d="M266.497 153.083V135.807C266.497 134.848 265.72 134.071 264.761 134.071H248.836C247.877 134.071 247.1 134.848 247.1 135.807V153.083C247.1 154.042 247.877 154.819 248.836 154.819H264.761C265.72 154.819 266.497 154.042 266.497 153.083Z" fill="#407BFF"/>
<path opacity="0.3" d="M266.497 153.083V135.807C266.497 134.848 265.72 134.071 264.761 134.071H248.836C247.877 134.071 247.1 134.848 247.1 135.807V153.083C247.1 154.042 247.877 154.819 248.836 154.819H264.761C265.72 154.819 266.497 154.042 266.497 153.083Z" fill="white"/>
<path d="M256.795 43.5471V34.2161C256.795 31.3629 254.482 29.05 251.629 29.05L80.7383 29.05C77.8852 29.05 75.5723 31.3629 75.5723 34.2161V43.5471C75.5723 46.4002 77.8852 48.713 80.7383 48.713L251.629 48.713C254.482 48.713 256.795 46.4002 256.795 43.5471Z" fill="#407BFF"/>
<path opacity="0.5" d="M256.795 43.5471V34.2161C256.795 31.3629 254.482 29.05 251.629 29.05L80.7383 29.05C77.8852 29.05 75.5723 31.3629 75.5723 34.2161V43.5471C75.5723 46.4002 77.8852 48.713 80.7383 48.713L251.629 48.713C254.482 48.713 256.795 46.4002 256.795 43.5471Z" fill="white"/>
<path d="M224.462 52.0029V45.2339H175.287V52.0029H224.462Z" fill="#407BFF"/>
<path opacity="0.5" d="M224.462 52.0029V45.2339H175.287V52.0029H224.462Z" fill="white"/>
<path d="M274.428 14.497V5.166C274.428 2.3129 272.115 0 269.262 0L98.3712 0C95.5181 0 93.2052 2.3129 93.2052 5.166V14.497C93.2052 17.3501 95.5181 19.663 98.3712 19.663L269.262 19.663C272.115 19.663 274.428 17.3501 274.428 14.497Z" fill="#407BFF"/>
<path d="M91.2519 103.397C90.6359 104.797 89.9569 106.309 89.3619 107.786C88.7669 109.263 88.1509 110.782 87.6119 112.294C86.506 115.242 85.6192 118.267 84.9589 121.345L84.7559 122.465L84.6859 122.885C84.6859 123.004 84.6859 123.158 84.6439 123.298C84.6173 123.98 84.6313 124.662 84.6859 125.342C84.8189 126.819 85.0569 128.401 85.3859 129.983C85.9739 133.154 86.7229 136.423 87.4859 139.643L83.8949 141.043C82.221 137.992 80.7954 134.81 79.6319 131.53C79.019 129.823 78.5231 128.076 78.1479 126.301C77.9377 125.319 77.8066 124.322 77.7559 123.319C77.7559 123.039 77.7559 122.773 77.7559 122.472C77.7559 122.171 77.7559 121.835 77.8049 121.639L77.9449 120.239C78.1541 118.436 78.4744 116.648 78.9039 114.884C79.2959 113.134 79.7999 111.433 80.3039 109.753C80.8079 108.073 81.4379 106.421 82.1029 104.797C82.4319 103.985 82.8029 103.18 83.1249 102.375C83.4469 101.57 83.8249 100.8 84.2729 99.9392L91.2519 103.397Z" fill="#E4897B"/>
<path d="M87.2969 138.698L90.0269 141.365L84.0699 144.165C84.0699 144.165 82.6279 141.638 83.6289 139.356L87.2969 138.698Z" fill="#E4897B"/>
<path d="M92.2319 145.334L87.1989 147.392L84.0769 144.137L90.0269 141.365L92.2319 145.334Z" fill="#E4897B"/>
<path opacity="0.4" d="M194.187 142.464C184.283 141.352 174.93 137.329 167.312 130.902C159.694 124.476 154.153 115.935 151.388 106.359C148.624 96.7839 148.76 86.6037 151.78 77.1058C154.801 67.6079 160.569 59.2186 168.357 52.9986C176.144 46.7787 185.601 43.0072 195.531 42.161C205.462 41.3148 215.421 43.432 224.148 48.2447C232.876 53.0575 239.98 60.3498 244.564 69.1998C249.148 78.0498 251.005 88.0601 249.9 97.9653C249.166 104.546 247.142 110.918 243.945 116.717C240.747 122.515 236.438 127.627 231.264 131.759C226.09 135.892 220.153 138.964 213.791 140.801C207.429 142.638 200.767 143.203 194.187 142.464Z" fill="#FAFAFA"/>
<path opacity="0.4" d="M230.853 52.6682L154.203 113.911C153.881 113.211 153.566 112.511 153.272 111.811C151.35 107.24 150.121 102.409 149.625 97.4752L215.831 44.5762C221.266 46.3893 226.348 49.1268 230.853 52.6682Z" fill="#FAFAFA"/>
<path opacity="0.4" d="M248.542 79.4992L176.477 137.074C169.631 133.505 163.698 128.408 159.138 122.178L237.825 59.3042C242.897 65.1261 246.564 72.0355 248.542 79.4992Z" fill="#FAFAFA"/>
<path d="M143.073 73.1151L142.408 72.8911C143.56 69.4926 145.007 66.2017 146.734 63.0561L147.343 63.3921C145.639 66.5025 144.21 69.7559 143.073 73.1151ZM151.571 56.7771L151.004 56.3641C156.757 48.5856 164.286 42.2951 172.963 38.0171L173.278 38.6471C164.699 42.8809 157.257 49.1042 151.571 56.7981V56.7771ZM228.284 39.6061C225.996 38.3792 223.63 37.3058 221.2 36.3931L221.452 35.7351C223.906 36.6692 226.296 37.7636 228.606 39.0111L228.284 39.6061Z" fill="#407BFF"/>
<path opacity="0.3" d="M143.073 73.1151L142.408 72.8911C143.56 69.4926 145.007 66.2017 146.734 63.0561L147.343 63.3921C145.639 66.5025 144.21 69.7559 143.073 73.1151ZM151.571 56.7771L151.004 56.3641C156.757 48.5856 164.286 42.2951 172.963 38.0171L173.278 38.6471C164.699 42.8809 157.257 49.1042 151.571 56.7981V56.7771ZM228.284 39.6061C225.996 38.3792 223.63 37.3058 221.2 36.3931L221.452 35.7351C223.906 36.6692 226.296 37.7636 228.606 39.0111L228.284 39.6061Z" fill="black"/>
<path d="M251.909 66.6332C245.427 53.1899 234.021 42.7565 220.054 37.4958C206.088 32.2351 190.633 32.5506 176.893 38.3769C163.153 44.2033 152.182 55.0936 146.254 68.7902C140.326 82.4869 139.897 97.9393 145.054 111.944C140.378 113.582 135.758 115.339 131.166 117.152C124.544 119.78 117.983 122.524 111.482 125.384C104.986 128.261 98.5179 131.194 92.1129 134.26C88.8999 135.765 85.7289 137.354 82.5299 138.894C80.8657 139.609 79.358 140.644 78.0919 141.939C77.4068 142.657 76.8035 143.448 76.2929 144.298C75.67 145.304 75.1983 146.396 74.8929 147.539C74.3662 149.599 74.594 151.78 75.5351 153.686C76.4761 155.593 78.0684 157.1 80.0239 157.934C81.1098 158.39 82.2555 158.687 83.4259 158.816C84.4144 158.928 85.4124 158.928 86.4009 158.816C88.1973 158.598 89.9334 158.03 91.5109 157.143C94.6819 155.54 97.8739 153.993 101.024 152.348C107.324 149.135 113.624 145.782 119.847 142.38C126.07 138.978 132.3 135.415 138.376 131.761C142.576 129.22 146.818 126.623 150.976 123.907C158.96 136.512 171.488 145.562 185.963 149.181C200.438 152.801 215.751 150.713 228.728 143.35C241.706 135.987 251.353 123.913 255.671 109.631C259.989 95.3489 258.647 79.9528 251.923 66.6332H251.909ZM220.087 133.504C211.952 137.52 202.809 139.033 193.814 137.852C184.819 136.671 176.377 132.85 169.553 126.872C162.73 120.893 157.833 113.025 155.481 104.264C153.129 95.5018 153.428 86.2393 156.34 77.6474C159.252 69.0555 164.646 61.5199 171.841 55.9936C179.035 50.4672 187.707 47.1982 196.759 46.6C205.811 46.0018 214.837 48.1011 222.696 52.6326C230.556 57.1641 236.895 63.9242 240.912 72.0582C243.58 77.4601 245.158 83.3346 245.555 89.3462C245.952 95.3579 245.161 101.389 243.227 107.095C241.294 112.801 238.255 118.07 234.284 122.601C230.314 127.133 225.489 130.838 220.087 133.504Z" fill="#407BFF"/>
<path opacity="0.3" d="M251.909 66.6332C245.427 53.1899 234.021 42.7565 220.054 37.4958C206.088 32.2351 190.633 32.5506 176.893 38.3769C163.153 44.2033 152.182 55.0936 146.254 68.7902C140.326 82.4869 139.897 97.9393 145.054 111.944C140.378 113.582 135.758 115.339 131.166 117.152C124.544 119.78 117.983 122.524 111.482 125.384C104.986 128.261 98.5179 131.194 92.1129 134.26C88.8999 135.765 85.7289 137.354 82.5299 138.894C80.8657 139.609 79.358 140.644 78.0919 141.939C77.4068 142.657 76.8035 143.448 76.2929 144.298C75.67 145.304 75.1983 146.396 74.8929 147.539C74.3662 149.599 74.594 151.78 75.5351 153.686C76.4761 155.593 78.0684 157.1 80.0239 157.934C81.1098 158.39 82.2555 158.687 83.4259 158.816C84.4144 158.928 85.4124 158.928 86.4009 158.816C88.1973 158.598 89.9334 158.03 91.5109 157.143C94.6819 155.54 97.8739 153.993 101.024 152.348C107.324 149.135 113.624 145.782 119.847 142.38C126.07 138.978 132.3 135.415 138.376 131.761C142.576 129.22 146.818 126.623 150.976 123.907C158.96 136.512 171.488 145.562 185.963 149.181C200.438 152.801 215.751 150.713 228.728 143.35C241.706 135.987 251.353 123.913 255.671 109.631C259.989 95.3489 258.647 79.9528 251.923 66.6332H251.909ZM220.087 133.504C211.952 137.52 202.809 139.033 193.814 137.852C184.819 136.671 176.377 132.85 169.553 126.872C162.73 120.893 157.833 113.025 155.481 104.264C153.129 95.5018 153.428 86.2393 156.34 77.6474C159.252 69.0555 164.646 61.5199 171.841 55.9936C179.035 50.4672 187.707 47.1982 196.759 46.6C205.811 46.0018 214.837 48.1011 222.696 52.6326C230.556 57.1641 236.895 63.9242 240.912 72.0582C243.58 77.4601 245.158 83.3346 245.555 89.3462C245.952 95.3579 245.161 101.389 243.227 107.095C241.294 112.801 238.255 118.07 234.284 122.601C230.314 127.133 225.489 130.838 220.087 133.504Z" fill="black"/>
<path d="M110.6 78.4001C110.6 78.8131 110.817 79.1491 111.09 79.1491C111.363 79.1491 111.58 78.8131 111.58 78.4001C111.58 77.9871 111.363 77.6511 111.09 77.6511C110.817 77.6511 110.6 78.0151 110.6 78.4001Z" fill="#263238"/>
<path d="M110.796 79.1492C111.291 80.4169 111.958 81.611 112.777 82.6982C112.494 82.9007 112.17 83.0389 111.827 83.103C111.485 83.1671 111.133 83.1555 110.796 83.0692V79.1492Z" fill="#DE5753"/>
<path d="M109.151 76.0971C109.112 76.0972 109.073 76.0884 109.038 76.0714C109.003 76.0544 108.972 76.0297 108.948 75.9991C108.911 75.9457 108.897 75.8803 108.907 75.8164C108.918 75.7526 108.952 75.6952 109.004 75.6561C109.312 75.4223 109.672 75.2665 110.054 75.2019C110.435 75.1373 110.827 75.1659 111.195 75.2851C111.228 75.2942 111.259 75.31 111.285 75.3316C111.312 75.3533 111.334 75.3803 111.349 75.4108C111.365 75.4414 111.373 75.4749 111.375 75.5091C111.377 75.5433 111.372 75.5775 111.359 75.6095C111.347 75.6415 111.328 75.6705 111.304 75.6947C111.28 75.719 111.251 75.7378 111.219 75.7502C111.187 75.7625 111.152 75.7679 111.118 75.7662C111.084 75.7645 111.051 75.7556 111.02 75.7401C110.728 75.6505 110.418 75.6323 110.117 75.6871C109.816 75.7419 109.533 75.8681 109.291 76.0551C109.249 76.0827 109.201 76.0973 109.151 76.0971Z" fill="#263238"/>
<path d="M96.4599 81.5151C97.1599 85.2741 97.9299 92.1691 95.2979 94.6821C95.2979 94.6821 96.3269 98.4971 103.32 98.4971C111.02 98.4971 106.988 94.6821 106.988 94.6821C102.788 93.6741 102.907 90.5661 103.635 87.6401L96.4599 81.5151Z" fill="#E4897B"/>
<path d="M92.1549 96.6632C92.9879 95.3682 91.588 92.2252 91.588 92.2252C91.588 92.2252 103.964 89.1102 109.025 93.8912C110.075 94.8782 108.913 96.3342 108.913 96.3342L92.1549 96.6632Z" fill="#407BFF"/>
<path opacity="0.1" d="M92.1549 96.6632C92.9879 95.3682 91.588 92.2252 91.588 92.2252C91.588 92.2252 103.964 89.1102 109.025 93.8912C110.075 94.8782 108.913 96.3342 108.913 96.3342L92.1549 96.6632Z" fill="black"/>
<path d="M71.6799 239.484C71.0289 239.484 69.9859 238.399 69.6779 237.993C69.6647 237.974 69.6576 237.95 69.6576 237.927C69.6576 237.903 69.6647 237.88 69.6779 237.86C69.6892 237.841 69.7056 237.824 69.7253 237.813C69.745 237.802 69.7673 237.797 69.7899 237.797C69.8669 237.797 71.5819 237.951 72.0509 238.56C72.1019 238.624 72.1383 238.699 72.1577 238.779C72.177 238.859 72.1788 238.942 72.1629 239.022C72.1568 239.126 72.1185 239.226 72.0533 239.308C71.9881 239.389 71.8992 239.448 71.7989 239.477L71.6799 239.484ZM70.0559 238.084C70.5669 238.672 71.3859 239.337 71.7359 239.253C71.7359 239.253 71.8759 239.218 71.9179 238.994C71.9271 238.947 71.9256 238.899 71.9135 238.853C71.9013 238.807 71.8789 238.764 71.8479 238.728C71.3293 238.335 70.7054 238.106 70.0559 238.07V238.084Z" fill="#407BFF"/>
<path d="M70.1329 238.07C70.0073 238.083 69.8806 238.083 69.7549 238.07C69.7328 238.068 69.7117 238.06 69.6942 238.046C69.6768 238.033 69.6638 238.014 69.6569 237.993C69.6471 237.974 69.642 237.952 69.642 237.93C69.642 237.908 69.6471 237.887 69.6569 237.867C69.7059 237.825 70.7349 236.754 71.5119 236.754C71.6049 236.752 71.6973 236.77 71.783 236.806C71.8686 236.842 71.9456 236.896 72.0089 236.964C72.0786 237.022 72.1263 237.103 72.1441 237.192C72.162 237.281 72.1488 237.373 72.1069 237.454C71.9039 237.846 70.8329 238.07 70.1329 238.07ZM70.0419 237.825C70.7419 237.825 71.7569 237.608 71.9249 237.3C71.9249 237.3 71.9739 237.209 71.8619 237.097C71.8212 237.053 71.7713 237.018 71.7156 236.995C71.66 236.972 71.6001 236.961 71.5399 236.964C70.9661 237.096 70.4446 237.396 70.0419 237.825Z" fill="#407BFF"/>
<path d="M117.873 255.374C117.342 255.371 116.813 255.321 116.291 255.227C116.265 255.222 116.242 255.208 116.225 255.188C116.208 255.167 116.199 255.142 116.2 255.115C116.196 255.091 116.199 255.066 116.209 255.044C116.219 255.022 116.235 255.003 116.256 254.989C116.333 254.947 118.125 253.918 118.986 254.156C119.066 254.174 119.141 254.208 119.207 254.257C119.273 254.305 119.329 254.366 119.371 254.436C119.426 254.514 119.455 254.607 119.455 254.702C119.455 254.798 119.426 254.89 119.371 254.968C119.168 255.283 118.531 255.374 117.873 255.374ZM116.69 255.045C117.642 255.185 118.944 255.178 119.182 254.842C119.217 254.8 119.245 254.723 119.182 254.576C119.128 254.489 119.043 254.426 118.944 254.401C118.398 254.261 117.313 254.723 116.69 255.045Z" fill="#407BFF"/>
<path d="M116.319 255.234C116.296 255.241 116.272 255.241 116.249 255.234C116.23 255.222 116.214 255.204 116.206 255.183C116.197 255.161 116.195 255.138 116.2 255.115C116.247 254.387 116.527 253.692 116.998 253.134C117.093 253.052 117.205 252.992 117.326 252.956C117.447 252.921 117.574 252.913 117.698 252.931C118.034 252.931 118.132 253.134 118.153 253.267C118.244 253.848 117.019 254.961 116.396 255.241L116.319 255.234ZM117.572 253.134C117.418 253.133 117.269 253.188 117.152 253.288C116.756 253.73 116.511 254.287 116.452 254.877C117.082 254.492 117.922 253.624 117.852 253.274C117.852 253.274 117.852 253.155 117.614 253.134H117.572Z" fill="#407BFF"/>
<path d="M110.663 255.108H115.808L116.319 243.201H111.174L110.663 255.108Z" fill="#E4897B"/>
<path d="M64.8479 234.668L69.1459 237.482L78.6379 229.467L74.3329 226.646L64.8479 234.668Z" fill="#E4897B"/>
<path d="M69.8529 237.216L65.3869 233.555C65.308 233.491 65.2091 233.455 65.1069 233.455C65.0048 233.455 64.9058 233.491 64.8269 233.555L61.1449 236.446C61.056 236.517 60.9841 236.607 60.9348 236.71C60.8854 236.812 60.8597 236.924 60.8597 237.038C60.8597 237.152 60.8854 237.264 60.9348 237.366C60.9841 237.469 61.056 237.559 61.1449 237.629C62.7269 238.882 63.5599 239.414 65.5269 241.024C66.7379 242.011 69.7269 245.035 71.4139 246.4C73.1009 247.765 74.6479 246.295 74.0879 245.588C71.5749 242.403 70.5879 239.68 70.3009 237.993C70.2513 237.688 70.092 237.412 69.8529 237.216Z" fill="#263238"/>
<path d="M115.773 254.513H110.173C110.071 254.514 109.972 254.548 109.892 254.612C109.812 254.675 109.755 254.764 109.732 254.863L108.717 259.434C108.691 259.545 108.691 259.66 108.717 259.771C108.743 259.882 108.793 259.985 108.865 260.073C108.936 260.162 109.027 260.233 109.13 260.281C109.233 260.329 109.345 260.353 109.459 260.351C111.482 260.316 114.408 260.197 116.956 260.197C119.931 260.197 122.507 260.358 125.993 260.358C128.093 260.358 128.695 258.223 127.806 258.034C123.788 257.152 120.498 257.061 117.026 254.912C116.653 254.665 116.22 254.527 115.773 254.513Z" fill="#263238"/>
<path d="M85.1619 96.2152C80.7029 98.3152 78.1619 112.385 78.1619 112.385L89.0609 116.732C90.6563 112.837 91.9458 108.823 92.9179 104.727C94.4159 98.2452 89.7259 94.0452 85.1619 96.2152Z" fill="#263238"/>
<path d="M90.9439 104.146C88.2489 106.876 87.0169 112.224 86.4779 115.703L89.0889 116.746C90.6389 112.961 91.9024 109.066 92.8689 105.091C92.6379 103.607 92.0639 103.012 90.9439 104.146Z" fill="#203048"/>
<path d="M114.898 96.1173C114.898 96.1173 120.372 102.305 115.206 140.567H87.703C87.514 136.367 90.167 115.752 86.093 95.8583C89.1324 95.269 92.2074 94.8808 95.298 94.6963C99.1912 94.4652 103.095 94.4652 106.988 94.6963C109.657 94.965 112.302 95.4401 114.898 96.1173Z" fill="#263238"/>
<path d="M117.411 110.971L112.777 102.984C111.882 106.711 111.517 110.545 111.692 114.373C111.818 117.117 114.331 127.281 116.592 128.765C117.192 122.853 117.465 116.913 117.411 110.971Z" fill="#203048"/>
<path d="M118.055 101.584C118.755 104.986 119.455 108.472 120.204 111.888C120.953 115.304 121.73 118.734 122.633 122.045C122.864 122.864 123.081 123.704 123.333 124.488L123.522 125.09L123.613 125.391V125.356C123.564 125.293 123.508 125.286 123.55 125.356C123.838 125.67 124.205 125.9 124.614 126.021C125.276 126.267 125.957 126.457 126.651 126.588C129.96 127.113 133.311 127.331 136.661 127.239L137.326 131.047C136.388 131.348 135.513 131.565 134.589 131.782C133.665 131.999 132.755 132.181 131.824 132.321C129.898 132.642 127.945 132.773 125.993 132.713C124.908 132.684 123.829 132.543 122.773 132.293C121.43 131.999 120.168 131.414 119.077 130.578C118.364 130.003 117.776 129.288 117.348 128.478C117.236 128.268 117.138 128.03 117.047 127.827L116.921 127.498L116.662 126.798C116.305 125.909 116.011 125.034 115.689 124.159C114.506 120.659 113.519 117.124 112.651 113.596C111.783 110.068 111.034 106.547 110.411 102.928L118.055 101.584Z" fill="#E4897B"/>
<path d="M108.031 99.8692C106.582 104.566 112.455 118.573 112.455 118.573L124.152 115.633C124.152 115.633 123.704 108.353 121.037 102.578C117.019 93.8702 109.767 94.2342 108.031 99.8692Z" fill="#263238"/>
<path d="M136.563 127.239L142.387 127.092L139.587 133.154C139.587 133.154 137.214 133.469 135.268 130.27L133.217 127.82L135.576 127.351C135.901 127.283 136.231 127.245 136.563 127.239Z" fill="#E4897B"/>
<path d="M146.062 128.219L142.73 133.245L139.587 133.154L142.387 127.092L146.062 128.219Z" fill="#E4897B"/>
<path d="M116.319 243.201L116.053 249.34H110.908L111.174 243.201H116.319Z" fill="#CE6F64"/>
<path d="M74.3329 226.646L78.6379 229.467L73.7379 233.597L69.4399 230.783L74.3329 226.646Z" fill="#CE6F64"/>
<path d="M96.7819 77.5112C97.0899 82.6002 97.0129 85.6032 99.5819 88.2142C103.446 92.1552 109.739 89.8242 110.957 84.7142C112.056 80.1362 111.37 72.5762 106.386 70.5462C105.286 70.1023 104.092 69.9451 102.915 70.0893C101.738 70.2335 100.616 70.6744 99.6563 71.3707C98.6963 72.0669 97.9288 72.9956 97.4261 74.0697C96.9233 75.1438 96.7017 76.328 96.7819 77.5112Z" fill="#E4897B"/>
<path d="M90.7899 76.6152C92.0569 81.2562 95.0389 86.6041 98.8959 86.9471C103.684 87.3671 105.847 82.4182 106.477 77.3082C109.347 75.3412 107.842 73.1781 110.719 72.9051C114.415 72.5551 113.232 65.7932 108.367 64.7082C108.367 64.7082 109.998 67.7532 106.575 66.2132C103.32 64.6661 99.7031 64.0391 96.1169 64.4002C96.1169 64.4002 100.485 66.5841 96.2149 67.5571C91.9449 68.5301 90.6709 71.1621 92.6379 72.7511C92.6379 72.7581 89.9569 73.5632 90.7899 76.6152Z" fill="#263238"/>
<path d="M103.558 78.3581C103.652 79.623 104.161 80.8215 105.007 81.7671C106.127 83.0061 107.296 82.2361 107.492 80.7311C107.674 79.3801 107.303 77.1051 105.931 76.4191C104.559 75.7331 103.467 76.8321 103.558 78.3581Z" fill="#E4897B"/>
<path d="M105.448 140.567C105.448 140.567 110.46 176.862 106.512 191.408C100.254 214.438 76.3279 233.877 76.3279 233.877L68.2149 228.557C68.2149 228.557 88.5919 212.142 91.0839 192.857C93.3239 175.546 87.7029 154.609 87.7029 140.56L105.448 140.567Z" fill="#407BFF"/>
<path opacity="0.1" d="M105.448 140.567C105.448 140.567 110.46 176.862 106.512 191.408C100.254 214.438 76.3279 233.877 76.3279 233.877L68.2149 228.557C68.2149 228.557 88.5919 212.142 91.0839 192.857C93.3239 175.546 87.7029 154.609 87.7029 140.56L105.448 140.567Z" fill="black"/>
<path d="M107.52 161.315C106.186 159.787 104.717 158.381 103.131 157.115C103.985 168.896 104.685 186.347 103.908 198.744C104.953 196.368 105.823 193.918 106.512 191.415C108.437 184.31 108.234 172.039 107.52 161.315Z" fill="#407BFF"/>
<path opacity="0.3" d="M107.52 161.315C106.186 159.787 104.717 158.381 103.131 157.115C103.985 168.896 104.685 186.347 103.908 198.744C104.953 196.368 105.823 193.918 106.512 191.415C108.437 184.31 108.234 172.039 107.52 161.315Z" fill="black"/>
<path d="M79.5969 232.064C79.6319 232.064 76.4539 234.164 76.4539 234.164L67.5919 228.354L70.3919 226.037L79.5969 232.064Z" fill="#407BFF"/>
<path opacity="0.3" d="M79.5969 232.064C79.6319 232.064 76.4539 234.164 76.4539 234.164L67.5919 228.354L70.3919 226.037L79.5969 232.064Z" fill="black"/>
<path d="M115.206 140.567C115.206 140.567 122.948 173.397 123.494 189.084C124.11 206.668 117.971 248.15 117.971 248.15H109.256C109.256 248.15 108.185 206.346 107.8 190.33C107.373 172.865 97.1249 140.567 97.1249 140.567H115.206Z" fill="#407BFF"/>
<path opacity="0.1" d="M115.206 140.567C115.206 140.567 122.948 173.397 123.494 189.084C124.11 206.668 117.971 248.15 117.971 248.15H109.256C109.256 248.15 108.185 206.346 107.8 190.33C107.373 172.865 97.1249 140.567 97.1249 140.567H115.206Z" fill="black"/>
<path d="M119.644 244.685C119.686 244.685 119.154 248.297 119.154 248.297H108.556L108.269 245.07L119.644 244.685Z" fill="#407BFF"/>
<path opacity="0.3" d="M119.644 244.685C119.686 244.685 119.154 248.297 119.154 248.297H108.556L108.269 245.07L119.644 244.685Z" fill="black"/>
<path d="M249.2 109.018C249.795 109.578 250.264 110.054 250.754 110.586C251.244 111.118 251.706 111.636 252.154 112.175C253.064 113.246 253.918 114.373 254.744 115.507C256.394 117.782 257.861 120.183 259.133 122.689L259.392 123.2C259.519 123.447 259.624 123.705 259.707 123.97C259.876 124.482 259.98 125.014 260.015 125.552C260.061 126.501 259.93 127.45 259.63 128.352C259.119 129.85 258.359 131.25 257.383 132.496C255.624 134.755 253.55 136.749 251.223 138.418L249.48 136.416C250.299 135.457 251.153 134.428 251.916 133.399C252.692 132.402 253.394 131.349 254.016 130.249C254.597 129.289 255.027 128.246 255.29 127.155C255.381 126.765 255.397 126.361 255.339 125.965C255.314 125.832 255.272 125.702 255.213 125.58C255.187 125.526 255.156 125.475 255.122 125.426L254.898 125.048C253.548 122.847 252.083 120.718 250.509 118.671C249.732 117.642 248.899 116.655 248.059 115.682C247.646 115.192 247.219 114.716 246.792 114.24C246.365 113.764 245.903 113.288 245.532 112.917L249.2 109.018Z" fill="#E4897B"/>
<path d="M250.152 135.828L244.923 134.974L247.66 139.552C247.66 139.552 251.027 139.433 251.986 137.452L250.152 135.828Z" fill="#E4897B"/>
<path d="M241.059 137.088L243.551 140.805L247.66 139.552L244.923 134.974L241.059 137.088Z" fill="#E4897B"/>
<path d="M249.9 255.311C249.545 255.342 249.19 255.245 248.899 255.038C248.811 254.955 248.747 254.851 248.711 254.736C248.675 254.62 248.67 254.498 248.696 254.38C248.701 254.305 248.727 254.233 248.77 254.171C248.813 254.109 248.872 254.061 248.941 254.03C249.55 253.757 251.146 254.779 251.328 254.898C251.349 254.911 251.365 254.93 251.374 254.953C251.383 254.976 251.384 255.001 251.377 255.024C251.374 255.048 251.364 255.07 251.348 255.088C251.331 255.106 251.31 255.118 251.286 255.122C250.833 255.237 250.368 255.301 249.9 255.311ZM249.2 254.226C249.149 254.218 249.097 254.218 249.046 254.226C249.015 254.24 248.989 254.263 248.971 254.292C248.952 254.32 248.942 254.353 248.941 254.387C248.923 254.465 248.924 254.547 248.946 254.624C248.969 254.701 249.01 254.771 249.067 254.828C249.333 255.066 250.019 255.101 250.936 254.919C250.411 254.572 249.82 254.336 249.2 254.226Z" fill="#407BFF"/>
<path d="M251.3 255.115H251.237C250.74 254.828 249.781 253.715 249.9 253.106C249.923 253.01 249.976 252.924 250.052 252.861C250.127 252.798 250.222 252.761 250.32 252.756C250.415 252.742 250.511 252.75 250.602 252.779C250.693 252.809 250.776 252.858 250.845 252.924C251.419 253.428 251.426 254.94 251.426 255.024C251.425 255.045 251.418 255.066 251.407 255.084C251.396 255.102 251.381 255.118 251.363 255.129L251.3 255.115ZM250.404 253.015H250.348C250.194 253.015 250.159 253.099 250.145 253.162C250.075 253.519 250.67 254.373 251.167 254.772C251.179 254.185 251.011 253.608 250.684 253.12C250.642 253.081 250.592 253.051 250.538 253.033C250.484 253.015 250.426 253.009 250.369 253.015H250.404Z" fill="#407BFF"/>
<path d="M226.044 255.311C225.597 255.353 225.149 255.24 224.777 254.989C224.693 254.914 224.628 254.821 224.588 254.716C224.548 254.611 224.534 254.498 224.546 254.387C224.551 254.319 224.572 254.253 224.609 254.195C224.646 254.138 224.696 254.091 224.756 254.058C225.407 253.694 227.493 254.758 227.731 254.891C227.753 254.905 227.77 254.925 227.781 254.948C227.793 254.972 227.797 254.998 227.794 255.024C227.79 255.048 227.778 255.071 227.761 255.089C227.743 255.106 227.721 255.118 227.696 255.122C227.153 255.237 226.6 255.301 226.044 255.311ZM225.113 254.226C225.033 254.221 224.953 254.238 224.882 254.275C224.857 254.287 224.836 254.306 224.821 254.329C224.806 254.353 224.798 254.38 224.798 254.408C224.787 254.481 224.795 254.555 224.819 254.625C224.843 254.694 224.884 254.757 224.938 254.807C225.26 255.094 226.121 255.143 227.283 254.947C226.606 254.586 225.872 254.342 225.113 254.226Z" fill="#407BFF"/>
<path d="M227.675 255.115H227.619C226.996 254.835 225.757 253.715 225.855 253.106C225.855 252.966 225.981 252.791 226.324 252.756C226.449 252.743 226.576 252.755 226.696 252.792C226.817 252.829 226.928 252.891 227.024 252.973C227.682 253.519 227.808 254.933 227.808 254.996C227.811 255.017 227.808 255.039 227.799 255.059C227.79 255.079 227.777 255.096 227.759 255.108C227.733 255.119 227.703 255.122 227.675 255.115ZM226.422 253.015H226.345C226.121 253.015 226.107 253.127 226.1 253.155C226.044 253.512 226.884 254.401 227.5 254.786C227.439 254.188 227.195 253.623 226.8 253.169C226.694 253.079 226.561 253.025 226.422 253.015Z" fill="#407BFF"/>
<path d="M235.949 92.925C235.746 96.089 235.2 102.515 237.629 104.293C237.629 104.293 237.188 107.534 231.455 108.29C225.155 109.109 228.032 105.553 228.032 105.553C231.371 104.279 230.944 101.738 230.034 99.4141L235.949 92.925Z" fill="#E4897B"/>
<path d="M222.908 87.332C222.873 87.3321 222.839 87.3246 222.808 87.3101C222.776 87.2956 222.748 87.2744 222.726 87.248C222.526 87.0106 222.273 86.8235 221.987 86.7019C221.701 86.5803 221.391 86.5276 221.081 86.548C221.048 86.554 221.015 86.5533 220.982 86.5458C220.95 86.5384 220.919 86.5244 220.892 86.5047C220.866 86.4851 220.843 86.4602 220.826 86.4315C220.809 86.4029 220.798 86.3711 220.794 86.338C220.786 86.2722 220.804 86.2059 220.845 86.1535C220.886 86.1011 220.945 86.0668 221.011 86.058C221.406 86.0246 221.804 86.0874 222.169 86.241C222.535 86.3946 222.858 86.6344 223.111 86.94C223.141 86.9765 223.161 87.0209 223.167 87.0679C223.173 87.115 223.166 87.1628 223.146 87.206C223.127 87.2491 223.095 87.2858 223.055 87.3118C223.016 87.3378 222.969 87.3521 222.922 87.353L222.908 87.332Z" fill="#263238"/>
<path d="M221.816 90.4331C221.568 91.4371 221.184 92.4026 220.675 93.3031C220.909 93.4289 221.167 93.5016 221.432 93.5161C221.697 93.5306 221.962 93.4866 222.208 93.3871L221.816 90.4331Z" fill="#DE5753"/>
<path d="M222.096 89.663C222.152 90.083 221.977 90.447 221.704 90.489C221.431 90.531 221.158 90.209 221.109 89.789C221.06 89.369 221.228 89.005 221.501 88.97C221.774 88.935 222.047 89.215 222.096 89.663Z" fill="#263238"/>
<path d="M221.627 88.9769L220.584 88.8159C220.584 88.8159 221.2 89.5369 221.627 88.9769Z" fill="#263238"/>
<path d="M233.443 255.003H228.193L227.843 242.858H233.093L233.443 255.003Z" fill="#E4897B"/>
<path d="M257.278 255.003H252.028L250.341 242.858H255.591L257.278 255.003Z" fill="#E4897B"/>
<path d="M251.706 254.415H257.6C257.701 254.414 257.798 254.45 257.874 254.516C257.95 254.581 257.999 254.672 258.013 254.772L258.713 259.441C258.726 259.559 258.714 259.678 258.677 259.791C258.641 259.903 258.581 260.007 258.502 260.095C258.422 260.183 258.325 260.253 258.217 260.301C258.109 260.348 257.991 260.373 257.873 260.372C255.822 260.337 254.828 260.218 252.238 260.218C250.642 260.218 248.311 260.379 246.113 260.379C243.915 260.379 243.796 258.202 244.713 258.006C248.822 257.124 249.473 255.906 250.852 254.737C251.093 254.537 251.393 254.424 251.706 254.415Z" fill="#263238"/>
<path d="M228.018 254.415H233.905C234.006 254.414 234.105 254.449 234.182 254.515C234.259 254.581 234.31 254.672 234.325 254.772L235.025 259.441C235.038 259.559 235.026 259.678 234.989 259.791C234.953 259.903 234.893 260.007 234.814 260.095C234.734 260.183 234.637 260.253 234.529 260.301C234.421 260.348 234.303 260.373 234.185 260.372C232.134 260.337 231.14 260.218 228.55 260.218C226.954 260.218 223.65 260.379 221.452 260.379C219.254 260.379 219.135 258.202 220.052 258.006C224.161 257.124 225.778 255.906 227.164 254.737C227.405 254.537 227.705 254.424 228.018 254.415Z" fill="#263238"/>
<path d="M227.843 242.858L228.025 249.123H233.275L233.093 242.858H227.843Z" fill="#CE6F64"/>
<path d="M255.591 242.858H250.341L251.216 249.123H256.459L255.591 242.858Z" fill="#CE6F64"/>
<path d="M236.019 86.3728C236.376 91.5668 236.635 93.7578 234.381 96.7468C230.986 101.234 224.532 100.541 222.628 95.5568C220.913 91.0698 220.619 83.3348 225.393 80.6188C226.443 80.0169 227.63 79.6933 228.84 79.6787C230.051 79.6641 231.245 79.959 232.309 80.5354C233.374 81.1118 234.273 81.9506 234.922 82.9722C235.572 83.9938 235.949 85.1644 236.019 86.3728Z" fill="#E4897B"/>
<path d="M239.043 91.1959C241.955 92.8199 244.118 88.8159 244.118 88.8159C244.118 88.8159 238.896 89.3829 239.365 86.2749C239.981 82.1519 237.027 77.1399 229.621 77.7839C229.208 77.8189 228.816 77.8679 228.431 77.9309C227.656 77.5634 226.779 77.4686 225.943 77.6617C225.107 77.8548 224.361 78.3246 223.825 78.9949C221.725 79.1699 218.89 81.6759 220.815 84.9869C220.95 84.6065 221.16 84.2567 221.431 83.9579C221.592 85.8969 223.286 88.9769 225.4 89.1799C225.855 91.8329 224.091 94.9059 224.7 97.6779C225.603 101.675 232.344 102.578 232.344 102.578C232.112 102.079 232.025 101.524 232.094 100.978C232.164 100.432 232.386 99.9161 232.736 99.4909C237.314 101.591 240.331 99.5399 240.331 99.5399C237.209 98.3779 238.154 96.3059 238.154 96.3059C239.232 96.7846 240.454 96.8266 241.562 96.4232C242.67 96.0199 243.579 95.2025 244.097 94.1429C243.06 94.1922 242.031 93.9401 241.134 93.4171C240.237 92.8942 239.511 92.1227 239.043 91.1959Z" fill="#263238"/>
<path d="M227.227 89.9779C227.239 90.4764 227.153 90.9724 226.973 91.4374C226.793 91.9023 226.522 92.327 226.177 92.687C225.253 93.646 224.119 92.9739 223.811 91.7489C223.538 90.6429 223.692 88.816 224.896 88.312C225.161 88.2078 225.448 88.1716 225.73 88.2065C226.013 88.2415 226.282 88.3465 226.514 88.512C226.746 88.6776 226.932 88.8984 227.057 89.1544C227.181 89.4104 227.24 89.6935 227.227 89.9779Z" fill="#E4897B"/>
<path d="M231.588 138.369C231.588 138.369 232.918 172.921 236.082 193.207C238.63 209.601 249.949 247.905 249.949 247.905H257.103C257.103 247.905 251.202 210.91 249.907 194.705C246.631 153.692 255.136 144.886 247.107 136.346L231.588 138.369Z" fill="#263238"/>
<path d="M237.566 149.296C237.566 149.296 234.332 148.736 232.442 154.896C233.142 166.565 234.339 182.049 236.082 193.207C236.467 195.692 237.055 198.688 237.776 201.971C236.411 182.259 237.566 149.296 237.566 149.296Z" fill="#161F33"/>
<path d="M226.009 139.097C226.009 139.097 220.115 177.324 220.458 193.319C220.815 209.958 226.912 247.919 226.912 247.919H234.003C234.003 247.919 232.883 210.945 233.506 194.607C234.206 176.792 241.479 137.088 241.479 137.088L226.009 139.097Z" fill="#263238"/>
<path d="M258.139 248.241H248.626L247.884 245.049L258.069 245.119L258.139 248.241Z" fill="#407BFF"/>
<path opacity="0.2" d="M258.139 248.241H248.626L247.884 245.049L258.069 245.119L258.139 248.241Z" fill="black"/>
<path d="M246.75 104.3C249.487 104.566 253.645 112.343 253.645 112.343L246.736 117.642C246.736 117.642 241.017 112.623 241.696 109.802C242.403 106.869 244.125 104.055 246.75 104.3Z" fill="#407BFF"/>
<path opacity="0.1" d="M246.75 104.3C249.487 104.566 253.645 112.343 253.645 112.343L246.736 117.642C246.736 117.642 241.017 112.623 241.696 109.802C242.403 106.869 244.125 104.055 246.75 104.3Z" fill="black"/>
<path d="M244.685 107.646C243.987 107.458 243.265 107.378 242.543 107.408C242.176 108.173 241.892 108.976 241.696 109.802C240.996 112.602 246.736 117.642 246.736 117.642L247.247 117.25L244.685 107.646Z" fill="#407BFF"/>
<path opacity="0.3" d="M244.685 107.646C243.987 107.458 243.265 107.378 242.543 107.408C242.176 108.173 241.892 108.976 241.696 109.802C240.996 112.602 246.736 117.642 246.736 117.642L247.247 117.25L244.685 107.646Z" fill="black"/>
<path d="M223.664 115.115C221.669 120.162 219.569 125.293 217.896 130.354C217.784 130.676 217.693 130.984 217.595 131.299L217.357 132.076C217.292 132.305 217.292 132.547 217.357 132.776C217.752 133.651 218.379 134.402 219.17 134.946C221.263 136.448 223.543 137.669 225.953 138.579L225.323 141.155C222.359 140.764 219.492 139.829 216.867 138.397C215.252 137.534 213.936 136.202 213.094 134.575C212.611 133.536 212.443 132.377 212.611 131.243C212.627 131.104 212.65 130.966 212.681 130.83L212.751 130.536L212.87 130.004C212.954 129.647 213.038 129.304 213.129 128.954C213.829 126.154 214.725 123.494 215.67 120.855C216.615 118.216 217.602 115.612 218.715 113.015L223.664 115.115Z" fill="#E4897B"/>
<path d="M219.415 108.031C219.415 108.031 217.049 109.228 226.009 139.097L247.135 136.339C245.651 127.785 244.951 122.486 246.75 104.3C243.721 104.083 240.679 104.083 237.65 104.3C234.425 104.487 231.217 104.909 228.053 105.56C224 106.463 219.415 108.031 219.415 108.031Z" fill="#407BFF"/>
<path opacity="0.1" d="M219.415 108.031C219.415 108.031 217.049 109.228 226.009 139.097L247.135 136.339C245.651 127.785 244.951 122.486 246.75 104.3C243.721 104.083 240.679 104.083 237.65 104.3C234.425 104.487 231.217 104.909 228.053 105.56C224 106.463 219.415 108.031 219.415 108.031Z" fill="black"/>
<path d="M247.289 135.058L248.5 136.815C248.591 136.955 248.437 137.123 248.199 137.158L226.044 140.056C225.855 140.056 225.68 140.007 225.652 139.888L225.218 138.019C225.183 137.893 225.337 137.76 225.547 137.732L246.939 134.932C247.003 134.922 247.069 134.928 247.13 134.95C247.191 134.972 247.246 135.009 247.289 135.058Z" fill="#407BFF"/>
<path opacity="0.2" d="M247.289 135.058L248.5 136.815C248.591 136.955 248.437 137.123 248.199 137.158L226.044 140.056C225.855 140.056 225.68 140.007 225.652 139.888L225.218 138.019C225.183 137.893 225.337 137.76 225.547 137.732L246.939 134.932C247.003 134.922 247.069 134.928 247.13 134.95C247.191 134.972 247.246 135.009 247.289 135.058Z" fill="black"/>
<path d="M244.727 137.823L245.301 137.746C245.413 137.746 245.49 137.662 245.476 137.592L244.888 135.17C244.866 135.128 244.83 135.096 244.787 135.078C244.743 135.06 244.695 135.058 244.65 135.072L244.076 135.142C243.957 135.142 243.88 135.226 243.901 135.303L244.489 137.718C244.503 137.795 244.615 137.837 244.727 137.823Z" fill="#263238"/>
<path d="M230.839 139.615L231.413 139.538C231.525 139.538 231.609 139.454 231.588 139.384L231 136.962C230.977 136.921 230.941 136.889 230.899 136.87C230.856 136.851 230.808 136.847 230.762 136.857L230.188 136.934C230.076 136.934 229.992 137.018 230.013 137.088L230.601 139.51C230.615 139.615 230.727 139.657 230.839 139.615Z" fill="#263238"/>
<path d="M220.402 118.167C220.983 120.869 221.802 124.292 222.999 128.625L223.258 117.642L220.402 118.167Z" fill="#407BFF"/>
<path opacity="0.3" d="M220.402 118.167C220.983 120.869 221.802 124.292 222.999 128.625L223.258 117.642L220.402 118.167Z" fill="black"/>
<path d="M219.415 108.031C216.79 109.088 214.515 118.069 214.515 118.069L223.545 122.465C223.545 122.465 227.906 111.482 225.953 109.34C224 107.198 222.439 106.82 219.415 108.031Z" fill="#407BFF"/>
<path opacity="0.1" d="M219.415 108.031C216.79 109.088 214.515 118.069 214.515 118.069L223.545 122.465C223.545 122.465 227.906 111.482 225.953 109.34C224 107.198 222.439 106.82 219.415 108.031Z" fill="black"/>
<path d="M235.214 248.241H225.701L224.959 245.049L235.55 245.119L235.214 248.241Z" fill="#407BFF"/>
<path opacity="0.2" d="M235.214 248.241H225.701L224.959 245.049L235.55 245.119L235.214 248.241Z" fill="black"/>
<path d="M226.1 137.711L225.337 137.396C225.149 137.32 224.945 137.295 224.745 137.323C224.544 137.351 224.355 137.432 224.195 137.557C224.036 137.682 223.913 137.847 223.838 138.035C223.763 138.223 223.739 138.428 223.769 138.628L224.322 142.275C224.349 142.458 224.415 142.632 224.517 142.786C224.62 142.939 224.755 143.068 224.913 143.163C225.071 143.258 225.248 143.317 225.431 143.336C225.615 143.354 225.8 143.331 225.974 143.269C226.252 143.168 226.511 143.024 226.744 142.842C226.997 142.632 227.197 142.366 227.329 142.064C227.46 141.763 227.519 141.434 227.5 141.106L227.423 139.594C227.41 139.186 227.277 138.79 227.042 138.455C226.807 138.121 226.48 137.862 226.1 137.711Z" fill="#E4897B"/>
</svg>
