<svg width="350" height="271" viewBox="0 0 350 271" fill="none" xmlns="http://www.w3.org/2000/svg">
<path d="M129.486 12.383C114.387 14.371 99.834 18.613 86.919 25.27C71.708 33.11 56.147 45.332 60.753 61.313C69.23 90.818 109.9 91.357 101.78 111.195C92.582 133.665 98.749 160.02 140.021 167.356C218.421 181.272 313.166 99.813 286.552 55.048C269.983 27.202 209.636 1.799 129.486 12.383Z" fill="#407BFF"/>
<path opacity="0.9" d="M129.486 12.383C114.387 14.371 99.834 18.613 86.919 25.27C71.708 33.11 56.147 45.332 60.753 61.313C69.23 90.818 109.9 91.357 101.78 111.195C92.582 133.665 98.749 160.02 140.021 167.356C218.421 181.272 313.166 99.813 286.552 55.048C269.983 27.202 209.636 1.799 129.486 12.383Z" fill="white"/>
<path d="M324.422 266.21C324.422 268.576 258.958 270.501 178.213 270.501C97.4681 270.501 31.9971 268.576 31.9971 266.21C31.9971 263.844 97.4471 261.912 178.213 261.912C258.979 261.912 324.422 263.837 324.422 266.21Z" fill="#F5F5F5"/>
<path d="M51.086 113.302L53.123 112.714L51.828 108.192L49.469 108.892C48.7973 108.127 47.9524 107.535 47.005 107.163V104.783H42.301V107.163C41.5626 107.448 40.8837 107.868 40.299 108.402L38.199 107.394L36.134 111.594L38.199 112.602C38.199 112.777 38.199 112.945 38.199 113.12C38.2002 114.218 38.4821 115.298 39.018 116.256L37.478 118.202L41.153 121.142L42.658 119.252C43.3026 119.46 43.9757 119.566 44.653 119.567C45.1479 119.568 45.6413 119.512 46.123 119.399L47.481 121.31L51.317 118.587L49.994 116.718C50.6813 115.709 51.0607 114.522 51.086 113.302ZM40.418 113.134C40.418 112.303 40.6644 111.491 41.1259 110.801C41.5874 110.11 42.2433 109.572 43.0108 109.254C43.7782 108.936 44.6227 108.853 45.4374 109.015C46.2521 109.177 47.0005 109.577 47.5879 110.164C48.1753 110.751 48.5753 111.5 48.7373 112.315C48.8994 113.129 48.8162 113.974 48.4983 114.741C48.1804 115.509 47.6421 116.165 46.9514 116.626C46.2607 117.088 45.4487 117.334 44.618 117.334C43.5111 117.323 42.4523 116.88 41.6675 116.099C40.8828 115.318 40.4344 114.262 40.418 113.155V113.134Z" fill="#407BFF"/>
<path opacity="0.6" d="M51.086 113.302L53.123 112.714L51.828 108.192L49.469 108.892C48.7973 108.127 47.9524 107.535 47.005 107.163V104.783H42.301V107.163C41.5626 107.448 40.8837 107.868 40.299 108.402L38.199 107.394L36.134 111.594L38.199 112.602C38.199 112.777 38.199 112.945 38.199 113.12C38.2002 114.218 38.4821 115.298 39.018 116.256L37.478 118.202L41.153 121.142L42.658 119.252C43.3026 119.46 43.9757 119.566 44.653 119.567C45.1479 119.568 45.6413 119.512 46.123 119.399L47.481 121.31L51.317 118.587L49.994 116.718C50.6813 115.709 51.0607 114.522 51.086 113.302ZM40.418 113.134C40.418 112.303 40.6644 111.491 41.1259 110.801C41.5874 110.11 42.2433 109.572 43.0108 109.254C43.7782 108.936 44.6227 108.853 45.4374 109.015C46.2521 109.177 47.0005 109.577 47.5879 110.164C48.1753 110.751 48.5753 111.5 48.7373 112.315C48.8994 113.129 48.8162 113.974 48.4983 114.741C48.1804 115.509 47.6421 116.165 46.9514 116.626C46.2607 117.088 45.4487 117.334 44.618 117.334C43.5111 117.323 42.4523 116.88 41.6675 116.099C40.8828 115.318 40.4344 114.262 40.418 113.155V113.134Z" fill="white"/>
<path d="M321.111 39.417L323.148 38.829L321.853 34.307L319.501 35.007C318.824 34.2466 317.978 33.6566 317.03 33.285V30.905H312.347V33.285C311.608 33.5723 310.929 33.9949 310.345 34.531L308.259 33.502L306.159 37.702L308.259 38.71C308.259 38.885 308.259 39.053 308.259 39.228C308.26 40.3261 308.542 41.4056 309.078 42.364L307.531 44.303L311.206 47.243L312.711 45.353C313.356 45.5613 314.029 45.6676 314.706 45.668C315.203 45.6695 315.699 45.6131 316.183 45.5L317.534 47.411L321.37 44.681L320.047 42.833C320.724 41.8211 321.094 40.6346 321.111 39.417ZM310.45 39.249C310.45 38.4184 310.696 37.6063 311.158 36.9156C311.619 36.2249 312.275 35.6866 313.043 35.3687C313.81 35.0508 314.655 34.9677 315.469 35.1297C316.284 35.2918 317.033 35.6918 317.62 36.2792C318.207 36.8666 318.607 37.6149 318.769 38.4296C318.931 39.2444 318.848 40.0889 318.53 40.8563C318.212 41.6237 317.674 42.2797 316.983 42.7412C316.293 43.2027 315.481 43.449 314.65 43.449C313.536 43.449 312.468 43.0065 311.68 42.2189C310.893 41.4312 310.45 40.3629 310.45 39.249Z" fill="#407BFF"/>
<path opacity="0.6" d="M321.111 39.417L323.148 38.829L321.853 34.307L319.501 35.007C318.824 34.2466 317.978 33.6566 317.03 33.285V30.905H312.347V33.285C311.608 33.5723 310.929 33.9949 310.345 34.531L308.259 33.502L306.159 37.702L308.259 38.71C308.259 38.885 308.259 39.053 308.259 39.228C308.26 40.3261 308.542 41.4056 309.078 42.364L307.531 44.303L311.206 47.243L312.711 45.353C313.356 45.5613 314.029 45.6676 314.706 45.668C315.203 45.6695 315.699 45.6131 316.183 45.5L317.534 47.411L321.37 44.681L320.047 42.833C320.724 41.8211 321.094 40.6346 321.111 39.417ZM310.45 39.249C310.45 38.4184 310.696 37.6063 311.158 36.9156C311.619 36.2249 312.275 35.6866 313.043 35.3687C313.81 35.0508 314.655 34.9677 315.469 35.1297C316.284 35.2918 317.033 35.6918 317.62 36.2792C318.207 36.8666 318.607 37.6149 318.769 38.4296C318.931 39.2444 318.848 40.0889 318.53 40.8563C318.212 41.6237 317.674 42.2797 316.983 42.7412C316.293 43.2027 315.481 43.449 314.65 43.449C313.536 43.449 312.468 43.0065 311.68 42.2189C310.893 41.4312 310.45 40.3629 310.45 39.249Z" fill="white"/>
<path d="M67.816 88.8439C66.5934 88.8446 65.3771 88.6701 64.204 88.3259C64.1708 88.3171 64.1398 88.3017 64.1128 88.2805C64.0858 88.2593 64.0634 88.2328 64.0471 88.2026C64.0307 88.1725 64.0206 88.1393 64.0175 88.1051C64.0144 88.071 64.0183 88.0365 64.029 88.0039C64.0379 87.9706 64.0533 87.9395 64.0744 87.9122C64.0955 87.885 64.1218 87.8622 64.1518 87.8453C64.1817 87.8283 64.2148 87.8175 64.249 87.8135C64.2832 87.8095 64.3179 87.8124 64.351 87.8219C65.474 88.1518 66.6385 88.3192 67.809 88.3189C67.8816 88.3187 67.9516 88.3461 68.0048 88.3954C68.0581 88.4448 68.0907 88.5125 68.096 88.5849C68.0989 88.6173 68.0951 88.6499 68.0848 88.6808C68.0746 88.7117 68.0582 88.7401 68.0365 88.7644C68.0149 88.7887 67.9885 88.8082 67.959 88.8219C67.9295 88.8356 67.8975 88.8431 67.865 88.8439V88.5849L67.816 88.8439ZM71.393 88.3259C71.3363 88.3254 71.2813 88.3067 71.236 88.2727C71.1907 88.2387 71.1574 88.1911 71.141 88.1369C71.1303 88.1043 71.1264 88.0698 71.1295 88.0357C71.1326 88.0015 71.1427 87.9683 71.1591 87.9382C71.1754 87.908 71.1978 87.8815 71.2248 87.8604C71.2518 87.8392 71.2828 87.8237 71.316 87.8149C72.4374 87.478 73.5052 86.983 74.487 86.3449C74.5457 86.3076 74.6166 86.2948 74.6847 86.3092C74.7527 86.3236 74.8124 86.364 74.851 86.4219C74.8883 86.4806 74.9011 86.5516 74.8867 86.6196C74.8723 86.6876 74.8318 86.7473 74.774 86.7859C73.7513 87.45 72.6386 87.9639 71.47 88.3119L71.393 88.3259ZM61.047 86.8559C60.9972 86.856 60.9485 86.8414 60.907 86.8139C59.8801 86.1517 58.9517 85.3481 58.149 84.4269C58.1007 84.3772 58.0736 84.3107 58.0736 84.2414C58.0736 84.1721 58.1007 84.1056 58.149 84.0559C58.1731 84.0311 58.2019 84.0115 58.2338 83.998C58.2657 83.9846 58.2999 83.9777 58.3345 83.9777C58.369 83.9777 58.4033 83.9846 58.4351 83.998C58.467 84.0115 58.4958 84.0311 58.52 84.0559C59.2897 84.9371 60.1778 85.7074 61.159 86.3449C61.1887 86.3621 61.2146 86.3852 61.2351 86.4128C61.2555 86.4404 61.2701 86.4718 61.278 86.5053C61.2859 86.5387 61.2868 86.5734 61.2808 86.6072C61.2748 86.641 61.2619 86.6732 61.243 86.7019C61.2254 86.7416 61.1983 86.7764 61.1641 86.8033C61.13 86.8301 61.0897 86.8482 61.047 86.8559ZM77.336 84.4759C77.272 84.4767 77.2098 84.4543 77.161 84.4129C77.1127 84.3632 77.0856 84.2967 77.0856 84.2274C77.0856 84.1581 77.1127 84.0916 77.161 84.0419C77.9269 83.1576 78.5611 82.1674 79.044 81.1019C79.0768 81.0445 79.1297 81.0014 79.1926 80.9809C79.2554 80.9605 79.3237 80.9641 79.3839 80.9912C79.4442 81.0183 79.4923 81.0669 79.5187 81.1275C79.5452 81.188 79.5481 81.2563 79.527 81.3189C79.0201 82.4291 78.3578 83.4614 77.56 84.3849C77.5325 84.4204 77.4957 84.4477 77.4537 84.4638C77.4118 84.4798 77.3662 84.484 77.322 84.4759H77.336ZM56.413 81.5149C56.3626 81.5151 56.3133 81.5007 56.271 81.4734C56.2288 81.446 56.1954 81.4069 56.175 81.3609C55.664 80.2503 55.3174 79.0713 55.146 77.8609C55.1411 77.8268 55.143 77.7922 55.1516 77.7588C55.1603 77.7255 55.1754 77.6943 55.1963 77.6669C55.2171 77.6395 55.2432 77.6166 55.2731 77.5994C55.3029 77.5823 55.3358 77.5712 55.37 77.5669C55.4036 77.5609 55.4381 77.5619 55.4714 77.5697C55.5047 77.5775 55.5361 77.592 55.5636 77.6123C55.5911 77.6326 55.6141 77.6583 55.6314 77.6878C55.6487 77.7173 55.6597 77.75 55.664 77.7839C55.8298 78.9433 56.1622 80.0726 56.651 81.1369C56.6662 81.1681 56.6751 81.202 56.677 81.2366C56.6789 81.2713 56.6738 81.3059 56.6621 81.3386C56.6503 81.3712 56.6321 81.4012 56.6086 81.4267C56.585 81.4521 56.5566 81.4726 56.525 81.4869C56.4854 81.5048 56.4425 81.5144 56.399 81.5149H56.413ZM80.255 78.0149C80.1854 78.0045 80.1228 77.967 80.0809 77.9106C80.0389 77.8542 80.021 77.7835 80.031 77.7139C80.1996 76.5533 80.1996 75.3745 80.031 74.2139C80.0261 74.1799 80.028 74.1452 80.0366 74.1119C80.0452 74.0785 80.0604 74.0473 80.0813 74.0199C80.1021 73.9925 80.1282 73.9696 80.1581 73.9524C80.1879 73.9353 80.2208 73.9242 80.255 73.9199C80.3227 73.9099 80.3917 73.9271 80.4468 73.9677C80.5019 74.0084 80.5386 74.0692 80.549 74.1369C80.7258 75.3461 80.7258 76.5747 80.549 77.7839C80.5484 77.8221 80.5397 77.8597 80.5234 77.8942C80.507 77.9287 80.4834 77.9593 80.4542 77.9838C80.425 78.0084 80.3908 78.0264 80.354 78.0366C80.3172 78.0468 80.2787 78.0489 80.241 78.0429L80.255 78.0149ZM55.398 74.5149C55.3298 74.5045 55.2684 74.468 55.2266 74.4132C55.1848 74.3583 55.1659 74.2894 55.174 74.2209C55.3473 73.0109 55.6938 71.8322 56.203 70.7209C56.2166 70.6896 56.2364 70.6612 56.2611 70.6375C56.2857 70.6139 56.3149 70.5953 56.3468 70.5829C56.3786 70.5706 56.4127 70.5646 56.4469 70.5655C56.4811 70.5663 56.5147 70.574 56.546 70.5879C56.6086 70.6183 56.6572 70.6715 56.6819 70.7365C56.7066 70.8016 56.7056 70.8736 56.679 70.9379C56.1891 72.0013 55.8589 73.1311 55.699 74.2909C55.6948 74.3274 55.6832 74.3626 55.6648 74.3943C55.6463 74.426 55.6216 74.4536 55.592 74.4753C55.5624 74.497 55.5286 74.5123 55.4929 74.5204C55.4571 74.5284 55.42 74.5289 55.384 74.5219L55.398 74.5149ZM79.198 71.0499C79.148 71.0485 79.0994 71.0334 79.0574 71.0062C79.0155 70.9791 78.9817 70.9409 78.96 70.8959C78.4712 69.8309 77.8297 68.8429 77.056 67.9629C77.0077 67.9132 76.9806 67.8467 76.9806 67.7774C76.9806 67.7081 77.0077 67.6416 77.056 67.5919C77.0801 67.5671 77.1089 67.5475 77.1408 67.534C77.1727 67.5206 77.2069 67.5137 77.2415 67.5137C77.2761 67.5137 77.3103 67.5206 77.3421 67.534C77.374 67.5475 77.4028 67.5671 77.427 67.5919C78.2305 68.5088 78.8977 69.5367 79.408 70.6439C79.4369 70.7071 79.4399 70.7792 79.4163 70.8446C79.3928 70.91 79.3446 70.9636 79.282 70.9939C79.2726 71.0161 79.2609 71.0372 79.247 71.0569L79.198 71.0499ZM58.317 68.0959C58.2554 68.095 58.196 68.0727 58.149 68.0329C58.1242 68.0088 58.1045 67.9799 58.0911 67.9481C58.0776 67.9162 58.0707 67.882 58.0707 67.8474C58.0707 67.8128 58.0776 67.7786 58.0911 67.7467C58.1045 67.7149 58.1242 67.686 58.149 67.6619C58.9474 66.7371 59.8737 65.9309 60.9 65.2679C60.9587 65.2306 61.0296 65.2178 61.0977 65.2322C61.1657 65.2466 61.2254 65.287 61.264 65.3449C61.2831 65.3741 61.296 65.4069 61.3021 65.4412C61.3083 65.4756 61.3074 65.5108 61.2995 65.5448C61.2917 65.5788 61.277 65.6109 61.2565 65.6391C61.236 65.6673 61.2099 65.691 61.18 65.7089C60.1978 66.3451 59.3115 67.1182 58.548 68.0049C58.5202 68.0382 58.4844 68.064 58.4441 68.0799C58.4037 68.0958 58.36 68.1013 58.317 68.0959ZM74.571 65.7019C74.5197 65.7036 74.469 65.6915 74.424 65.6669C73.4412 65.031 72.3705 64.5428 71.246 64.2179C71.1795 64.1969 71.124 64.1507 71.0912 64.0892C71.0585 64.0276 71.0512 63.9557 71.071 63.8889C71.0798 63.8557 71.0952 63.8247 71.1164 63.7977C71.1376 63.7707 71.1641 63.7484 71.1942 63.732C71.2244 63.7156 71.2576 63.7055 71.2917 63.7024C71.3259 63.6993 71.3604 63.7032 71.393 63.7139C72.5657 64.0531 73.6833 64.56 74.711 65.2189C74.7688 65.2575 74.8093 65.3172 74.8237 65.3852C74.8381 65.4532 74.8253 65.5242 74.788 65.5829C74.7646 65.6193 74.7325 65.6492 74.6946 65.67C74.6567 65.6908 74.6142 65.7018 74.571 65.7019ZM64.253 64.2389C64.1885 64.2417 64.1253 64.2203 64.0758 64.179C64.0262 64.1376 63.9939 64.0792 63.9851 64.0153C63.9764 63.9514 63.9918 63.8865 64.0284 63.8333C64.065 63.7801 64.1201 63.7425 64.183 63.7279C65.3525 63.3775 66.5671 63.2006 67.788 63.2029C67.8502 63.2131 67.9068 63.2451 67.9477 63.2932C67.9885 63.3413 68.011 63.4023 68.011 63.4654C68.011 63.5285 67.9885 63.5895 67.9477 63.6376C67.9068 63.6857 67.8502 63.7177 67.788 63.7279C66.6169 63.7265 65.4519 63.8963 64.33 64.2319L64.253 64.2389Z" fill="#407BFF"/>
<path d="M67.809 86.485C73.581 86.485 78.26 81.8059 78.26 76.034C78.26 70.2621 73.581 65.583 67.809 65.583C62.0371 65.583 57.358 70.2621 57.358 76.034C57.358 81.8059 62.0371 86.485 67.809 86.485Z" fill="#407BFF"/>
<path d="M65.996 80.5699C65.9019 80.5668 65.8094 80.5448 65.724 80.5051C65.6386 80.4654 65.5621 80.4089 65.499 80.3389L62.349 76.8389C62.2373 76.6998 62.1829 76.5232 62.197 76.3452C62.2111 76.1673 62.2927 76.0015 62.425 75.8817C62.5573 75.7619 62.7304 75.6972 62.9088 75.7008C63.0873 75.7043 63.2576 75.7759 63.385 75.9009L66.052 78.8549L72.793 72.3589C72.8581 72.2933 72.9355 72.2412 73.0208 72.2057C73.1061 72.1702 73.1976 72.1519 73.29 72.1519C73.3824 72.1519 73.4739 72.1702 73.5592 72.2057C73.6445 72.2412 73.722 72.2933 73.787 72.3589C73.9174 72.4901 73.9906 72.6675 73.9906 72.8524C73.9906 73.0373 73.9174 73.2148 73.787 73.3459L66.479 80.4019C66.345 80.5168 66.1725 80.5768 65.996 80.5699Z" fill="white"/>
<path d="M141.757 96.075C141.757 96.075 120.477 106.806 114.072 133.679C109.403 153.279 110.817 190.267 119.231 193.235C127.645 196.203 128.583 173.299 128.653 165.158C128.723 157.017 136.353 147.077 143.15 146.482C143.15 146.482 144.48 103.502 141.757 96.075Z" fill="#407BFF"/>
<path opacity="0.2" d="M144.942 101.402C139.909 103.32 135.772 107.002 132.419 111.118C128.849 115.648 125.912 120.643 123.69 125.965C121.225 131.651 119.428 137.603 118.335 143.703C117.313 150.129 116.815 156.628 116.844 163.135C116.732 171.094 116.536 179.382 119.644 186.886C119.763 187.187 120.26 187.054 120.134 186.753C117.446 180.215 117.285 173.075 117.334 166.11C117.39 159.537 117.488 152.936 118.419 146.419C120.085 134.841 124.306 123.13 131.173 113.596C134.736 108.654 139.307 104.097 145.089 101.892C145.397 101.773 145.264 101.283 144.956 101.402H144.942Z" fill="black"/>
<path d="M214.662 96.075C214.662 96.075 235.942 106.806 242.347 133.679C247.016 153.279 245.602 190.267 237.188 193.235C228.774 196.203 227.836 173.299 227.766 165.158C227.696 157.017 220.066 147.077 213.269 146.482C213.269 146.482 211.939 103.502 214.662 96.075Z" fill="#407BFF"/>
<path opacity="0.2" d="M211.344 101.885C216.405 103.817 220.542 107.569 223.874 111.762C227.357 116.258 230.22 121.203 232.386 126.462C234.813 132.12 236.577 138.039 237.643 144.102C238.756 150.486 238.98 156.975 239.043 163.443C239.148 171.262 239.316 179.375 236.285 186.746C236.166 187.047 236.656 187.18 236.775 186.879C239.498 180.257 239.638 173.005 239.575 165.949C239.519 159.292 239.4 152.607 238.434 146.006C237.501 139.722 235.818 133.571 233.422 127.687C231.34 122.371 228.585 117.344 225.225 112.728C221.676 107.919 217.147 103.565 211.477 101.402C211.169 101.283 211.036 101.773 211.344 101.892V101.885Z" fill="black"/>
<path d="M207.347 177.744H148.547C148.547 177.744 137.781 136.374 142.002 89.985C143.141 77.6923 146.261 65.6648 151.242 54.369C151.312 54.194 151.389 54.019 151.466 53.851C152.698 51.051 153.993 48.412 155.323 45.899C160.546 36.0118 167.06 26.8621 174.692 18.69C175.129 18.1917 175.667 17.7925 176.271 17.519C176.874 17.2455 177.529 17.104 178.192 17.104C178.855 17.104 179.51 17.2455 180.113 17.519C180.717 17.7925 181.255 18.1917 181.692 18.69C189.568 27.1239 196.252 36.5965 201.558 46.844C202.888 49.413 204.183 52.122 205.408 54.964L205.625 55.468C210.323 66.4482 213.28 78.0937 214.389 89.985C218.603 136.402 207.347 177.744 207.347 177.744Z" fill="#407BFF"/>
<g opacity="0.5">
<path d="M207.347 177.744H148.547C148.547 177.744 137.781 136.374 142.002 89.985C143.141 77.6923 146.261 65.6648 151.242 54.369C151.312 54.194 151.389 54.019 151.466 53.851C152.698 51.051 153.993 48.412 155.323 45.899C160.546 36.0118 167.06 26.8621 174.692 18.69C175.129 18.1917 175.667 17.7925 176.271 17.519C176.874 17.2455 177.529 17.104 178.192 17.104C178.855 17.104 179.51 17.2455 180.113 17.519C180.717 17.7925 181.255 18.1917 181.692 18.69C189.568 27.1239 196.252 36.5965 201.558 46.844C202.888 49.413 204.183 52.122 205.408 54.964L205.625 55.468C210.323 66.4482 213.28 78.0937 214.389 89.985C218.603 136.402 207.347 177.744 207.347 177.744Z" fill="white"/>
</g>
<path d="M200.844 171.85H156.751V172.522H200.844V171.85Z" fill="#407BFF"/>
<path d="M208.684 193.494H149.247C145.012 187.397 149.492 177.744 149.492 177.744H207.48C207.48 177.744 211.939 185.619 208.684 193.494Z" fill="#263238"/>
<path d="M193.669 199.024H163.947C161.847 195.972 164.073 191.149 164.073 191.149H193.067C193.067 191.149 195.293 195.083 193.669 199.024Z" fill="#263238"/>
<path d="M193.683 199.024H164.045C158.046 202.209 143.122 209.811 145.208 222.691H213.283C215.369 209.811 199.682 202.202 193.683 199.024Z" fill="#407BFF"/>
<path d="M215.334 219.968H142.653V225.575H215.334V219.968Z" fill="#263238"/>
<path d="M201.558 46.844C196.196 50.68 187.992 54.978 178.192 54.978C169.694 54.9294 161.526 51.6802 155.316 45.878C155.876 44.8186 156.441 43.7873 157.01 42.784L157.283 42.315C162.137 33.778 167.977 25.8415 174.685 18.669C175.122 18.1707 175.66 17.7715 176.264 17.498C176.867 17.2245 177.522 17.083 178.185 17.083C178.848 17.083 179.503 17.2245 180.106 17.498C180.71 17.7715 181.248 18.1707 181.685 18.669C188.413 25.8575 194.268 33.8156 199.129 42.378L199.402 42.861C200.135 44.1536 200.853 45.4813 201.558 46.844Z" fill="#407BFF"/>
<path opacity="0.2" d="M199.409 42.8819C197.688 44.1171 195.864 45.2015 193.956 46.1229C187.233 49.3704 179.67 50.4561 172.305 49.2309C166.784 48.2794 161.554 46.0817 157.01 42.8049L157.283 42.3359C159.129 43.675 161.097 44.8352 163.163 45.8009C169.875 48.9647 177.411 49.944 184.709 48.6009C189.913 47.6148 194.837 45.5002 199.136 42.4059L199.409 42.8819Z" fill="black"/>
<path d="M206.374 97.3911C203.679 70.1751 201.572 59.2831 201.327 58.0861C202.342 57.5331 203.294 56.9731 204.127 56.4271C204.638 56.1121 205.128 55.7901 205.597 55.4681L205.38 54.9641C204.883 55.3001 204.372 55.6641 203.84 55.9721C198.24 59.5071 189.245 63.7281 178.409 63.7281C169.869 63.7329 161.534 61.1134 154.532 56.2241C153.377 55.4261 152.348 54.6211 151.431 53.8511C151.354 54.0191 151.277 54.1941 151.207 54.3691C152.096 55.1111 153.097 55.8811 154.203 56.6581C154.903 57.1481 155.694 57.6591 156.527 58.1631C156.226 59.6751 154.147 70.6581 151.501 97.3631C149.401 118.223 151.319 138.978 153.265 152.719C154.42 161.152 156.014 169.519 158.039 177.786C158.053 177.84 158.085 177.888 158.129 177.923C158.173 177.957 158.228 177.975 158.284 177.975H158.347C158.411 177.957 158.466 177.915 158.5 177.858C158.534 177.8 158.544 177.732 158.529 177.667C156.508 169.416 154.92 161.065 153.769 152.649C151.823 138.943 149.94 118.237 152.005 97.4261C154.567 71.5681 156.597 60.4731 156.989 58.4221C163.48 62.2737 170.889 64.3049 178.437 64.3021C186.277 64.2032 193.972 62.1689 200.837 58.3801C201.187 60.1581 203.238 71.1901 205.842 97.4751C207.907 118.286 206.024 138.992 204.078 152.698C202.928 161.114 201.339 169.465 199.318 177.716C199.303 177.781 199.313 177.849 199.347 177.907C199.381 177.964 199.436 178.006 199.5 178.024H199.563C199.619 178.024 199.674 178.006 199.718 177.972C199.762 177.937 199.794 177.889 199.808 177.835C201.833 169.568 203.427 161.201 204.582 152.768C206.556 139.006 208.446 118.251 206.374 97.3911Z" fill="#407BFF"/>
<path d="M178.437 126.28C174.583 126.281 170.816 125.14 167.611 123C164.407 120.86 161.909 117.817 160.433 114.257C158.958 110.697 158.572 106.78 159.323 103C160.074 99.2204 161.93 95.7486 164.655 93.0237C167.38 90.2988 170.852 88.4433 174.631 87.6919C178.411 86.9404 182.328 87.3268 185.888 88.8021C189.448 90.2775 192.491 92.7755 194.631 95.9802C196.771 99.1849 197.912 102.952 197.911 106.806C197.905 111.969 195.852 116.919 192.201 120.57C188.55 124.221 183.6 126.274 178.437 126.28ZM178.437 87.8359C174.685 87.8359 171.017 88.9485 167.898 91.0329C164.778 93.1174 162.347 96.0801 160.911 99.5464C159.475 103.013 159.1 106.827 159.831 110.507C160.563 114.187 162.37 117.567 165.023 120.22C167.676 122.873 171.056 124.679 174.736 125.411C178.416 126.143 182.23 125.768 185.696 124.332C189.163 122.896 192.126 120.465 194.21 117.345C196.294 114.225 197.407 110.558 197.407 106.806C197.401 101.776 195.401 96.9546 191.845 93.3982C188.288 89.8418 183.466 87.8414 178.437 87.8359Z" fill="#407BFF"/>
<path d="M193.186 106.799C193.186 110.711 191.632 114.462 188.866 117.228C186.1 119.994 182.349 121.548 178.437 121.548H178.094C175.598 121.498 173.157 120.809 171.003 119.546C169.338 118.572 167.878 117.283 166.705 115.752C164.74 113.184 163.68 110.039 163.688 106.806C163.689 106.233 163.722 105.66 163.786 105.091C164.176 101.797 165.664 98.7307 168.009 96.3853C170.355 94.04 173.421 92.5523 176.715 92.162C177.287 92.0975 177.862 92.0648 178.437 92.064C182.287 92.0683 185.982 93.576 188.736 96.2658C191.49 98.9556 193.084 102.615 193.179 106.463C193.186 106.575 193.186 106.687 193.186 106.799Z" fill="#407BFF"/>
<path opacity="0.1" d="M187.376 95.102L166.705 115.773C164.74 113.205 163.68 110.06 163.688 106.827C163.689 106.254 163.722 105.681 163.786 105.112L176.715 92.183C177.287 92.1185 177.862 92.0858 178.437 92.085C181.667 92.0812 184.809 93.1415 187.376 95.102Z" fill="white"/>
<path opacity="0.1" d="M193.179 106.456L178.094 121.541C175.598 121.491 173.157 120.802 171.003 119.539L191.17 99.3789C192.436 101.526 193.128 103.964 193.179 106.456Z" fill="white"/>
<path d="M174.909 236.11L172.326 240.093L165.844 250.096L163.086 254.345L155.715 265.713H152.838L160.328 250.096L163.086 244.342L164.822 240.716L167.034 236.11H174.909Z" fill="#407BFF"/>
<path opacity="0.2" d="M174.909 236.11L172.326 240.093L165.844 250.096L163.086 254.345L155.715 265.713H152.838L160.328 250.096L163.086 244.342L164.822 240.716L167.034 236.11H174.909Z" fill="black"/>
<path d="M205.73 236.11L204.897 237.398L196.665 250.096L193.907 254.345L186.536 265.713H183.666L191.149 250.096L193.907 244.342L196.924 238.056L197.855 236.11H205.73Z" fill="#407BFF"/>
<path opacity="0.2" d="M205.73 236.11L204.897 237.398L196.665 250.096L193.907 254.345L186.536 265.713H183.666L191.149 250.096L193.907 244.342L196.924 238.056L197.855 236.11H205.73Z" fill="black"/>
<path d="M208.698 225.575H147.658V236.11H208.698V225.575Z" fill="#407BFF"/>
<path opacity="0.2" d="M208.698 225.575H147.658V236.11H208.698V225.575Z" fill="white"/>
<path d="M173.334 265.713H170.457L163.086 254.345L160.328 250.096L154.791 241.549L151.263 236.11H159.138L161.483 240.989L163.086 244.342L165.844 250.096L173.334 265.713Z" fill="#407BFF"/>
<path d="M204.155 265.713H201.278L193.907 254.345L191.149 250.096L184.037 239.12L182.084 236.11H189.959L191.121 238.532L193.907 244.342L196.665 250.096L204.155 265.713Z" fill="#407BFF"/>
<path d="M274.96 94.3039C272.646 99.0225 270.01 103.576 267.071 107.933C266.525 108.71 265.979 109.466 265.419 110.18C262.563 113.855 259.567 116.543 257.194 115.906C243.985 112.364 235.641 101.206 235.641 101.206L238.119 98.4059C238.119 98.4059 254.051 104.615 255.297 104.496C256.543 104.377 264.397 84.7209 264.397 84.7209L274.96 94.3039Z" fill="#407BFF"/>
<path opacity="0.2" d="M268.289 103.117L267.071 107.933C266.525 108.71 265.979 109.466 265.419 110.18C265.355 108.768 265.088 107.372 264.628 106.036C263.641 103.299 260.043 99.8479 261.597 96.2359C262.772 93.3471 263.709 90.3668 264.397 87.325L268.289 103.117Z" fill="black"/>
<path opacity="0.2" d="M261.646 113.953C260.494 113.054 259.042 112.631 257.587 112.77C256.133 112.909 254.787 113.601 253.827 114.702C253.603 114.947 253.246 114.583 253.463 114.338C254.503 113.156 255.952 112.412 257.519 112.256C259.085 112.101 260.653 112.544 261.905 113.498C262.164 113.694 261.905 114.135 261.646 113.939V113.953Z" fill="black"/>
<path d="M257.39 106.722L240.317 106.372C239.777 106.349 239.257 106.158 238.83 105.826C238.403 105.493 238.091 105.036 237.937 104.517L232.61 82.1171C232.547 81.8948 232.54 81.6604 232.59 81.4348C232.639 81.2092 232.744 80.9993 232.894 80.824C233.045 80.6487 233.236 80.5132 233.452 80.4299C233.667 80.3465 233.9 80.3177 234.129 80.3461L251.202 80.7031C251.742 80.7243 252.262 80.914 252.688 81.2453C253.115 81.5767 253.428 82.0333 253.582 82.5511L258.909 104.951C258.972 105.173 258.979 105.408 258.929 105.633C258.88 105.859 258.775 106.069 258.625 106.244C258.474 106.419 258.283 106.555 258.067 106.638C257.852 106.722 257.619 106.75 257.39 106.722Z" fill="#263238"/>
<path opacity="0.2" d="M257.39 106.722L240.317 106.372C239.777 106.349 239.257 106.158 238.83 105.826C238.403 105.493 238.091 105.036 237.937 104.517L232.61 82.1171C232.547 81.8948 232.54 81.6604 232.59 81.4348C232.639 81.2092 232.744 80.9993 232.894 80.824C233.045 80.6487 233.236 80.5132 233.452 80.4299C233.667 80.3465 233.9 80.3177 234.129 80.3461L251.202 80.7031C251.742 80.7243 252.262 80.914 252.688 81.2453C253.115 81.5767 253.428 82.0333 253.582 82.5511L258.909 104.951C258.972 105.173 258.979 105.408 258.929 105.633C258.88 105.859 258.775 106.069 258.625 106.244C258.474 106.419 258.283 106.555 258.067 106.638C257.852 106.722 257.619 106.75 257.39 106.722Z" fill="white"/>
<path d="M255.647 106.687L238.567 106.337C238.028 106.312 237.51 106.12 237.085 105.787C236.66 105.455 236.349 104.999 236.194 104.482L230.86 82.0819C230.797 81.8596 230.79 81.6253 230.84 81.3996C230.889 81.174 230.994 80.9642 231.144 80.7888C231.295 80.6135 231.486 80.4781 231.702 80.3947C231.917 80.3113 232.15 80.2825 232.379 80.3109L249.459 80.6609C249.998 80.6861 250.516 80.8782 250.941 81.2105C251.366 81.5428 251.677 81.999 251.832 82.5159L257.159 104.916C257.222 105.138 257.229 105.371 257.179 105.596C257.13 105.821 257.026 106.03 256.877 106.206C256.727 106.381 256.537 106.516 256.322 106.6C256.108 106.684 255.876 106.714 255.647 106.687Z" fill="#263238"/>
<path opacity="0.2" d="M240.842 94.108C241.025 94.7616 241.409 95.3413 241.939 95.7657C242.469 96.1901 243.118 96.4378 243.796 96.474C244.085 96.5033 244.378 96.4609 244.647 96.3505C244.916 96.2401 245.154 96.065 245.339 95.8408C245.525 95.6166 245.652 95.3501 245.71 95.065C245.768 94.7798 245.755 94.4848 245.672 94.206C245.491 93.5516 245.109 92.9705 244.581 92.5448C244.052 92.119 243.403 91.87 242.725 91.833C242.435 91.8054 242.143 91.8492 241.874 91.9606C241.605 92.0719 241.367 92.2474 241.181 92.4718C240.995 92.6962 240.867 92.9626 240.808 93.2478C240.749 93.533 240.761 93.8283 240.842 94.108Z" fill="white"/>
<path d="M235.053 95.5431C235.053 95.5431 238.791 95.3331 239.386 96.1031C239.981 96.8731 236.229 97.6151 236.229 97.6151C236.229 97.6151 238.441 97.5521 239.029 98.0771C239.617 98.6021 236.845 99.4421 236.845 99.4421C236.845 99.4421 238.322 99.4421 238.378 100.268C238.434 101.094 237.874 101.374 237.055 101.57C236.716 101.653 236.362 101.655 236.022 101.578C235.682 101.5 235.365 101.344 235.095 101.122C234.773 100.8 235.046 99.9671 235.046 99.9671C235.046 99.9671 233.646 99.2671 233.59 98.7351C233.58 98.5705 233.604 98.4056 233.662 98.2511C233.72 98.0967 233.81 97.9563 233.926 97.8391C233.725 97.7998 233.537 97.7106 233.379 97.5797C233.221 97.4489 233.099 97.2805 233.023 97.0901C232.948 96.925 232.916 96.7441 232.928 96.5633C232.94 96.3826 232.997 96.2076 233.093 96.0541C232.804 95.4387 232.557 94.805 232.351 94.1571C232.169 93.4571 233.408 92.9041 234.157 92.4631C234.906 92.0221 236.257 93.5621 237.489 93.8631C237.489 93.8631 238.119 94.2481 237.447 94.7171C236.775 95.1861 235.347 94.4791 235.011 94.5071C234.675 94.5351 235.053 95.5431 235.053 95.5431Z" fill="#B55B52"/>
<path d="M266.847 51.9331C266.847 51.9331 262.206 53.7741 263.347 57.4771C264.488 61.1801 261.478 60.8371 261.121 64.4281C260.764 68.0191 266.861 69.1251 265.202 72.3381C263.543 75.5511 261.002 76.4821 262.668 79.6111C264.334 82.7401 266.56 86.3241 266.56 88.6411C266.56 94.1291 277.06 80.6051 285.145 82.8311C293.23 85.0571 295.351 77.1261 292.047 75.2921C288.743 73.4581 284.459 70.7631 285.712 65.9681C286.965 61.1731 287.868 58.9681 284.193 56.4761C280.518 53.9841 282.534 53.5711 280.413 51.2821C278.502 49.2241 275.716 51.3451 272.713 50.4561C269.71 49.5671 266.847 51.9331 266.847 51.9331Z" fill="#263238"/>
<path d="M268.303 69.4959C268.343 69.8341 268.482 70.1529 268.702 70.4121C268.923 70.6713 269.216 70.8593 269.543 70.9522C269.871 71.0451 270.219 71.0388 270.543 70.9341C270.867 70.8294 271.152 70.631 271.364 70.364C271.575 70.0969 271.702 69.7733 271.73 69.4339C271.757 69.0945 271.683 68.7546 271.517 68.4572C271.352 68.1598 271.102 67.9182 270.798 67.7629C270.495 67.6077 270.153 67.5457 269.815 67.5849C269.59 67.611 269.373 67.6811 269.175 67.7913C268.977 67.9015 268.803 68.0495 268.663 68.227C268.522 68.4045 268.418 68.6079 268.357 68.8257C268.295 69.0434 268.277 69.2712 268.303 69.4959Z" fill="white"/>
<path d="M264.901 251.72L263.032 259.427H258.972L258.783 251.72H264.901Z" fill="#B55B52"/>
<path d="M247.177 264.88C247.401 262.367 248.5 261.618 249.865 261.534C251.23 261.45 256.34 259.749 256.34 259.749C256.34 259.749 257.397 258.153 258.335 257.831C259.273 257.509 260.162 258.454 260.162 258.454L262.717 258.146C262.717 258.146 263.48 256.998 264.005 257.999C264.817 259.56 264.705 263.872 264.642 264.88H247.177Z" fill="#407BFF"/>
<path d="M247.513 264.222H250.677L264.53 264.152C264.705 264.152 264.67 263.879 264.495 263.886H263.557C263.557 263.886 263.557 263.886 263.557 263.851C263.365 263.553 263.236 263.219 263.18 262.869C263.123 262.52 263.139 262.162 263.227 261.819C263.315 261.476 263.473 261.154 263.691 260.875C263.91 260.596 264.183 260.365 264.495 260.197C264.642 260.12 264.495 259.882 264.334 259.966C264.001 260.148 263.709 260.396 263.475 260.694C263.241 260.993 263.07 261.336 262.972 261.702C262.875 262.069 262.853 262.452 262.907 262.827C262.962 263.202 263.093 263.563 263.291 263.886H261.338L247.485 263.956C247.296 263.956 247.331 264.229 247.513 264.222Z" fill="black"/>
<path d="M257.11 260.834C256.41 259.987 255.339 259.749 254.569 260.386C254.443 260.491 254.282 260.26 254.401 260.155C255.283 259.455 256.501 259.742 257.32 260.701C257.439 260.841 257.229 260.974 257.11 260.834Z" fill="white"/>
<path d="M255.647 261.289C254.947 260.442 253.876 260.197 253.106 260.841C252.987 260.939 252.819 260.708 252.945 260.61C253.82 259.875 255.045 260.19 255.864 261.149C255.983 261.289 255.766 261.422 255.647 261.289Z" fill="white"/>
<path d="M254.198 261.737C253.498 260.89 252.427 260.652 251.657 261.289C251.531 261.394 251.37 261.156 251.489 261.058C252.371 260.323 253.589 260.645 254.408 261.597C254.527 261.744 254.317 261.877 254.198 261.737Z" fill="white"/>
<path d="M281.701 150.71C280.502 161.059 278.703 171.329 276.311 181.468C275.457 185.229 274.486 189.238 273.399 193.494C276.388 218.176 264.691 253.834 264.691 253.834L258.426 253.694C258.426 253.694 257.642 213.843 258.377 192.983C259.581 158.802 263.746 126.245 263.746 126.245L280.812 126.175C280.812 126.175 283.759 131.313 281.701 150.71Z" fill="#263238"/>
<path opacity="0.2" d="M281.701 150.71C280.502 161.059 278.703 171.329 276.311 181.468C272.72 167.797 279.216 138.621 279.216 138.621L281.701 150.71Z" fill="black"/>
<path d="M257.705 255.171L257.509 252.483H265.867L265.391 255.171H257.705Z" fill="#263238"/>
<path d="M290.878 251.72L289.002 259.427H284.942L284.76 251.72H290.878Z" fill="#B55B52"/>
<path d="M283.528 255.171L283.332 252.483H291.69L291.214 255.171H283.528Z" fill="#263238"/>
<path d="M273.147 264.88C273.364 262.367 274.47 261.618 275.835 261.534C277.2 261.45 282.31 259.749 282.31 259.749C282.31 259.749 283.367 258.153 284.298 257.831C285.229 257.509 286.132 258.454 286.132 258.454L288.68 258.146C288.68 258.146 289.443 256.998 289.975 257.999C290.787 259.56 290.675 263.872 290.612 264.88H273.147Z" fill="#407BFF"/>
<path d="M273.483 264.222H276.654L290.507 264.152C290.682 264.152 290.647 263.879 290.465 263.886H289.534V263.851C289.343 263.553 289.216 263.218 289.16 262.868C289.104 262.518 289.121 262.161 289.21 261.818C289.299 261.475 289.457 261.154 289.676 260.875C289.894 260.596 290.167 260.365 290.479 260.197C290.626 260.12 290.479 259.882 290.318 259.966C289.985 260.147 289.692 260.395 289.457 260.693C289.222 260.991 289.05 261.334 288.952 261.701C288.854 262.067 288.831 262.45 288.886 262.826C288.94 263.201 289.07 263.562 289.268 263.886H287.315L273.469 263.956C273.273 263.956 273.308 264.229 273.483 264.222Z" fill="black"/>
<path d="M283.087 260.834C282.387 259.987 281.309 259.749 280.546 260.386C280.42 260.491 280.252 260.26 280.378 260.155C281.26 259.455 282.478 259.742 283.297 260.701C283.416 260.841 283.199 260.974 283.087 260.834Z" fill="white"/>
<path d="M281.652 261.289C280.952 260.442 279.881 260.197 279.111 260.841C278.992 260.939 278.824 260.708 278.943 260.61C279.825 259.875 281.043 260.19 281.862 261.149C281.988 261.289 281.771 261.422 281.652 261.289Z" fill="white"/>
<path d="M280.147 261.737C279.447 260.89 278.369 260.652 277.606 261.289C277.48 261.394 277.312 261.156 277.438 261.058C278.32 260.323 279.538 260.645 280.357 261.597C280.476 261.744 280.259 261.877 280.147 261.737Z" fill="white"/>
<path d="M275.828 127.554C275.828 127.554 279.013 174.741 280.028 193.494C281.225 214.921 283.906 251.44 284.263 253.827H290.738C289.996 254.527 299.054 221.774 295.4 195.083C298.823 169.561 302.988 150.871 297.619 126.833L275.828 127.554Z" fill="#263238"/>
<path d="M299.593 128.702C285.985 133.196 263.116 131.719 263.116 128.604C263.116 119.826 266.224 109.956 265.391 104.237C258.958 99.7362 263.991 95.6692 263.424 88.9982C263.236 86.5401 263.973 84.1004 265.491 82.1578C267.008 80.2153 269.197 78.91 271.628 78.4982C272.79 78.3022 273.994 78.1062 275.177 77.9522L275.877 77.8612C279.035 77.5018 282.213 77.3521 285.39 77.4132C286.552 77.4132 287.756 77.4132 289.016 77.4482C290.276 77.4832 291.494 77.5252 292.656 77.6092C293.679 77.6807 294.676 77.9667 295.582 78.4486C296.487 78.9304 297.281 79.5973 297.912 80.4059C298.543 81.2145 298.997 82.1469 299.245 83.1423C299.492 84.1378 299.527 85.1742 299.348 86.1842C298.305 92.0407 297.643 97.9589 297.367 103.901C297.311 105.126 297.269 106.309 297.255 107.471C297.174 111.539 297.359 115.608 297.808 119.651C297.808 119.728 297.808 119.805 297.808 119.875C298.004 121.485 298.237 122.969 298.508 124.327C298.592 124.754 298.683 125.16 298.781 125.559C299.047 126.378 299.369 127.855 299.593 128.702Z" fill="#407BFF"/>
<path opacity="0.2" d="M274.876 89.096C274.876 89.1833 274.85 89.2685 274.802 89.341C274.753 89.4136 274.684 89.4701 274.604 89.5035C274.523 89.5368 274.435 89.5456 274.349 89.5286C274.263 89.5115 274.185 89.4695 274.123 89.4079C274.062 89.3462 274.02 89.2676 274.002 89.1821C273.985 89.0965 273.994 89.0079 274.028 88.9273C274.061 88.8467 274.117 88.7778 274.19 88.7294C274.263 88.6809 274.348 88.655 274.435 88.655C274.552 88.655 274.664 88.7015 274.747 88.7842C274.83 88.8669 274.876 88.9791 274.876 89.096Z" fill="black"/>
<path opacity="0.2" d="M274.169 93.45C274.409 93.45 274.603 93.2557 274.603 93.016C274.603 92.7763 274.409 92.582 274.169 92.582C273.929 92.582 273.735 92.7763 273.735 93.016C273.735 93.2557 273.929 93.45 274.169 93.45Z" fill="black"/>
<path opacity="0.2" d="M274.169 97.44C274.409 97.44 274.603 97.2457 274.603 97.006C274.603 96.7663 274.409 96.572 274.169 96.572C273.929 96.572 273.735 96.7663 273.735 97.006C273.735 97.2457 273.929 97.44 274.169 97.44Z" fill="black"/>
<path d="M285.411 77.3849C282.191 83.0479 274.61 86.4359 274.61 86.4359C273.581 83.9019 273.91 79.8349 275.177 77.9239L275.877 77.8329C279.042 77.4727 282.227 77.323 285.411 77.3849Z" fill="#B55B52"/>
<path opacity="0.2" d="M298.571 124.299C285.166 122.822 272.244 110.18 272.244 110.18L297.402 118.58C297.513 119.023 297.665 119.454 297.857 119.868C298.053 121.464 298.291 122.941 298.571 124.299Z" fill="black"/>
<path opacity="0.2" d="M296.863 106.687C296.461 109.087 296.323 111.523 296.45 113.953C294.591 114.75 292.503 114.837 290.584 114.198C287.956 113.188 285.749 111.314 284.326 108.885C284.326 108.885 291.963 110.39 293.853 109.69C295.547 109.06 291.494 95.942 291.361 95.571L296.961 103.208C296.947 104.398 296.877 105.553 296.863 106.687Z" fill="black"/>
<path d="M275.093 79.611C275.064 79.7017 275.024 79.7887 274.974 79.87C273.875 81.599 275.065 83.174 276.955 83.041C277.136 83.0261 277.316 83.0004 277.494 82.964C278.173 82.8292 278.793 82.4838 279.265 81.977C280.715 80.4208 282.283 78.9791 283.955 77.665C281.155 76.146 280.091 70.749 279.825 67.375L275.422 72.975L274.603 74.2C275.006 74.88 275.326 75.6062 275.555 76.363C275.749 76.9009 275.809 77.4783 275.728 78.0445C275.648 78.6107 275.43 79.1486 275.093 79.611Z" fill="#B55B52"/>
<path d="M283.528 77.3849C285.075 77.0019 286.692 77.0019 288.239 77.3849L283.962 84.7279C281.715 83.0899 279.132 85.2179 274.61 86.4359C278.356 84.2931 281.441 81.1621 283.528 77.3849Z" fill="#407BFF"/>
<path opacity="0.2" d="M283.528 77.3849C285.075 77.0019 286.692 77.0019 288.239 77.3849L283.962 84.7279C281.715 83.0899 279.132 85.2179 274.61 86.4359C278.356 84.2931 281.441 81.1621 283.528 77.3849Z" fill="white"/>
<path d="M275.751 77.721C275.751 77.721 273.14 77.238 271.628 78.47C271.08 80.365 270.67 82.2974 270.403 84.252C270.403 84.252 272.916 82.999 274.603 86.436C274.61 86.436 273.756 80.955 275.751 77.721Z" fill="#407BFF"/>
<path opacity="0.2" d="M275.751 77.721C275.751 77.721 273.14 77.238 271.628 78.47C271.08 80.365 270.67 82.2974 270.403 84.252C270.403 84.252 272.916 82.999 274.603 86.436C274.61 86.436 273.756 80.955 275.751 77.721Z" fill="white"/>
<g opacity="0.2">
<path d="M275.562 76.3631C275.333 75.6063 275.013 74.8801 274.61 74.2001L275.429 72.9751L278.229 73.0381C277.733 74.4114 276.795 75.581 275.562 76.3631Z" fill="black"/>
</g>
<path d="M280.637 61.362C281.078 66.906 281.379 69.237 279.055 72.436C275.555 77.252 268.793 76.559 266.735 71.26C264.887 66.486 264.474 58.226 269.437 55.3C274.4 52.374 280.196 55.825 280.637 61.362Z" fill="#B55B52"/>
<path d="M269.99 54.2571C269.99 54.2571 268.828 58.9821 271.614 60.1651C274.4 61.3481 278.201 59.7242 278.201 63.3222C278.201 65.3522 281.386 64.7221 281.19 62.8531C280.994 60.9841 282.317 57.4141 278.39 55.4751C275.757 54.2982 272.849 53.8765 269.99 54.2571Z" fill="#263238"/>
<path d="M278.047 65.849C277.746 65.8399 277.451 65.7608 277.186 65.618C275.31 64.687 275.051 59.934 275.044 59.731H275.401C275.401 59.78 275.653 64.477 277.347 65.331C277.512 65.4343 277.699 65.4966 277.892 65.5124C278.086 65.5282 278.281 65.4972 278.46 65.422C279.083 65.1 279.251 64.085 279.251 64.078L279.601 64.134C279.557 64.4535 279.448 64.7606 279.281 65.0363C279.113 65.312 278.891 65.5505 278.628 65.737C278.446 65.8194 278.247 65.8577 278.047 65.849Z" fill="#263238"/>
<path d="M270.263 55.8041C270.263 55.8041 267.19 60.7041 265.062 59.5491C262.934 58.3941 268.002 52.8921 269.962 54.2571C271.922 55.6221 270.263 55.8041 270.263 55.8041Z" fill="#263238"/>
<path d="M269.045 69.9021C269.045 69.9021 271.74 68.6841 272.335 67.5081C272.335 67.5081 272.734 69.6081 271.32 70.3851C270.95 70.6051 270.51 70.6776 270.088 70.5881C269.667 70.4986 269.294 70.2537 269.045 69.9021Z" fill="white"/>
<path d="M271.194 63.8191C271.257 64.2671 271.068 64.6591 270.774 64.7011C270.48 64.7431 270.2 64.4141 270.137 64.0011C270.074 63.5881 270.256 63.1611 270.55 63.1191C270.844 63.0771 271.131 63.4061 271.194 63.8541" fill="#263238"/>
<path d="M266.7 64.575C266.763 65.023 266.574 65.415 266.287 65.457C266 65.499 265.706 65.1701 265.643 64.7221C265.58 64.2741 265.762 63.882 266.056 63.84C266.35 63.798 266.637 64.127 266.7 64.54" fill="#263238"/>
<path d="M266.189 63.847L265.076 63.686C265.076 63.686 265.741 64.449 266.189 63.847Z" fill="#263238"/>
<path d="M268.646 64.4839C268.646 64.4839 268.044 65.7719 267.351 66.9199C267.301 67.0075 267.27 67.105 267.261 67.2055C267.252 67.3061 267.265 67.4074 267.299 67.5025C267.333 67.5976 267.387 67.6842 267.458 67.7564C267.528 67.8286 267.614 67.8847 267.708 67.9209C268.182 68.0662 268.67 68.1578 269.164 68.1939L268.646 64.4839Z" fill="#A02724"/>
<path d="M283.122 64.8969C282.984 65.3832 282.744 65.8345 282.419 66.2207C282.093 66.607 281.688 66.9193 281.232 67.1369C280.063 67.6479 279.265 66.3949 279.419 64.9879C279.559 63.7209 280.329 61.9289 281.589 62.0199C282.849 62.1109 283.521 63.6159 283.122 64.8969Z" fill="#B55B52"/>
<path d="M281.015 66.115H280.784V68.691H281.015V66.115Z" fill="white"/>
<path d="M280.938 70.0772C281.456 70.0772 281.876 69.6572 281.876 69.1392C281.876 68.6211 281.456 68.2012 280.938 68.2012C280.42 68.2012 280 68.6211 280 69.1392C280 69.6572 280.42 70.0772 280.938 70.0772Z" fill="white"/>
<path d="M272.489 62.6499C272.452 62.6452 272.417 62.6328 272.386 62.6135C272.354 62.5942 272.328 62.5684 272.307 62.5379C272.13 62.2558 271.889 62.0199 271.603 61.8495C271.317 61.6791 270.994 61.5791 270.662 61.5579C270.593 61.5579 270.526 61.5308 270.476 61.4825C270.427 61.4341 270.398 61.3682 270.396 61.2989C270.395 61.2639 270.401 61.2292 270.414 61.1965C270.426 61.1639 270.445 61.1341 270.469 61.1087C270.493 61.0834 270.522 61.063 270.554 61.0488C270.586 61.0346 270.62 61.0268 270.655 61.0259C271.077 61.0454 271.488 61.1663 271.854 61.3783C272.219 61.5903 272.528 61.8872 272.755 62.2439C272.775 62.2722 272.789 62.3042 272.796 62.338C272.803 62.3718 272.803 62.4067 272.797 62.4406C272.79 62.4745 272.777 62.5068 272.758 62.5355C272.739 62.5643 272.714 62.5889 272.685 62.6079C272.658 62.6281 272.628 62.6424 272.595 62.6496C272.562 62.6569 272.529 62.657 272.496 62.6499" fill="#263238"/>
<path d="M264.894 62.846C264.86 62.8503 264.826 62.8475 264.794 62.8379C264.761 62.8282 264.731 62.8119 264.705 62.79C264.651 62.7461 264.616 62.6826 264.608 62.6131C264.6 62.5437 264.62 62.474 264.663 62.419C264.92 62.0851 265.252 61.8175 265.634 61.6385C266.015 61.4595 266.433 61.3743 266.854 61.39C266.892 61.3885 266.93 61.3951 266.965 61.4094C267 61.4236 267.032 61.4453 267.058 61.4728C267.084 61.5003 267.104 61.533 267.116 61.5689C267.129 61.6047 267.133 61.6428 267.13 61.6805C267.126 61.7183 267.115 61.7548 267.096 61.7878C267.077 61.8207 267.051 61.8492 267.021 61.8714C266.99 61.8936 266.955 61.909 266.917 61.9165C266.88 61.9241 266.842 61.9235 266.805 61.915C266.472 61.9098 266.142 61.9824 265.842 62.127C265.542 62.2717 265.28 62.4843 265.076 62.748C265.056 62.7782 265.029 62.803 264.997 62.8201C264.966 62.8372 264.93 62.8461 264.894 62.846Z" fill="#263238"/>
<path d="M270.683 63.0909L269.563 62.9299C269.563 62.9299 270.263 63.6929 270.683 63.0909Z" fill="#263238"/>
<path d="M298.998 82.2991C298.998 82.2991 308.623 108.451 307.083 117.012C304.549 131.103 272.832 112.224 272.223 109.55L275.058 105.483C275.058 105.483 295.582 112.952 296.709 112.238C297.836 111.524 290.234 91.4411 290.234 91.4411C290.234 91.4411 291.347 79.3031 298.998 82.2991Z" fill="#407BFF"/>
<path opacity="0.2" d="M306.985 114.863C305.56 115.31 304.33 116.23 303.499 117.471C302.668 118.712 302.285 120.2 302.414 121.688C302.414 122.017 301.931 122.087 301.903 121.758C301.76 120.156 302.168 118.554 303.059 117.215C303.95 115.876 305.27 114.881 306.803 114.394C307.111 114.289 307.314 114.765 306.999 114.863H306.985Z" fill="black"/>
<path d="M275.884 106.302C275.884 106.302 272.923 98.4969 272.23 97.8389C271.537 97.1809 263.781 97.2089 262.983 97.0059C262.185 96.8029 262.626 98.2449 264.04 98.4409C265.454 98.6369 268.03 99.3019 268.03 99.3019C268.03 99.3019 265.636 99.1339 265.181 99.6799C264.726 100.226 262.724 104.146 263.277 105.98C263.83 107.814 266.077 107.926 266.777 108.08C267.477 108.234 266.777 106.309 266.777 106.309C267.372 106.563 268.002 106.723 268.646 106.785C269.752 106.911 271.194 109.032 272.286 109.515C274.358 110.502 276.836 106.848 275.884 106.302Z" fill="#B55B52"/>
<path d="M269.962 99.5819C269.352 99.4597 268.728 99.4174 268.107 99.4559C267.876 99.4559 267.834 99.1129 268.065 99.0989C268.721 99.0531 269.38 99.0955 270.025 99.2249C270.069 99.2368 270.107 99.2647 270.131 99.303C270.155 99.3414 270.164 99.3874 270.156 99.4322C270.149 99.4769 270.124 99.5171 270.088 99.5448C270.052 99.5725 270.007 99.5857 269.962 99.5819Z" fill="#994731"/>
<path d="M268.072 101.199C267.008 100.842 265.832 100.499 264.768 101.038C264.565 101.143 264.355 100.849 264.558 100.744C265.755 100.107 267.015 100.464 268.226 100.87C268.443 100.94 268.289 101.269 268.072 101.199Z" fill="#994731"/>
<path d="M267.071 102.802C266.594 102.57 266.068 102.458 265.538 102.478C265.008 102.497 264.491 102.647 264.033 102.914C263.837 103.033 263.627 102.739 263.83 102.62C264.338 102.317 264.914 102.144 265.505 102.119C266.097 102.093 266.685 102.215 267.218 102.473C267.255 102.496 267.283 102.532 267.295 102.574C267.308 102.616 267.305 102.661 267.287 102.701C267.269 102.741 267.238 102.774 267.198 102.792C267.158 102.811 267.113 102.814 267.071 102.802Z" fill="#994731"/>
<path d="M266.721 106.561C266.374 106.365 266.07 106.1 265.829 105.782C265.588 105.464 265.415 105.1 265.321 104.713C265.272 104.489 265.608 104.363 265.664 104.587C265.738 104.928 265.881 105.249 266.084 105.532C266.288 105.815 266.548 106.054 266.847 106.232C267.05 106.344 266.896 106.673 266.7 106.561H266.721Z" fill="#994731"/>
<path d="M265.706 105.7C265.522 105.635 265.323 105.628 265.134 105.677C264.946 105.727 264.777 105.833 264.649 105.98C264.495 106.155 264.222 105.924 264.376 105.749C264.555 105.542 264.794 105.396 265.059 105.328C265.324 105.26 265.604 105.275 265.86 105.371C266.077 105.455 265.923 105.784 265.706 105.7Z" fill="#994731"/>
<path d="M266.147 68.166C265.909 68.1453 265.679 68.0718 265.473 67.9506C265.267 67.8295 265.091 67.6639 264.957 67.466C264.519 66.9094 264.235 66.2483 264.131 65.548C263.872 63.973 264.432 62.559 265.377 62.405C266.322 62.251 267.316 63.399 267.575 64.974C267.709 65.6754 267.656 66.3996 267.421 67.074C267.349 67.3318 267.21 67.566 267.018 67.7529C266.826 67.9397 266.589 68.0726 266.329 68.138L266.147 68.166ZM265.559 62.566H265.412C264.558 62.706 264.061 64.022 264.306 65.499C264.402 66.1707 264.672 66.8054 265.09 67.34C265.223 67.5345 265.405 67.6906 265.618 67.7926C265.83 67.8946 266.066 67.9388 266.301 67.921C266.53 67.8626 266.738 67.7442 266.906 67.5781C267.073 67.4119 267.193 67.204 267.253 66.976C267.475 66.3375 267.525 65.6521 267.4 64.988C267.155 63.644 266.35 62.601 265.545 62.601L265.559 62.566Z" fill="white"/>
<path d="M270.963 67.3541C270.067 67.3541 269.185 66.2481 268.94 64.7711C268.695 63.2941 269.241 61.7821 270.186 61.6281C271.131 61.4741 272.125 62.6221 272.384 64.1971C272.518 64.8985 272.465 65.6228 272.23 66.2971C272.157 66.5543 272.017 66.7878 271.826 66.9745C271.634 67.1611 271.397 67.2944 271.138 67.3611L270.963 67.3541ZM270.368 61.7541H270.221C269.367 61.8941 268.87 63.2101 269.115 64.6871C269.36 66.1641 270.27 67.2491 271.11 67.1091C271.338 67.0507 271.547 66.9324 271.715 66.7662C271.882 66.6001 272.002 66.3922 272.062 66.1641C272.287 65.5263 272.338 64.8401 272.209 64.1761C271.978 62.8321 271.173 61.7891 270.347 61.7891L270.368 61.7541Z" fill="white"/>
<path d="M264.264 65.6319L264.145 65.499C264.516 65.2008 264.972 65.0269 265.447 65.002V65.1839C265.017 65.2112 264.604 65.3673 264.264 65.6319Z" fill="white"/>
<path d="M267.428 64.7009L267.288 64.5959C267.485 64.3353 267.772 64.1577 268.093 64.0981C268.415 64.0385 268.747 64.1012 269.024 64.2739L268.933 64.4279C268.694 64.2758 268.406 64.2194 268.127 64.27C267.848 64.3206 267.598 64.4744 267.428 64.7009Z" fill="white"/>
<path d="M272.279 63.973L272.195 63.812C272.23 63.812 276.038 61.775 280.014 62.461V62.643C276.073 61.964 272.314 63.952 272.279 63.973Z" fill="white"/>
<path d="M135.947 252.308L127.456 252.945L111.622 216.727L103.894 197.47L123.788 188.377L126.196 201.887L126.266 202.111L135.947 252.308Z" fill="#263238"/>
<path d="M128.128 251.181L131.18 259.203H135.401L134.484 251.181H128.128Z" fill="#B55B52"/>
<path d="M137.263 254.982L136.906 250.887H125.601L126.658 254.982H137.263Z" fill="#263238"/>
<path d="M148.428 264.88C147.84 262.269 146.58 261.485 145.159 261.38C143.738 261.275 138.159 259.525 138.159 259.525C138.159 259.525 136.829 257.866 135.814 257.53C135.481 257.459 135.135 257.482 134.815 257.597C134.494 257.712 134.213 257.914 134.001 258.181L131.313 257.852C131.313 257.852 130.361 256.669 129.913 257.705C129.444 258.902 129.598 264.054 129.626 264.866L148.428 264.88Z" fill="#407BFF"/>
<path d="M147.987 264.201H144.697L130.305 264.131C130.268 264.131 130.232 264.116 130.206 264.09C130.18 264.064 130.165 264.028 130.165 263.991C130.165 263.954 130.18 263.918 130.206 263.892C130.232 263.866 130.268 263.851 130.305 263.851H131.285C131.281 263.84 131.281 263.827 131.285 263.816C131.985 262.304 131.166 260.778 129.78 260.015C129.619 259.931 129.78 259.686 129.92 259.777C130.66 260.12 131.242 260.732 131.548 261.489C131.853 262.246 131.859 263.09 131.565 263.851H133.595L147.987 263.928C148.018 263.935 148.046 263.952 148.065 263.977C148.085 264.002 148.096 264.033 148.096 264.065C148.096 264.096 148.085 264.127 148.065 264.152C148.046 264.177 148.018 264.194 147.987 264.201Z" fill="black"/>
<path d="M137.536 260.673C137.664 260.462 137.835 260.28 138.038 260.14C138.241 259.999 138.472 259.904 138.715 259.86C138.958 259.815 139.207 259.823 139.447 259.882C139.687 259.942 139.911 260.051 140.105 260.204C140.252 260.309 140.392 260.071 140.245 259.966C140.019 259.795 139.759 259.673 139.483 259.608C139.207 259.544 138.92 259.538 138.642 259.591C138.363 259.645 138.099 259.756 137.866 259.919C137.634 260.081 137.438 260.29 137.291 260.533C137.186 260.673 137.431 260.813 137.536 260.673Z" fill="white"/>
<path d="M139.083 261.142C139.211 260.93 139.383 260.749 139.587 260.608C139.791 260.468 140.022 260.373 140.266 260.328C140.509 260.284 140.759 260.292 140.999 260.351C141.239 260.411 141.464 260.52 141.659 260.673C141.799 260.778 141.939 260.54 141.799 260.435C141.573 260.263 141.314 260.141 141.038 260.076C140.762 260.011 140.476 260.005 140.197 260.057C139.919 260.11 139.654 260.221 139.422 260.382C139.189 260.544 138.992 260.753 138.845 260.995C138.74 261.142 138.985 261.282 139.083 261.142Z" fill="white"/>
<path d="M140.686 261.604C140.816 261.394 140.988 261.213 141.193 261.075C141.397 260.936 141.628 260.841 141.871 260.798C142.114 260.754 142.363 260.762 142.603 260.822C142.843 260.881 143.067 260.99 143.262 261.142C143.402 261.247 143.542 261.009 143.402 260.897C143.176 260.727 142.916 260.606 142.64 260.542C142.364 260.478 142.078 260.472 141.799 260.526C141.521 260.579 141.257 260.69 141.024 260.852C140.792 261.013 140.595 261.222 140.448 261.464C140.343 261.611 140.581 261.751 140.686 261.604Z" fill="white"/>
<path d="M109.291 222.075L110.726 231.707L111.23 235.179L115.5 264.299H112.938L106.799 235.179L106.071 231.707L104.041 222.075H109.291Z" fill="#407BFF"/>
<path d="M99.274 222.075L100.702 231.707L101.213 235.179L105.483 264.299H102.914L96.775 235.179L96.047 231.707L94.017 222.075H99.274Z" fill="#407BFF"/>
<g opacity="0.2">
<path d="M99.274 222.075L100.702 231.707L101.213 235.179L105.483 264.299H102.914L96.775 235.179L96.047 231.707L94.017 222.075H99.274Z" fill="black"/>
</g>
<path d="M51.59 214.76L48.02 231.707L47.292 235.179L41.153 264.299H38.584L42.861 235.179L43.365 231.707L45.885 214.76H51.59Z" fill="#407BFF"/>
<path d="M61.614 214.76L58.044 231.707L57.309 235.179L51.177 264.299H48.608L52.878 235.179L53.389 231.707L55.909 214.76H61.614Z" fill="#407BFF"/>
<g opacity="0.2">
<path d="M61.614 214.76L58.044 231.707L57.309 235.179L51.177 264.299H48.608L52.878 235.179L53.389 231.707L55.909 214.76H61.614Z" fill="black"/>
</g>
<path d="M45.843 222.208H109.438L108.171 217.217C106.071 208.852 100.065 203.217 93.331 203.217H41.006L45.843 222.208Z" fill="#407BFF"/>
<path d="M37.506 190.036L43.533 212.436L104.16 212.506L100.422 198.597C97.93 189.315 89.698 182.497 80.122 182.329H80.066C79.366 179.648 72.506 154.329 57.127 154.791C40.887 155.274 44.408 182.329 44.408 182.329H41.664C38.647 182.35 36.498 186.284 37.506 190.036Z" fill="#407BFF"/>
<g opacity="0.2">
<path d="M37.506 190.036L43.533 212.436L104.16 212.506L100.422 198.597C97.93 189.315 89.698 182.497 80.122 182.329H80.066C79.366 179.648 72.506 154.329 57.127 154.791C40.887 155.274 44.408 182.329 44.408 182.329H41.664C38.647 182.35 36.498 186.284 37.506 190.036Z" fill="black"/>
</g>
<path d="M67.158 152.95C67.158 152.95 68.88 174.573 71.624 181.489C77.924 197.358 88.907 177.891 88.907 177.891L81.634 167.468L79.534 151.438L67.158 152.95Z" fill="#FF8B7B"/>
<path d="M81.228 167.342L78.638 167.888C78.5684 167.904 78.5079 167.947 78.4698 168.007C78.4317 168.067 78.4192 168.14 78.435 168.21C78.4508 168.28 78.4936 168.34 78.554 168.378C78.6144 168.416 78.6874 168.429 78.757 168.413L81.347 167.902C81.4166 167.887 81.4775 167.845 81.5162 167.786C81.5549 167.726 81.5684 167.653 81.5535 167.584C81.5387 167.514 81.4968 167.453 81.437 167.414C81.3773 167.376 81.3046 167.362 81.235 167.377L81.228 167.342Z" fill="#742823"/>
<path d="M97.58 148.4C97.58 148.4 104.678 169.12 107.198 174.3C109.718 179.48 99.715 182.553 93.632 180.859C87.549 179.165 88.508 153.559 88.508 153.559L97.58 148.4Z" fill="#FF8B7B"/>
<path d="M83.706 126.098C83.706 126.098 75.607 145.537 79.891 157.92L100.191 152.376C100.191 152.376 100.289 143.276 97.79 136.031C93.884 124.656 83.706 126.098 83.706 126.098Z" fill="#407BFF"/>
<path d="M52.08 193.921C47.88 191.121 47.775 179.032 48.58 168.021C48.622 165.221 48.741 162.036 48.979 158.634C49.217 155.232 49.588 151.634 50.134 147.938C50.9009 142.484 52.1041 137.1 53.732 131.838C54.817 128.408 60.452 124.838 65.562 123.109C69.1208 122.04 72.8591 121.702 76.552 122.115C79.2815 122.794 81.9733 123.616 84.616 124.579C91.301 126.952 95.536 130.228 95.116 132.076C94.878 133.084 95.116 138.509 93.863 145.11C93.198 148.673 92.771 152.523 92.176 156.394C92.176 156.394 92.176 156.429 92.176 156.464C92.176 156.499 92.176 156.772 92.141 157.059C91.966 160.244 91.567 173.957 96.712 183.407C104.447 197.582 58.086 198.002 52.08 193.921Z" fill="#407BFF"/>
<g opacity="0.2">
<path d="M52.08 193.921C47.88 191.121 47.775 179.032 48.58 168.021C48.622 165.221 48.741 162.036 48.979 158.634C49.217 155.232 49.588 151.634 50.134 147.938C50.9009 142.484 52.1041 137.1 53.732 131.838C54.817 128.408 60.452 124.838 65.562 123.109C69.1208 122.04 72.8591 121.702 76.552 122.115C79.2815 122.794 81.9733 123.616 84.616 124.579C91.301 126.952 95.536 130.228 95.116 132.076C94.878 133.084 95.116 138.509 93.863 145.11C93.198 148.673 92.771 152.523 92.176 156.394C92.176 156.394 92.176 156.429 92.176 156.464C92.176 156.499 92.176 156.772 92.141 157.059C91.966 160.244 91.567 173.957 96.712 183.407C104.447 197.582 58.086 198.002 52.08 193.921Z" fill="white"/>
</g>
<path d="M83.692 134.722C83.4789 134.719 83.2662 134.702 83.055 134.673C76.797 133.798 71.547 122.073 71.498 121.961C71.4933 121.951 71.4907 121.94 71.4903 121.929C71.4899 121.918 71.4917 121.907 71.4956 121.896C71.4995 121.886 71.5054 121.876 71.5131 121.868C71.5207 121.86 71.5298 121.854 71.54 121.849C71.5614 121.839 71.5858 121.838 71.608 121.846C71.6302 121.854 71.6484 121.87 71.659 121.891C71.708 122.01 76.916 133.644 83.083 134.491C84.147 134.638 84.882 134.421 85.267 133.847C86.835 131.474 82.299 123.837 82.25 123.76C82.2357 123.743 82.2279 123.722 82.2279 123.7C82.2279 123.679 82.2357 123.658 82.25 123.641C82.2578 123.633 82.2671 123.627 82.2773 123.623C82.2875 123.618 82.2984 123.616 82.3095 123.616C82.3206 123.616 82.3315 123.618 82.3417 123.623C82.3519 123.627 82.3612 123.633 82.369 123.641C82.558 123.963 87.01 131.453 85.379 133.917C85.1893 134.183 84.9349 134.397 84.6398 134.538C84.3446 134.679 84.0184 134.742 83.692 134.722Z" fill="white"/>
<path d="M95.697 253.057L87.465 252.602L99.645 208.831C99.645 208.831 98 209.153 95.361 209.58C86.429 210.98 66.08 213.563 59.255 208.495C49.455 201.187 50.155 191.464 50.155 191.464C50.155 191.464 127.946 168.707 129.955 190.638C130.858 200.48 95.697 253.057 95.697 253.057Z" fill="#263238"/>
<path d="M88.487 251.461L87.647 259.203H91.861L94.836 251.461H88.487Z" fill="#B55B52"/>
<path d="M86.051 254.982L86.415 250.887H97.713L96.656 254.982H86.051Z" fill="#263238"/>
<path d="M105.721 264.88C105.133 262.269 103.88 261.485 102.452 261.38C101.024 261.275 95.452 259.525 95.452 259.525C95.452 259.525 94.129 257.866 93.114 257.53C92.7812 257.459 92.4351 257.482 92.1148 257.597C91.7944 257.712 91.5126 257.914 91.301 258.181L88.606 257.852C88.606 257.852 87.661 256.669 87.248 257.705C86.772 258.902 86.933 264.054 86.961 264.866L105.721 264.88Z" fill="#407BFF"/>
<path d="M105.287 264.201H101.997L87.5979 264.131C87.5608 264.131 87.5252 264.116 87.4989 264.09C87.4727 264.064 87.4579 264.028 87.4579 263.991C87.4579 263.954 87.4727 263.918 87.4989 263.892C87.5252 263.866 87.5608 263.851 87.5979 263.851H88.5709C88.5672 263.84 88.5672 263.827 88.5709 263.816C89.2709 262.304 88.4449 260.778 87.0589 260.015C86.8979 259.931 87.0589 259.686 87.1989 259.777C87.9393 260.12 88.5217 260.732 88.8284 261.488C89.135 262.245 89.1431 263.089 88.8509 263.851H90.8809L105.273 263.928C105.304 263.933 105.333 263.949 105.354 263.973C105.375 263.997 105.388 264.027 105.389 264.059C105.391 264.091 105.382 264.122 105.363 264.148C105.345 264.174 105.318 264.193 105.287 264.201Z" fill="black"/>
<path d="M94.829 260.673C94.9574 260.462 95.1292 260.28 95.333 260.139C95.5368 259.999 95.7681 259.904 96.0115 259.859C96.255 259.815 96.505 259.823 96.7452 259.882C96.9854 259.942 97.2103 260.051 97.405 260.204C97.545 260.309 97.685 260.071 97.545 259.966C97.3193 259.794 97.0598 259.671 96.7834 259.606C96.507 259.541 96.2199 259.535 95.941 259.588C95.6621 259.642 95.3977 259.754 95.1651 259.916C94.9324 260.079 94.7368 260.289 94.591 260.533C94.486 260.673 94.724 260.813 94.829 260.673Z" fill="white"/>
<path d="M96.383 261.142C96.5107 260.931 96.6818 260.749 96.8851 260.609C97.0883 260.468 97.319 260.373 97.5619 260.329C97.8048 260.284 98.0543 260.292 98.2939 260.351C98.5336 260.411 98.7579 260.52 98.952 260.673C99.099 260.778 99.239 260.54 99.092 260.435C98.8664 260.263 98.6072 260.141 98.3313 260.076C98.0554 260.011 97.7689 260.005 97.4904 260.057C97.2119 260.11 96.9475 260.221 96.7146 260.382C96.4816 260.544 96.2852 260.753 96.138 260.995C96.033 261.142 96.278 261.282 96.383 261.142Z" fill="white"/>
<path d="M97.9859 261.604C98.1142 261.393 98.2858 261.212 98.4893 261.073C98.6928 260.933 98.9236 260.838 99.1664 260.795C99.4093 260.751 99.6586 260.759 99.898 260.819C100.137 260.879 100.361 260.989 100.555 261.142C100.702 261.247 100.835 261.009 100.695 260.897C100.468 260.727 100.209 260.606 99.9329 260.542C99.6569 260.478 99.3705 260.472 99.0923 260.526C98.8141 260.579 98.5501 260.69 98.3173 260.852C98.0846 261.013 97.8883 261.222 97.7409 261.464C97.6359 261.611 97.8809 261.751 97.9859 261.604Z" fill="white"/>
<path opacity="0.2" d="M105.224 195.622L99.624 208.845C99.624 208.845 97.979 209.167 95.34 209.594C98.644 204.771 104.951 195.979 105.224 195.622Z" fill="black"/>
<path d="M65.8631 146.356C65.8631 146.356 63.2311 168.756 64.6941 171.85C66.1571 174.944 95.3471 176.883 95.3471 176.883L96.7471 178.514C96.7471 178.514 66.2061 187.082 55.3001 178.57C48.8671 173.558 50.1971 143.913 50.1971 143.913L65.8631 146.356Z" fill="#FF8B7B"/>
<path d="M54.089 131.061C50.414 136.388 48.881 145.502 48.202 154.021L68.047 152.922C68.047 152.922 70.231 144.102 69.447 136.465C68.971 131.642 66.584 129.36 63.903 128.352C59.647 126.728 56.7 127.302 54.089 131.061Z" fill="#407BFF"/>
<path d="M77.6021 183.358H127.505L128.926 178.577H79.023L77.6021 183.358Z" fill="#407BFF"/>
<g opacity="0.5">
<path d="M77.6021 183.358H127.505L128.926 178.577H79.023L77.6021 183.358Z" fill="white"/>
</g>
<path d="M96.4531 180.887H124.348C124.826 180.891 125.292 180.735 125.672 180.445C126.053 180.155 126.325 179.746 126.448 179.284L132.048 158.207C132.133 157.886 132.143 157.55 132.077 157.225C132.011 156.899 131.871 156.594 131.668 156.331C131.465 156.068 131.204 155.856 130.906 155.71C130.608 155.565 130.28 155.49 129.948 155.491H101.647C101.024 155.488 100.418 155.693 99.9252 156.074C99.4321 156.454 99.0798 156.988 98.9241 157.591L93.7021 177.352C93.5879 177.771 93.573 178.211 93.6583 178.638C93.7437 179.064 93.9271 179.464 94.194 179.807C94.461 180.15 94.804 180.426 95.1961 180.614C95.5882 180.801 96.0185 180.895 96.4531 180.887Z" fill="#407BFF"/>
<g opacity="0.5">
<path d="M96.4531 180.887H124.348C124.826 180.891 125.292 180.735 125.672 180.445C126.053 180.155 126.325 179.746 126.448 179.284L132.048 158.207C132.133 157.886 132.143 157.55 132.077 157.225C132.011 156.899 131.871 156.594 131.668 156.331C131.465 156.068 131.204 155.856 130.906 155.71C130.608 155.565 130.28 155.49 129.948 155.491H101.647C101.024 155.488 100.418 155.693 99.9252 156.074C99.4321 156.454 99.0798 156.988 98.9241 157.591L93.7021 177.352C93.5879 177.771 93.573 178.211 93.6583 178.638C93.7437 179.064 93.9271 179.464 94.194 179.807C94.461 180.15 94.804 180.426 95.1961 180.614C95.5882 180.801 96.0185 180.895 96.4531 180.887Z" fill="white"/>
</g>
<path d="M98.7489 180.887H126.644C127.122 180.891 127.588 180.735 127.968 180.445C128.348 180.155 128.621 179.746 128.744 179.284L134.344 158.207C134.429 157.886 134.439 157.55 134.373 157.225C134.307 156.899 134.167 156.594 133.964 156.331C133.761 156.068 133.5 155.856 133.202 155.71C132.904 155.565 132.576 155.49 132.244 155.491H103.971C103.348 155.488 102.742 155.693 102.249 156.074C101.756 156.454 101.404 156.988 101.248 157.591L96.0469 177.352C95.9339 177.767 95.9182 178.203 96.001 178.625C96.0838 179.048 96.2628 179.445 96.5242 179.787C96.7855 180.129 97.1222 180.406 97.5081 180.597C97.8939 180.788 98.3185 180.887 98.7489 180.887Z" fill="#407BFF"/>
<g opacity="0.8">
<path d="M98.7489 180.887H126.644C127.122 180.891 127.588 180.735 127.968 180.445C128.348 180.155 128.621 179.746 128.744 179.284L134.344 158.207C134.429 157.886 134.439 157.55 134.373 157.225C134.307 156.899 134.167 156.594 133.964 156.331C133.761 156.068 133.5 155.856 133.202 155.71C132.904 155.565 132.576 155.49 132.244 155.491H103.971C103.348 155.488 102.742 155.693 102.249 156.074C101.756 156.454 101.404 156.988 101.248 157.591L96.0469 177.352C95.9339 177.767 95.9182 178.203 96.001 178.625C96.0838 179.048 96.2628 179.445 96.5242 179.787C96.7855 180.129 97.1222 180.406 97.5081 180.597C97.8939 180.788 98.3185 180.887 98.7489 180.887Z" fill="white"/>
</g>
<path d="M112.777 168.42C112.685 168.79 112.679 169.177 112.76 169.55C112.84 169.923 113.005 170.272 113.242 170.571C113.478 170.871 113.78 171.112 114.124 171.277C114.468 171.441 114.846 171.525 115.227 171.521C116.074 171.472 116.879 171.139 117.514 170.577C118.149 170.014 118.576 169.255 118.727 168.42C118.819 168.049 118.825 167.663 118.744 167.29C118.664 166.916 118.499 166.566 118.262 166.267C118.026 165.967 117.724 165.725 117.38 165.559C117.036 165.394 116.659 165.309 116.277 165.312C115.43 165.363 114.624 165.697 113.989 166.261C113.355 166.824 112.928 167.585 112.777 168.42Z" fill="#407BFF"/>
<g opacity="0.5">
<path d="M112.777 168.42C112.685 168.79 112.679 169.177 112.76 169.55C112.84 169.923 113.005 170.272 113.242 170.571C113.478 170.871 113.78 171.112 114.124 171.277C114.468 171.441 114.846 171.525 115.227 171.521C116.074 171.472 116.879 171.139 117.514 170.577C118.149 170.014 118.576 169.255 118.727 168.42C118.819 168.049 118.825 167.663 118.744 167.29C118.664 166.916 118.499 166.566 118.262 166.267C118.026 165.967 117.724 165.725 117.38 165.559C117.036 165.394 116.659 165.309 116.277 165.312C115.43 165.363 114.624 165.697 113.989 166.261C113.355 166.824 112.928 167.585 112.777 168.42Z" fill="white"/>
</g>
<path d="M95.8091 103.929C95.5361 104.699 94.4091 104.874 94.4091 104.874C94.4091 104.874 95.473 106.211 94.941 106.659C94.409 107.107 93.254 106.659 93.254 106.659C93.3839 106.865 93.469 107.096 93.504 107.338C93.5389 107.579 93.523 107.824 93.4571 108.059C93.2121 108.836 92.8971 108.542 92.8971 108.542L75.8451 105.805C76.1465 104.478 76.1465 103.1 75.8451 101.773C75.3061 99.9321 74.571 97.4121 75.46 96.9641C76.349 96.5161 76.7761 96.9641 76.7761 96.9641C76.7761 96.9641 76.7061 95.0741 77.6231 94.9201C77.8641 94.8707 78.1127 94.8714 78.3535 94.9219C78.5943 94.9725 78.8222 95.0719 79.0231 95.2141C79.0231 95.2141 79.1351 93.8841 79.9681 93.7651C80.208 93.7424 80.4482 93.8042 80.6476 93.9396C80.8469 94.075 80.9927 94.2757 81.06 94.5071C81.06 94.5071 82.0191 93.1981 82.9641 93.1771C83.9091 93.1561 84.035 94.2341 84.035 94.2341C84.035 94.2341 85.5471 93.0021 86.2471 93.4851C86.688 93.846 87.0261 94.3168 87.2271 94.8501C87.2271 94.8501 88.697 93.3381 89.327 94.1501C89.7233 94.7019 89.9429 95.3609 89.9571 96.0401C89.9571 96.0401 91.854 94.6401 92.358 95.5151C92.6562 96.1199 92.7519 96.8046 92.631 97.4681C92.631 97.4681 94.255 96.5791 94.731 97.7061C94.8587 98.0566 94.8936 98.4341 94.8323 98.8021C94.771 99.1701 94.6155 99.5159 94.381 99.8061C94.381 99.8061 95.893 99.9881 95.837 100.877C95.781 101.766 94.437 102.55 94.437 102.55C94.437 102.55 96.0471 103.152 95.8091 103.929Z" fill="#263238"/>
<path d="M83.1461 120.792V120.848L81.9561 123.424C81.798 123.956 81.6924 124.502 81.6411 125.055C81.5947 125.501 81.583 125.951 81.6061 126.399C82.0611 127.323 82.0121 129.199 79.8981 128.856C77.2311 128.401 73.0241 123.634 73.0591 122.423C74.9351 119 76.7271 114.919 77.1401 111.405L79.6041 115.234L83.1461 120.792Z" fill="#FF8B7B"/>
<g opacity="0.2">
<path d="M83.111 120.855L81.921 123.431C80.381 122.374 78.932 120.421 78.841 118.573C78.792 117.243 79.583 116.151 80.108 116.172L83.111 120.855Z" fill="black"/>
</g>
<path d="M77.7 104.818C78.0121 103.527 78.6473 102.337 79.5458 101.359C80.4444 100.381 81.5768 99.6476 82.8366 99.2276C84.0965 98.8077 85.4425 98.715 86.748 98.9581C88.0536 99.2013 89.2759 99.7724 90.3 100.618C94.976 104.468 93.191 112.196 90.006 118.069C87.206 123.242 79.954 122.01 77.119 116.48C75.236 112.812 76.293 110.432 77.665 104.853" fill="#FF8B7B"/>
<path d="M87.647 116.249C87.647 116.249 85.064 115.549 83.867 113.82C83.867 113.82 83.755 115.864 84.91 117.012C86.065 118.16 87.647 116.249 87.647 116.249Z" fill="white"/>
<path d="M77.546 105.336C77.546 105.336 79.233 105.714 79.051 107.184C78.869 108.654 78.68 108.822 78.68 108.822L80.619 109.599C80.619 109.599 81.032 103.936 82.488 104.258C83.944 104.58 82.789 101.808 83.734 101.598C85.96 101.108 91.637 102.046 93.226 105.84C93.226 105.84 93.226 102.34 90.867 100.093C88.508 97.8459 83.167 96.4809 80.5 98.7559C77.833 101.031 77.546 105.336 77.546 105.336Z" fill="#263238"/>
<path d="M74.207 107.737C74.1856 109.182 74.7367 110.576 75.74 111.615C77.077 113.015 78.701 112.014 79.128 110.215C79.506 108.633 79.275 106.015 77.546 105.315C75.817 104.615 74.256 105.945 74.207 107.716" fill="#FF8B7B"/>
<path d="M85.085 110.11C84.945 110.558 85.085 110.992 85.358 111.083C85.631 111.174 85.995 110.887 86.135 110.446C86.275 110.005 86.135 109.564 85.862 109.473C85.589 109.382 85.218 109.669 85.085 110.11Z" fill="#263238"/>
<path d="M89.985 111.58C89.845 112.028 89.985 112.462 90.258 112.553C90.531 112.644 90.902 112.357 91.042 111.909C91.182 111.461 91.042 111.027 90.762 110.936C90.482 110.845 90.125 111.132 89.985 111.58Z" fill="black"/>
<path d="M92.3091 110.131C92.2715 110.116 92.238 110.092 92.2113 110.062C92.1845 110.031 92.1653 109.995 92.1551 109.956C92.1312 109.797 92.0755 109.644 91.9913 109.507C91.9072 109.37 91.7962 109.251 91.6651 109.158C91.3822 109.007 91.056 108.957 90.7411 109.018C90.6818 109.031 90.6198 109.021 90.5677 108.989C90.5157 108.958 90.4775 108.908 90.4611 108.85C90.4538 108.821 90.4524 108.791 90.457 108.761C90.4615 108.732 90.4719 108.703 90.4876 108.678C90.5032 108.653 90.5238 108.63 90.5481 108.613C90.5724 108.596 90.5999 108.583 90.6291 108.577C91.0657 108.485 91.5207 108.555 91.9101 108.773C92.0958 108.897 92.2539 109.058 92.3744 109.246C92.4948 109.434 92.5751 109.644 92.6101 109.865C92.6172 109.894 92.6183 109.924 92.6133 109.954C92.6082 109.983 92.5971 110.011 92.5807 110.036C92.5642 110.061 92.5428 110.082 92.5178 110.099C92.4927 110.115 92.4646 110.126 92.4351 110.131C92.3939 110.143 92.3503 110.143 92.3091 110.131Z" fill="#263238"/>
<path d="M84.672 107.905C84.6349 107.894 84.6013 107.874 84.5743 107.846C84.5474 107.819 84.528 107.784 84.5182 107.747C84.5083 107.71 84.5083 107.671 84.518 107.633C84.5278 107.596 84.5471 107.562 84.574 107.534C84.8882 107.219 85.3063 107.03 85.75 107.002C85.972 107.005 86.191 107.054 86.3934 107.146C86.5957 107.237 86.777 107.369 86.926 107.534C86.9534 107.553 86.9763 107.579 86.993 107.608C87.0097 107.637 87.0199 107.669 87.0227 107.703C87.0255 107.736 87.021 107.77 87.0095 107.802C86.998 107.833 86.9797 107.862 86.9559 107.886C86.9321 107.91 86.9034 107.928 86.8718 107.939C86.8402 107.951 86.8065 107.956 86.773 107.953C86.7395 107.95 86.707 107.94 86.6778 107.923C86.6486 107.906 86.6234 107.883 86.604 107.856C86.4977 107.737 86.3686 107.64 86.2243 107.572C86.08 107.503 85.9235 107.464 85.764 107.457C85.4393 107.48 85.1337 107.619 84.903 107.849C84.8736 107.879 84.8364 107.9 84.7955 107.91C84.7547 107.92 84.7118 107.918 84.672 107.905Z" fill="#263238"/>
<path d="M88.431 110.341C88.3847 111.323 88.6281 112.297 89.131 113.141C89.95 114.436 87.486 114.576 87.486 114.576L88.431 110.341Z" fill="#BA4D3C"/>
</svg>
